<svg width="268" height="74" viewBox="0 0 268 74" fill="none" xmlns="http://www.w3.org/2000/svg">
<path d="M3.32855 42V10.6061H15.7144C18.0956 10.6061 20.1241 11.0608 21.8001 11.9703C23.4761 12.8697 24.7535 14.1215 25.6324 15.726C26.5214 17.3202 26.966 19.1597 26.966 21.2444C26.966 23.3292 26.5163 25.1687 25.617 26.7629C24.7177 28.3571 23.4147 29.5988 21.7081 30.4879C20.0117 31.377 17.9576 31.8215 15.5458 31.8215H7.65135V26.5023H14.4728C15.7502 26.5023 16.8028 26.2826 17.6306 25.8432C18.4686 25.3935 19.0919 24.7752 19.5007 23.9883C19.9197 23.1912 20.1292 22.2766 20.1292 21.2444C20.1292 20.2021 19.9197 19.2925 19.5007 18.5159C19.0919 17.729 18.4686 17.1209 17.6306 16.6917C16.7926 16.2523 15.7298 16.0326 14.4421 16.0326H9.96604V42H3.32855ZM62.2849 26.303C62.2849 29.7265 61.636 32.639 60.3381 35.0406C59.0505 37.4422 57.2928 39.2765 55.0649 40.5437C52.8473 41.8007 50.3538 42.4292 47.5843 42.4292C44.7945 42.4292 42.2907 41.7956 40.0731 40.5284C37.8555 39.2612 36.1029 37.4268 34.8152 35.0253C33.5276 32.6237 32.8838 29.7163 32.8838 26.303C32.8838 22.8795 33.5276 19.967 34.8152 17.5655C36.1029 15.1639 37.8555 13.3346 40.0731 12.0777C42.2907 10.8104 44.7945 10.1768 47.5843 10.1768C50.3538 10.1768 52.8473 10.8104 55.0649 12.0777C57.2928 13.3346 59.0505 15.1639 60.3381 17.5655C61.636 19.967 62.2849 22.8795 62.2849 26.303ZM55.5555 26.303C55.5555 24.0854 55.2233 22.2153 54.5591 20.6926C53.905 19.1699 52.9802 18.0151 51.7845 17.2282C50.5888 16.4413 49.1888 16.0479 47.5843 16.0479C45.9799 16.0479 44.5798 16.4413 43.3842 17.2282C42.1885 18.0151 41.2586 19.1699 40.5943 20.6926C39.9403 22.2153 39.6132 24.0854 39.6132 26.303C39.6132 28.5206 39.9403 30.3908 40.5943 31.9135C41.2586 33.4362 42.1885 34.5909 43.3842 35.3778C44.5798 36.1647 45.9799 36.5582 47.5843 36.5582C49.1888 36.5582 50.5888 36.1647 51.7845 35.3778C52.9802 34.5909 53.905 33.4362 54.5591 31.9135C55.2233 30.3908 55.5555 28.5206 55.5555 26.303ZM69.3601 42V10.6061H81.746C84.1168 10.6061 86.1403 11.0302 87.8163 11.8784C89.5025 12.7164 90.785 13.9069 91.6639 15.45C92.5529 16.983 92.9975 18.7867 92.9975 20.8612C92.9975 22.946 92.5478 24.7395 91.6485 26.2417C90.7492 27.7337 89.4463 28.8783 87.7396 29.6754C86.0432 30.4725 83.9891 30.8711 81.5773 30.8711H73.2843V25.5366H80.5043C81.7715 25.5366 82.8241 25.3628 83.6621 25.0154C84.5001 24.6679 85.1235 24.1467 85.5322 23.4518C85.9512 22.7569 86.1607 21.8934 86.1607 20.8612C86.1607 19.8188 85.9512 18.94 85.5322 18.2246C85.1235 17.5093 84.495 16.9676 83.6468 16.5997C82.8088 16.2216 81.7511 16.0326 80.4736 16.0326H75.9975V42H69.3601ZM86.314 27.7133L94.1165 42H86.7892L79.1553 27.7133H86.314ZM98.6509 16.0785V10.6061H124.434V16.0785H114.823V42H108.262V16.0785H98.6509ZM130.839 42V10.6061H151.625V16.0785H137.476V23.5591H150.245V29.0316H137.476V42H130.839ZM187.097 26.303C187.097 29.7265 186.448 32.639 185.151 35.0406C183.863 37.4422 182.105 39.2765 179.877 40.5437C177.66 41.8007 175.166 42.4292 172.397 42.4292C169.607 42.4292 167.103 41.7956 164.885 40.5284C162.668 39.2612 160.915 37.4268 159.628 35.0253C158.34 32.6237 157.696 29.7163 157.696 26.303C157.696 22.8795 158.34 19.967 159.628 17.5655C160.915 15.1639 162.668 13.3346 164.885 12.0777C167.103 10.8104 169.607 10.1768 172.397 10.1768C175.166 10.1768 177.66 10.8104 179.877 12.0777C182.105 13.3346 183.863 15.1639 185.151 17.5655C186.448 19.967 187.097 22.8795 187.097 26.303ZM180.368 26.303C180.368 24.0854 180.036 22.2153 179.371 20.6926C178.717 19.1699 177.793 18.0151 176.597 17.2282C175.401 16.4413 174.001 16.0479 172.397 16.0479C170.792 16.0479 169.392 16.4413 168.197 17.2282C167.001 18.0151 166.071 19.1699 165.407 20.6926C164.753 22.2153 164.426 24.0854 164.426 26.303C164.426 28.5206 164.753 30.3908 165.407 31.9135C166.071 33.4362 167.001 34.5909 168.197 35.3778C169.392 36.1647 170.792 36.5582 172.397 36.5582C174.001 36.5582 175.401 36.1647 176.597 35.3778C177.793 34.5909 178.717 33.4362 179.371 31.9135C180.036 30.3908 180.368 28.5206 180.368 26.303ZM194.172 42V10.6061H200.81V36.5275H214.269V42H194.172ZM227.46 10.6061V42H220.823V10.6061H227.46ZM263.929 26.303C263.929 29.7265 263.28 32.639 261.982 35.0406C260.694 37.4422 258.937 39.2765 256.709 40.5437C254.491 41.8007 251.998 42.4292 249.228 42.4292C246.438 42.4292 243.935 41.7956 241.717 40.5284C239.499 39.2612 237.747 37.4268 236.459 35.0253C235.172 32.6237 234.528 29.7163 234.528 26.303C234.528 22.8795 235.172 19.967 236.459 17.5655C237.747 15.1639 239.499 13.3346 241.717 12.0777C243.935 10.8104 246.438 10.1768 249.228 10.1768C251.998 10.1768 254.491 10.8104 256.709 12.0777C258.937 13.3346 260.694 15.1639 261.982 17.5655C263.28 19.967 263.929 22.8795 263.929 26.303ZM257.199 26.303C257.199 24.0854 256.867 22.2153 256.203 20.6926C255.549 19.1699 254.624 18.0151 253.428 17.2282C252.233 16.4413 250.833 16.0479 249.228 16.0479C247.624 16.0479 246.224 16.4413 245.028 17.2282C243.832 18.0151 242.903 19.1699 242.238 20.6926C241.584 22.2153 241.257 24.0854 241.257 26.303C241.257 28.5206 241.584 30.3908 242.238 31.9135C242.903 33.4362 243.832 34.5909 245.028 35.3778C246.224 36.1647 247.624 36.5582 249.228 36.5582C250.833 36.5582 252.233 36.1647 253.428 35.3778C254.624 34.5909 255.549 33.4362 256.203 31.9135C256.867 30.3908 257.199 28.5206 257.199 26.303Z" fill="#FFFDD0"/>
<rect x="144.9" y="21.2195" width="108.491" height="13.3756" fill="black"/>
<path d="M157.506 29.1568L159.543 25.0491L160.264 23.5045C160.47 23.5273 160.771 23.5388 161.168 23.5388C161.301 23.5388 161.45 23.535 161.614 23.5273C161.782 23.5197 161.965 23.5083 162.163 23.493C162.178 23.5311 162.178 23.596 162.163 23.6875C162.148 23.7791 162.129 23.8248 162.106 23.8248C162.007 23.8248 161.902 23.8515 161.791 23.9049C161.681 23.9583 161.599 24.0232 161.545 24.0994C161.477 24.191 161.425 24.3016 161.391 24.4313C161.36 24.5495 161.324 24.7783 161.282 25.1178L160.836 29.4886C160.79 29.8815 160.767 30.1828 160.767 30.3926C160.767 30.5528 160.826 30.6538 160.945 30.6958C161.013 30.7187 161.095 30.7358 161.191 30.7473C161.29 30.7549 161.37 30.7587 161.431 30.7587C161.446 30.7587 161.454 30.793 161.454 30.8617C161.454 30.9532 161.431 31.0219 161.385 31.0677C161.03 31.0486 160.748 31.0352 160.538 31.0276C160.332 31.0162 160.199 31.0104 160.138 31.0104C160.126 31.0104 160.02 31.0162 159.817 31.0276C159.619 31.0352 159.325 31.0486 158.936 31.0677C158.921 31.041 158.914 31.0219 158.914 31.0104C158.914 30.9647 158.923 30.9113 158.942 30.8503C158.961 30.7892 158.978 30.7587 158.994 30.7587C159.062 30.7587 159.148 30.7511 159.251 30.7358C159.358 30.7168 159.457 30.692 159.549 30.6615C159.64 30.6271 159.695 30.5909 159.715 30.5528C159.791 30.3773 159.844 30.2152 159.875 30.0665C159.882 30.0245 159.894 29.933 159.909 29.7919C159.924 29.6507 159.936 29.5611 159.943 29.523L160.401 25.0606C160.424 24.8317 160.435 24.683 160.435 24.6143C160.435 24.5686 160.412 24.5457 160.367 24.5457C160.363 24.5457 160.351 24.5609 160.332 24.5914L157.346 30.6786C157.308 30.7473 157.235 30.8274 157.129 30.9189C157.022 31.0104 156.923 31.0562 156.831 31.0562C156.797 31.0562 156.766 31.0486 156.74 31.0333L155.767 24.5457C155.763 24.5304 155.756 24.5228 155.744 24.5228C155.721 24.5228 155.71 24.5304 155.71 24.5457L154.371 29.4772C154.226 30.0035 154.154 30.3201 154.154 30.4269C154.154 30.4803 154.209 30.5337 154.32 30.5871C154.434 30.6367 154.554 30.6786 154.68 30.7129C154.81 30.7435 154.894 30.7587 154.932 30.7587C154.947 30.7587 154.955 30.7816 154.955 30.8274C154.955 30.9151 154.936 30.9952 154.897 31.0677C154.543 31.0486 154.266 31.0352 154.068 31.0276C153.87 31.0162 153.749 31.0104 153.707 31.0104C153.696 31.0104 153.585 31.0162 153.376 31.0276C153.166 31.0352 152.857 31.0486 152.449 31.0677C152.434 31.0524 152.426 31.0143 152.426 30.9532C152.426 30.8236 152.453 30.7587 152.506 30.7587C152.567 30.7587 152.664 30.7454 152.798 30.7187C152.931 30.6882 153.057 30.6519 153.175 30.61C153.297 30.5642 153.368 30.5222 153.387 30.4841C153.521 30.2324 153.646 29.8929 153.765 29.4658L155.012 24.9919C155.042 24.8432 155.075 24.6963 155.109 24.5514C155.143 24.4027 155.161 24.2596 155.161 24.1223C155.161 24.0651 155.107 24.0136 155 23.9679C154.894 23.9221 154.777 23.8859 154.651 23.8592C154.529 23.8286 154.44 23.8134 154.383 23.8134C154.367 23.8134 154.36 23.7867 154.36 23.7333C154.36 23.6074 154.383 23.5311 154.428 23.5045C154.711 23.5121 154.941 23.5178 155.121 23.5216C155.3 23.5254 155.428 23.5273 155.504 23.5273C155.721 23.5273 155.92 23.5254 156.099 23.5216C156.282 23.5178 156.446 23.5121 156.591 23.5045C156.625 23.8172 156.715 24.4465 156.86 25.3924C157.005 26.3345 157.205 27.5931 157.46 29.1683C157.46 29.1759 157.464 29.1797 157.472 29.1797C157.495 29.1797 157.506 29.1721 157.506 29.1568ZM167.074 30.3811C167.074 30.5871 166.996 30.774 166.839 30.9418C166.683 31.1096 166.51 31.1935 166.319 31.1935C166.174 31.1935 166.054 31.142 165.958 31.039C165.863 30.9361 165.815 30.8083 165.815 30.6557C165.815 30.4498 165.896 30.2667 166.056 30.1065C166.216 29.9463 166.391 29.8662 166.582 29.8662C166.727 29.8662 166.845 29.9139 166.937 30.0093C167.028 30.1046 167.074 30.2286 167.074 30.3811ZM175.429 23.5045C176.093 23.5045 176.648 23.6303 177.094 23.882C177.544 24.1338 177.881 24.477 178.106 24.9118C178.335 25.3466 178.45 25.8424 178.45 26.3993C178.45 26.7883 178.393 27.1926 178.278 27.6121C178.164 28.0317 177.983 28.4474 177.735 28.8593C177.487 29.2712 177.191 29.6412 176.848 29.9692C176.505 30.2972 176.081 30.5623 175.578 30.7644C175.074 30.9666 174.529 31.0677 173.942 31.0677C173.873 31.0677 173.77 31.0638 173.633 31.0562C173.499 31.0524 173.331 31.0467 173.129 31.039C172.927 31.0314 172.742 31.0257 172.574 31.0219C172.41 31.0143 172.263 31.0104 172.134 31.0104L170.864 31.0677C170.856 31.06 170.852 31.0295 170.852 30.9761C170.852 30.8312 170.871 30.7587 170.909 30.7587C170.967 30.7587 171.052 30.7454 171.167 30.7187C171.281 30.6882 171.39 30.6519 171.493 30.61C171.596 30.5642 171.657 30.5184 171.676 30.4727C171.783 30.2553 171.882 29.9006 171.974 29.4086L172.797 25.1521C172.897 24.5953 172.938 24.2406 172.923 24.088C172.919 24.046 172.876 24.0041 172.792 23.9621C172.708 23.9202 172.616 23.8859 172.517 23.8592C172.418 23.8286 172.34 23.8134 172.282 23.8134C172.267 23.8134 172.26 23.7981 172.26 23.7676C172.26 23.6456 172.286 23.5578 172.34 23.5045C172.515 23.5121 172.704 23.5178 172.906 23.5216C173.112 23.5254 173.331 23.5273 173.564 23.5273C173.697 23.5273 173.85 23.5273 174.022 23.5273C174.193 23.5235 174.384 23.5197 174.594 23.5159C174.804 23.5121 174.977 23.5102 175.114 23.5102C175.255 23.5064 175.36 23.5045 175.429 23.5045ZM175.406 24.0079C174.59 24.0079 174.132 24.0689 174.033 24.191C173.911 24.3473 173.808 24.6487 173.724 25.0949L172.889 29.4429C172.866 29.5497 172.855 29.7118 172.855 29.9292C172.855 30.1504 172.862 30.2781 172.877 30.3125C172.946 30.465 173.389 30.5413 174.205 30.5413C174.849 30.5413 175.421 30.3335 175.921 29.9177C176.424 29.502 176.804 28.9738 177.06 28.333C177.315 27.6922 177.443 27.0133 177.443 26.2963C177.443 25.625 177.275 25.0758 176.939 24.6487C176.604 24.2215 176.093 24.0079 175.406 24.0079ZM185.031 26.056C185.481 26.056 185.83 26.2124 186.078 26.5252C186.326 26.8379 186.45 27.2689 186.45 27.8181C186.45 28.211 186.374 28.6019 186.221 28.9909C186.069 29.3761 185.868 29.727 185.62 30.0436C185.373 30.3602 185.1 30.6138 184.802 30.8045C184.505 30.9952 184.211 31.0905 183.921 31.0905C183.464 31.0905 183.115 30.9418 182.874 30.6443C182.634 30.3468 182.514 29.9234 182.514 29.3742C182.514 28.9776 182.588 28.5847 182.737 28.1957C182.89 27.8029 183.09 27.4462 183.338 27.1259C183.586 26.8017 183.856 26.5423 184.15 26.3478C184.448 26.1533 184.741 26.056 185.031 26.056ZM184.894 26.5252C184.703 26.5252 184.518 26.6091 184.339 26.7769C184.16 26.9409 183.998 27.1564 183.853 27.4234C183.708 27.6903 183.593 27.9821 183.509 28.2987C183.425 28.6152 183.384 28.9242 183.384 29.2255C183.384 29.6679 183.454 30.0112 183.595 30.2553C183.736 30.4994 183.914 30.6214 184.127 30.6214C184.318 30.6214 184.499 30.5394 184.671 30.3754C184.846 30.2076 185.003 29.9902 185.14 29.7232C185.277 29.4524 185.384 29.1587 185.46 28.8422C185.54 28.5256 185.58 28.2148 185.58 27.9096C185.58 27.4596 185.519 27.1163 185.397 26.8799C185.275 26.6434 185.107 26.5252 184.894 26.5252ZM193.306 26.056C193.657 26.056 193.911 26.1457 194.067 26.3249C194.223 26.5042 194.302 26.7006 194.302 26.9142C194.302 27.2498 194.13 27.5816 193.787 27.9096C193.558 28.127 193.312 28.3139 193.049 28.4703C192.785 28.6229 192.532 28.7392 192.288 28.8193C192.044 28.8994 191.838 28.9394 191.67 28.9394C191.639 28.9394 191.624 29.0729 191.624 29.3399C191.624 29.6832 191.691 29.9444 191.824 30.1237C191.958 30.3029 192.139 30.3926 192.368 30.3926C192.463 30.3926 192.578 30.3659 192.711 30.3125C192.845 30.2591 192.948 30.2019 193.02 30.1408C193.096 30.076 193.138 30.0417 193.146 30.0379C193.154 30.0341 193.169 30.0226 193.192 30.0035C193.215 29.9807 193.283 29.912 193.398 29.7976L193.432 29.7633C193.447 29.7633 193.476 29.7995 193.518 29.872C193.56 29.9444 193.581 29.9959 193.581 30.0264C193.512 30.1485 193.39 30.2953 193.215 30.4669C193.043 30.6348 192.848 30.7835 192.631 30.9132C192.414 31.039 192.2 31.102 191.99 31.102C191.594 31.102 191.29 30.9475 191.081 30.6386C190.871 30.3296 190.766 29.9044 190.766 29.3628C190.766 28.9966 190.842 28.621 190.995 28.2357C191.147 27.8467 191.35 27.4882 191.601 27.1602C191.853 26.8322 192.128 26.5671 192.425 26.365C192.723 26.159 193.016 26.056 193.306 26.056ZM193.192 26.5252C193.012 26.5252 192.835 26.5995 192.66 26.7483C192.484 26.897 192.324 27.0801 192.179 27.2975C192.034 27.5149 191.918 27.7342 191.83 27.9554C191.746 28.1728 191.704 28.3521 191.704 28.4932C191.704 28.5237 191.719 28.539 191.75 28.539C191.887 28.539 192.053 28.4894 192.248 28.3902C192.442 28.2872 192.633 28.1537 192.82 27.9897C193.007 27.8257 193.163 27.6465 193.289 27.452C193.415 27.2536 193.478 27.0591 193.478 26.8684C193.478 26.6396 193.382 26.5252 193.192 26.5252ZM201.981 26.056C202.21 26.056 202.411 26.1304 202.582 26.2792C202.754 26.4279 202.84 26.6129 202.84 26.8341C202.84 27.3299 202.62 27.738 202.182 28.0584C201.743 28.3788 201.181 28.5962 200.494 28.7106C200.948 29.3933 201.297 29.8472 201.541 30.0722C201.777 30.2934 201.981 30.404 202.153 30.404C202.29 30.404 202.422 30.3468 202.548 30.2324C202.674 30.118 202.767 30.0074 202.828 29.9006C202.851 29.9006 202.887 29.9311 202.937 29.9921C202.986 30.0531 203.011 30.0989 203.011 30.1294C202.988 30.2133 202.914 30.3315 202.788 30.4841C202.666 30.6367 202.523 30.774 202.359 30.896C202.195 31.0181 202.039 31.0791 201.89 31.0791C201.695 31.0791 201.495 31.0123 201.289 30.8789C201.087 30.7416 200.919 30.5871 200.786 30.4155C200.736 30.3544 200.692 30.301 200.654 30.2553C200.616 30.2057 200.582 30.1618 200.551 30.1237C200.494 30.055 200.416 29.9425 200.317 29.7861L200.116 29.4658C200.055 29.3666 199.992 29.2579 199.928 29.1397C199.863 29.0176 199.804 28.9204 199.75 28.8479L199.327 31.0333C199.197 31.0715 199.071 31.0905 198.949 31.0905C198.846 31.0905 198.72 31.0715 198.572 31.0333L199.819 24.6372C199.888 24.3207 199.922 24.1185 199.922 24.0308C199.922 23.8859 199.689 23.8134 199.224 23.8134C199.201 23.8134 199.19 23.7905 199.19 23.7447C199.19 23.6532 199.22 23.5769 199.281 23.5159C199.773 23.4701 200.254 23.3633 200.723 23.1955C200.769 23.2184 200.791 23.2909 200.791 23.4129C200.791 23.4968 200.742 23.7829 200.643 24.2711L200.048 27.349L200.174 27.2002C200.292 27.0591 200.444 26.9008 200.631 26.7254C200.818 26.5461 201.028 26.3898 201.261 26.2563C201.493 26.1228 201.734 26.056 201.981 26.056ZM201.57 26.5938C201.448 26.5938 201.295 26.6701 201.112 26.8226C200.929 26.9714 200.748 27.1507 200.568 27.3604C200.389 27.5702 200.238 27.7723 200.116 27.9669C199.994 28.1576 199.933 28.2949 199.933 28.3788C199.933 28.394 199.941 28.4017 199.956 28.4017C199.971 28.4017 199.989 28.4017 200.008 28.4017C200.027 28.3978 200.05 28.394 200.076 28.3902C200.126 28.3826 200.221 28.3654 200.362 28.3387C200.504 28.312 200.641 28.2796 200.774 28.2415C200.969 28.1843 201.161 28.1042 201.352 28.0012C201.547 27.8982 201.707 27.7704 201.833 27.6179C201.962 27.4653 202.027 27.288 202.027 27.0858C202.027 26.7578 201.875 26.5938 201.57 26.5938ZM211.012 26.056C211.393 26.056 211.584 26.3078 211.584 26.8112C211.584 27.1659 211.53 27.5816 211.423 28.0584L211.046 29.8205C211.023 29.912 211.012 30.0074 211.012 30.1065C211.012 30.2972 211.05 30.3926 211.126 30.3926C211.221 30.3926 211.336 30.3258 211.469 30.1923C211.603 30.055 211.717 29.9387 211.812 29.8434L211.881 29.7633C211.896 29.7633 211.925 29.7995 211.967 29.872C212.009 29.9444 212.03 29.9959 212.03 30.0264C211.965 30.137 211.847 30.2781 211.675 30.4498C211.507 30.6214 211.324 30.774 211.126 30.9075C210.928 31.0371 210.748 31.102 210.588 31.102C210.466 31.102 210.371 31.0467 210.302 30.9361C210.233 30.8255 210.199 30.6824 210.199 30.507C210.199 30.3926 210.226 30.1904 210.279 29.9006L210.68 28.0126C210.733 27.7533 210.76 27.5473 210.76 27.3948C210.76 27.0667 210.687 26.9027 210.542 26.9027C210.417 26.9027 210.247 26.9981 210.033 27.1888C209.82 27.3757 209.597 27.6255 209.364 27.9382C209.135 28.251 208.927 28.6 208.74 28.9852C208.553 29.3666 208.422 29.7518 208.346 30.1408L208.151 31.0333C208.048 31.0638 207.93 31.0791 207.796 31.0791C207.667 31.0791 207.537 31.0638 207.407 31.0333L208.643 24.6372C208.712 24.2978 208.746 24.0956 208.746 24.0308C208.746 23.8859 208.513 23.8134 208.048 23.8134C208.025 23.8134 208.014 23.7905 208.014 23.7447C208.014 23.6532 208.044 23.5769 208.105 23.5159C208.601 23.4701 209.082 23.3633 209.547 23.1955C209.593 23.2184 209.616 23.2909 209.616 23.4129C209.616 23.4663 209.566 23.7524 209.467 24.2711L208.677 28.3101C208.75 28.1804 208.916 27.944 209.175 27.6007C209.347 27.3757 209.545 27.1449 209.77 26.9085C209.999 26.6682 210.224 26.466 210.445 26.302C210.67 26.138 210.859 26.056 211.012 26.056ZM219.458 26.056C219.74 26.056 220.019 26.1056 220.293 26.2048L219.595 29.8205C219.572 29.912 219.561 30.0074 219.561 30.1065C219.561 30.2972 219.599 30.3926 219.675 30.3926C219.771 30.3926 219.885 30.3258 220.019 30.1923C220.152 30.055 220.267 29.9387 220.362 29.8434L220.431 29.7633C220.446 29.7633 220.475 29.7995 220.516 29.872C220.558 29.9444 220.579 29.9959 220.579 30.0264C220.515 30.137 220.396 30.2781 220.225 30.4498C220.057 30.6214 219.874 30.774 219.675 30.9075C219.477 31.0371 219.298 31.102 219.138 31.102C219.016 31.102 218.92 31.0467 218.852 30.9361C218.783 30.8255 218.749 30.6824 218.749 30.507C218.749 30.3888 218.775 30.1866 218.829 29.9006L218.869 29.7003C218.88 29.6469 218.886 29.6145 218.886 29.6031C218.825 29.7175 218.737 29.8586 218.623 30.0264C218.508 30.1904 218.377 30.3544 218.228 30.5184C218.079 30.6824 217.923 30.8197 217.759 30.9303C217.595 31.0371 217.433 31.0905 217.273 31.0905C216.937 31.0905 216.672 30.9399 216.477 30.6386C216.283 30.3373 216.186 29.973 216.186 29.5459C216.186 29.0005 216.348 28.457 216.672 27.9154C216.889 27.5492 217.149 27.2269 217.45 26.9485C217.755 26.6701 218.081 26.4527 218.428 26.2963C218.775 26.1361 219.119 26.056 219.458 26.056ZM218.977 26.5824C218.752 26.5824 218.526 26.6625 218.297 26.8226C218.068 26.979 217.858 27.1907 217.667 27.4577C217.477 27.7208 217.322 28.0145 217.204 28.3387C217.09 28.6591 217.032 28.9814 217.032 29.3056C217.032 30.0531 217.227 30.4269 217.616 30.4269C217.753 30.4269 217.902 30.3506 218.062 30.1981C218.222 30.0455 218.381 29.8434 218.537 29.5916C218.693 29.3399 218.831 29.0672 218.949 28.7735C219.071 28.476 219.161 28.1843 219.218 27.8982L219.447 26.7311C219.355 26.6319 219.199 26.5824 218.977 26.5824ZM226.36 26.056C226.482 26.056 226.577 26.1113 226.646 26.2219C226.715 26.3325 226.749 26.4756 226.749 26.651C226.749 26.8188 226.726 27.021 226.68 27.2574L226.497 28.2186C226.593 27.9936 226.715 27.7571 226.863 27.5092C227.016 27.2574 227.178 27.021 227.35 26.7998C227.521 26.5786 227.691 26.3993 227.859 26.262C228.027 26.1247 228.175 26.056 228.305 26.056C228.564 26.056 228.774 26.1781 228.934 26.4222C228.934 26.9333 228.793 27.1888 228.511 27.1888C228.45 27.1888 228.378 27.1411 228.294 27.0458C228.21 26.9504 228.122 26.9027 228.03 26.9027C227.92 26.9027 227.775 26.9943 227.596 27.1774C227.416 27.3604 227.231 27.6007 227.041 27.8982C226.85 28.1919 226.678 28.5104 226.526 28.8536C226.373 29.1931 226.268 29.5192 226.211 29.8319L225.994 31.0333C225.864 31.0562 225.738 31.0677 225.616 31.0677C225.471 31.0677 225.33 31.0562 225.193 31.0333L225.879 27.5092C225.917 27.246 225.937 27.0934 225.937 27.0515C225.937 26.8608 225.898 26.7654 225.822 26.7654C225.757 26.7654 225.66 26.8265 225.53 26.9485C225.469 27.0095 225.403 27.0763 225.33 27.1487C225.261 27.2212 225.216 27.2727 225.193 27.3032C225.178 27.3032 225.149 27.267 225.107 27.1945C225.065 27.122 225.044 27.0706 225.044 27.04C225.105 26.9371 225.216 26.8093 225.376 26.6567C225.536 26.5004 225.708 26.3612 225.891 26.2391C226.074 26.1171 226.23 26.056 226.36 26.056ZM235.539 26.056C235.821 26.056 236.099 26.1056 236.374 26.2048L235.676 29.8205C235.653 29.912 235.642 30.0074 235.642 30.1065C235.642 30.2972 235.68 30.3926 235.756 30.3926C235.851 30.3926 235.966 30.3258 236.099 30.1923C236.233 30.055 236.347 29.9387 236.443 29.8434L236.511 29.7633C236.527 29.7633 236.555 29.7995 236.597 29.872C236.639 29.9444 236.66 29.9959 236.66 30.0264C236.595 30.137 236.477 30.2781 236.305 30.4498C236.138 30.6214 235.954 30.774 235.756 30.9075C235.558 31.0371 235.379 31.102 235.218 31.102C235.096 31.102 235.001 31.0467 234.932 30.9361C234.864 30.8255 234.829 30.6824 234.829 30.507C234.829 30.3888 234.856 30.1866 234.909 29.9006L234.949 29.7003C234.961 29.6469 234.967 29.6145 234.967 29.6031C234.906 29.7175 234.818 29.8586 234.703 30.0264C234.589 30.1904 234.457 30.3544 234.309 30.5184C234.16 30.6824 234.004 30.8197 233.84 30.9303C233.676 31.0371 233.513 31.0905 233.353 31.0905C233.018 31.0905 232.753 30.9399 232.558 30.6386C232.364 30.3373 232.266 29.973 232.266 29.5459C232.266 29.0005 232.428 28.457 232.753 27.9154C232.97 27.5492 233.229 27.2269 233.531 26.9485C233.836 26.6701 234.162 26.4527 234.509 26.2963C234.856 26.1361 235.199 26.056 235.539 26.056ZM235.058 26.5824C234.833 26.5824 234.606 26.6625 234.377 26.8226C234.149 26.979 233.939 27.1907 233.748 27.4577C233.557 27.7208 233.403 28.0145 233.285 28.3387C233.17 28.6591 233.113 28.9814 233.113 29.3056C233.113 30.0531 233.308 30.4269 233.697 30.4269C233.834 30.4269 233.983 30.3506 234.143 30.1981C234.303 30.0455 234.461 29.8434 234.618 29.5916C234.774 29.3399 234.911 29.0672 235.03 28.7735C235.152 28.476 235.241 28.1843 235.298 27.8982L235.527 26.7311C235.436 26.6319 235.279 26.5824 235.058 26.5824ZM242.36 26.056C242.483 26.056 242.578 26.1113 242.647 26.2219C242.715 26.3325 242.75 26.4756 242.75 26.651C242.75 26.8188 242.727 27.021 242.681 27.2574L242.475 28.3101C242.547 28.1804 242.713 27.944 242.973 27.6007C243.144 27.3757 243.343 27.1449 243.568 26.9085C243.796 26.6682 244.021 26.466 244.243 26.302C244.468 26.138 244.657 26.056 244.809 26.056C245.19 26.056 245.381 26.3078 245.381 26.8112C245.381 27.1659 245.328 27.5816 245.221 28.0584L244.843 29.8205C244.821 29.912 244.809 30.0074 244.809 30.1065C244.809 30.2972 244.847 30.3926 244.924 30.3926C245.019 30.3926 245.133 30.3258 245.267 30.1923C245.4 30.055 245.515 29.9387 245.61 29.8434L245.679 29.7633C245.694 29.7633 245.723 29.7995 245.764 29.872C245.806 29.9444 245.827 29.9959 245.827 30.0264C245.763 30.137 245.644 30.2781 245.473 30.4498C245.305 30.6214 245.122 30.774 244.924 30.9075C244.725 31.0371 244.546 31.102 244.386 31.102C244.264 31.102 244.168 31.0467 244.1 30.9361C244.031 30.8255 243.997 30.6824 243.997 30.507C243.997 30.3926 244.023 30.1904 244.077 29.9006L244.477 28.0126C244.531 27.7533 244.557 27.5473 244.557 27.3948C244.557 27.0667 244.485 26.9027 244.34 26.9027C244.214 26.9027 244.044 26.9981 243.831 27.1888C243.617 27.3757 243.394 27.6255 243.161 27.9382C242.933 28.251 242.725 28.6 242.538 28.9852C242.351 29.3666 242.219 29.7518 242.143 30.1408L241.949 31.0333C241.846 31.0638 241.727 31.0791 241.594 31.0791C241.464 31.0791 241.335 31.0638 241.205 31.0333L241.88 27.5092C241.918 27.246 241.937 27.0934 241.937 27.0515C241.937 26.8608 241.899 26.7654 241.823 26.7654C241.758 26.7654 241.661 26.8265 241.531 26.9485C241.47 27.0095 241.403 27.0763 241.331 27.1487C241.262 27.2212 241.216 27.2727 241.193 27.3032C241.178 27.3032 241.15 27.267 241.108 27.1945C241.066 27.122 241.045 27.0706 241.045 27.04C241.106 26.9371 241.216 26.8093 241.376 26.6567C241.537 26.5004 241.708 26.3612 241.891 26.2391C242.074 26.1171 242.231 26.056 242.36 26.056Z" fill="#FFFDD0"/>
<path opacity="0.9" d="M56.537 54.1257C56.0389 53.9141 55.5441 53.8083 55.0527 53.8083C54.0564 53.8083 53.5582 54.1769 53.5582 54.9139C53.5582 55.2347 53.6708 55.5349 53.896 55.8147C54.1212 56.0877 54.3942 56.3334 54.7149 56.5518C55.0357 56.7633 55.3564 56.9817 55.6772 57.2069C55.9979 57.4321 56.2709 57.7017 56.4961 58.0156C56.7213 58.3295 56.8339 58.6708 56.8339 59.0393C56.8339 59.6603 56.6258 60.1312 56.2095 60.4519C55.7932 60.7659 55.2165 60.9228 54.4795 60.9228C53.7493 60.9228 53.1248 60.7352 52.6062 60.3598L52.8518 59.9913C53.3432 60.312 53.8823 60.4724 54.4692 60.4724C55.0561 60.4724 55.5066 60.3564 55.8205 60.1244C56.1344 59.8855 56.2914 59.5443 56.2914 59.1007C56.2914 58.7936 56.1788 58.5036 55.9536 58.2306C55.7283 57.9508 55.4554 57.7017 55.1346 57.4833C54.8139 57.2581 54.4931 57.0295 54.1724 56.7975C53.8516 56.5654 53.5786 56.289 53.3534 55.9683C53.1282 55.6475 53.0156 55.3029 53.0156 54.9344C53.0156 54.4498 53.1931 54.0677 53.5479 53.7879C53.9096 53.5012 54.3942 53.3579 55.0015 53.3579C55.6157 53.3579 56.1856 53.4808 56.7111 53.7265L56.537 54.1257ZM62.8578 54.5761H60.6057V54.1564H65.5705V54.5761H63.3184V60.8H62.8578V54.5761ZM74.759 60.1141C74.3085 60.6396 73.6227 60.9024 72.7014 60.9024C71.7801 60.9024 71.0942 60.6396 70.6438 60.1141C70.1934 59.5886 69.9682 58.8618 69.9682 57.9337V54.1564H70.4391V57.9337C70.4391 59.633 71.1932 60.4827 72.7014 60.4827C74.2096 60.4827 74.9637 59.633 74.9637 57.9337V54.1564H75.4346V57.9337C75.4346 58.8618 75.2094 59.5886 74.759 60.1141ZM83.0273 60.4519C83.9008 60.4519 84.6003 60.2165 85.1258 59.7456C85.6581 59.2747 85.9243 58.565 85.9243 57.6164C85.9243 56.6678 85.624 55.9137 85.0234 55.3541C84.4297 54.7945 83.6961 54.5147 82.8226 54.5147C82.2015 54.5147 81.7238 54.5283 81.3894 54.5556V60.3803C81.7989 60.4281 82.3449 60.4519 83.0273 60.4519ZM82.8226 54.095C83.8462 54.095 84.6993 54.4123 85.3817 55.047C86.071 55.6748 86.4156 56.5313 86.4156 57.6164C86.4156 58.7015 86.0983 59.517 85.4636 60.0629C84.8358 60.6089 84.0237 60.8819 83.0273 60.8819C82.338 60.8819 81.6283 60.8478 80.8981 60.7795V54.1564C81.444 54.1154 82.0855 54.095 82.8226 54.095ZM91.5366 60.8V54.1564H94.6383V54.5659H92.0075V56.9817H94.3824V57.3809H92.0075V60.37H94.7407V60.8H91.5366ZM99.696 60.8V54.1154H99.9212L104.282 59.1314C104.439 59.3088 104.582 59.4863 104.712 59.6637C104.848 59.8343 104.92 59.923 104.927 59.9299C104.913 59.7661 104.906 59.4453 104.906 58.9676V54.1564H105.377V60.8409H105.152L100.709 55.7431L100.146 55.0572C100.16 55.1937 100.167 55.5145 100.167 56.0195V60.8H99.696ZM112.092 54.5761H109.84V54.1564H114.804V54.5761H112.552V60.8H112.092V54.5761ZM129.606 60.9228C128.542 60.9228 127.627 60.5611 126.863 59.8377C126.098 59.1075 125.716 58.2101 125.716 57.1455C125.716 56.0741 126.051 55.1766 126.719 54.4533C127.388 53.723 128.245 53.3579 129.289 53.3579C130.108 53.3579 130.937 53.4944 131.776 53.7674L131.643 54.1769C130.824 53.9312 130.04 53.8083 129.289 53.8083C128.395 53.8083 127.665 54.1291 127.098 54.7706C126.532 55.4121 126.249 56.1969 126.249 57.125C126.249 58.0531 126.576 58.8448 127.231 59.4999C127.893 60.1483 128.685 60.4724 129.606 60.4724C130.412 60.4724 131.108 60.3496 131.694 60.1039L131.848 60.4519C131.589 60.6021 131.247 60.7181 130.824 60.8C130.408 60.8819 130.002 60.9228 129.606 60.9228ZM139.54 60.9024C138.591 60.9024 137.796 60.5714 137.155 59.9094C136.513 59.2474 136.192 58.4387 136.192 57.4833C136.192 56.5211 136.513 55.709 137.155 55.047C137.796 54.385 138.591 54.054 139.54 54.054C140.488 54.054 141.284 54.385 141.925 55.047C142.566 55.709 142.887 56.5211 142.887 57.4833C142.887 58.4387 142.566 59.2474 141.925 59.9094C141.284 60.5714 140.488 60.9024 139.54 60.9024ZM139.54 54.4737C138.721 54.4737 138.038 54.7638 137.493 55.3438C136.953 55.9239 136.684 56.6371 136.684 57.4833C136.684 58.3227 136.953 59.0325 137.493 59.6125C138.038 60.1858 138.721 60.4724 139.54 60.4724C140.366 60.4724 141.048 60.1858 141.587 59.6125C142.126 59.0325 142.396 58.3227 142.396 57.4833C142.396 56.6371 142.126 55.9239 141.587 55.3438C141.048 54.7638 140.366 54.4737 139.54 54.4737ZM151.091 60.4519H150.815L148.88 55.7533C148.798 55.5691 148.717 55.3541 148.635 55.1084C148.635 55.1152 148.628 55.1528 148.614 55.221C148.607 55.2892 148.597 55.3814 148.583 55.4974C148.57 55.6066 148.556 55.6987 148.543 55.7738L147.775 60.8H147.314L148.399 54.1154H148.676L150.743 59.0188C150.907 59.4283 150.989 59.6432 150.989 59.6637C151.037 59.5204 151.129 59.3088 151.265 59.029L153.569 54.1154H153.845L154.859 60.8H154.367L153.64 55.7533C153.593 55.4189 153.569 55.1971 153.569 55.0879L153.272 55.7635L151.091 60.4519ZM162.77 60.4519H162.493L160.559 55.7533C160.477 55.5691 160.395 55.3541 160.313 55.1084C160.313 55.1152 160.306 55.1528 160.292 55.221C160.286 55.2892 160.275 55.3814 160.262 55.4974C160.248 55.6066 160.234 55.6987 160.221 55.7738L159.453 60.8H158.992L160.077 54.1154H160.354L162.422 59.0188C162.585 59.4283 162.667 59.6432 162.667 59.6637C162.715 59.5204 162.807 59.3088 162.944 59.029L165.247 54.1154H165.523L166.537 60.8H166.045L165.319 55.7533C165.271 55.4189 165.247 55.1971 165.247 55.0879L164.95 55.7635L162.77 60.4519ZM176.096 60.1141C175.646 60.6396 174.96 60.9024 174.038 60.9024C173.117 60.9024 172.431 60.6396 171.981 60.1141C171.53 59.5886 171.305 58.8618 171.305 57.9337V54.1564H171.776V57.9337C171.776 59.633 172.53 60.4827 174.038 60.4827C175.547 60.4827 176.301 59.633 176.301 57.9337V54.1564H176.772V57.9337C176.772 58.8618 176.546 59.5886 176.096 60.1141ZM182.235 60.8V54.1154H182.46L186.821 59.1314C186.978 59.3088 187.121 59.4863 187.251 59.6637C187.388 59.8343 187.459 59.923 187.466 59.9299C187.452 59.7661 187.446 59.4453 187.446 58.9676V54.1564H187.916V60.8409H187.691L183.248 55.7431L182.685 55.0572C182.699 55.1937 182.706 55.5145 182.706 56.0195V60.8H182.235ZM193.443 60.8V54.1564H193.914V60.8H193.443ZM204.613 60.4724C204.101 60.759 203.388 60.9024 202.474 60.9024C201.566 60.9024 200.764 60.5748 200.068 59.9196C199.379 59.2645 199.034 58.4524 199.034 57.4833C199.034 56.5074 199.334 55.6919 199.935 55.0367C200.542 54.3816 201.324 54.054 202.279 54.054C203.05 54.054 203.804 54.1735 204.541 54.4123L204.418 54.8013C203.709 54.5829 202.975 54.4737 202.218 54.4737C201.46 54.4737 200.822 54.7638 200.303 55.3438C199.792 55.9171 199.536 56.6234 199.536 57.4628C199.536 58.2954 199.832 59.0052 200.426 59.5921C201.027 60.179 201.719 60.4724 202.504 60.4724C203.289 60.4724 203.941 60.3632 204.459 60.1448L204.613 60.4724ZM209.69 58.4967L208.738 60.8H208.257L211.041 54.1154H211.317L214.122 60.8H213.6L212.638 58.4967H209.69ZM211.154 54.873C211.051 55.1801 210.959 55.436 210.877 55.6407L209.854 58.0975H212.474L211.461 55.6509C211.304 55.2688 211.201 55.0094 211.154 54.873ZM219.099 54.5761H216.847V54.1564H221.812V54.5761H219.56V60.8H219.099V54.5761ZM226.271 60.8V54.1564H226.742V60.8H226.271ZM235.209 60.9024C234.26 60.9024 233.465 60.5714 232.824 59.9094C232.182 59.2474 231.861 58.4387 231.861 57.4833C231.861 56.5211 232.182 55.709 232.824 55.047C233.465 54.385 234.26 54.054 235.209 54.054C236.157 54.054 236.952 54.385 237.594 55.047C238.235 55.709 238.556 56.5211 238.556 57.4833C238.556 58.4387 238.235 59.2474 237.594 59.9094C236.952 60.5714 236.157 60.9024 235.209 60.9024ZM235.209 54.4737C234.39 54.4737 233.707 54.7638 233.161 55.3438C232.622 55.9239 232.353 56.6371 232.353 57.4833C232.353 58.3227 232.622 59.0325 233.161 59.6125C233.707 60.1858 234.39 60.4724 235.209 60.4724C236.034 60.4724 236.717 60.1858 237.256 59.6125C237.795 59.0325 238.065 58.3227 238.065 57.4833C238.065 56.6371 237.795 55.9239 237.256 55.3438C236.717 54.7638 236.034 54.4737 235.209 54.4737ZM243.679 60.8V54.1154H243.904L248.265 59.1314C248.422 59.3088 248.565 59.4863 248.695 59.6637C248.832 59.8343 248.903 59.923 248.91 59.9299C248.896 59.7661 248.89 59.4453 248.89 58.9676V54.1564H249.36V60.8409H249.135L244.692 55.7431L244.129 55.0572C244.143 55.1937 244.15 55.5145 244.15 56.0195V60.8H243.679ZM266.141 57.9849H266.54C266.527 58.6196 266.346 59.1758 265.998 59.6535L267.062 60.8H266.448L265.701 59.9913C265.373 60.2779 264.998 60.5031 264.575 60.6669C264.152 60.8307 263.742 60.9126 263.347 60.9126C262.685 60.9126 262.166 60.7761 261.791 60.5031C261.422 60.2233 261.238 59.8343 261.238 59.3361C261.238 58.838 261.384 58.4183 261.678 58.077C261.971 57.729 262.384 57.3741 262.917 57.0124C262.104 56.1389 261.698 55.4667 261.698 54.9958C261.698 54.5249 261.852 54.1564 262.159 53.8902C262.466 53.6173 262.913 53.4808 263.5 53.4808C264.087 53.4808 264.527 53.6207 264.821 53.9005C265.114 54.1735 265.261 54.5044 265.261 54.8934C265.261 55.2756 265.114 55.6373 264.821 55.9785C264.527 56.3197 264.121 56.6917 263.602 57.0943L265.721 59.3566C265.837 59.2201 265.936 59.012 266.018 58.7322C266.1 58.4524 266.141 58.2033 266.141 57.9849ZM263.408 60.5134C264.097 60.5134 264.763 60.237 265.404 59.6842L263.224 57.3502C262.214 57.9644 261.709 58.5786 261.709 59.1928C261.709 59.6091 261.855 59.9333 262.149 60.1653C262.442 60.3973 262.862 60.5134 263.408 60.5134ZM264.8 54.9753C264.8 54.6341 264.688 54.3679 264.462 54.1769C264.244 53.9858 263.933 53.8902 263.531 53.8902C262.616 53.8902 262.159 54.2519 262.159 54.9753C262.159 55.1664 262.217 55.3746 262.333 55.5998C262.456 55.8181 262.586 56.0058 262.722 56.1628C262.859 56.3129 263.05 56.5108 263.295 56.7565C264.299 56.0945 264.8 55.5008 264.8 54.9753ZM122.215 71.4212H121.938L119.799 66.2415C119.676 65.9549 119.577 65.7023 119.502 65.484L119.4 66.262L118.56 71.8H118.059L119.266 64.4194H119.553L121.836 69.8448C121.952 70.0973 122.044 70.3361 122.112 70.5614C122.133 70.4863 122.239 70.2508 122.43 69.855L124.979 64.4194H125.255L126.371 71.8H125.859L125.06 66.2415C125.006 65.8934 124.979 65.6307 124.979 65.4533C124.972 65.4601 124.955 65.4942 124.927 65.5556C124.907 65.6102 124.866 65.7058 124.805 65.8422C124.75 65.9719 124.692 66.1084 124.63 66.2517L122.215 71.4212ZM136.059 71.1141C135.609 71.6396 134.923 71.9024 134.001 71.9024C133.08 71.9024 132.394 71.6396 131.944 71.1141C131.493 70.5886 131.268 69.8618 131.268 68.9337V65.1564H131.739V68.9337C131.739 70.633 132.493 71.4827 134.001 71.4827C135.51 71.4827 136.264 70.633 136.264 68.9337V65.1564H136.735V68.9337C136.735 69.8618 136.509 70.5886 136.059 71.1141ZM142.198 71.8V65.1564H142.669V71.37H145.72V71.8H142.198ZM150.425 65.5761H148.173V65.1564H153.138V65.5761H150.886V71.8H150.425V65.5761ZM157.597 71.8V65.1564H158.068V71.8H157.597ZM166.678 71.4519H166.402L164.467 66.7533C164.385 66.5691 164.303 66.3541 164.222 66.1084C164.222 66.1152 164.215 66.1528 164.201 66.221C164.194 66.2892 164.184 66.3814 164.17 66.4974C164.157 66.6066 164.143 66.6987 164.129 66.7738L163.362 71.8H162.901L163.986 65.1154H164.263L166.33 70.0188C166.494 70.4283 166.576 70.6432 166.576 70.6637C166.624 70.5204 166.716 70.3088 166.852 70.029L169.156 65.1154H169.432L170.445 71.8H169.954L169.227 66.7533C169.18 66.4189 169.156 66.1971 169.156 66.0879L168.859 66.7635L166.678 71.4519ZM175.275 71.8V65.1564H178.377V65.5659H175.746V67.9817H178.121V68.3809H175.746V71.37H178.479V71.8H175.275ZM185.564 71.4519C186.437 71.4519 187.137 71.2165 187.662 70.7456C188.195 70.2747 188.461 69.565 188.461 68.6164C188.461 67.6678 188.161 66.9137 187.56 66.3541C186.966 65.7945 186.233 65.5147 185.359 65.5147C184.738 65.5147 184.26 65.5283 183.926 65.5556V71.3803C184.336 71.4281 184.881 71.4519 185.564 71.4519ZM185.359 65.095C186.383 65.095 187.236 65.4123 187.918 66.047C188.608 66.6748 188.952 67.5313 188.952 68.6164C188.952 69.7015 188.635 70.517 188 71.0629C187.372 71.6089 186.56 71.8819 185.564 71.8819C184.875 71.8819 184.165 71.8478 183.435 71.7795V65.1564C183.981 65.1154 184.622 65.095 185.359 65.095ZM194.073 71.8V65.1564H194.544V71.8H194.073ZM200.401 69.4967L199.449 71.8H198.968L201.752 65.1154H202.028L204.833 71.8H204.311L203.349 69.4967H200.401ZM201.865 65.873C201.762 66.1801 201.67 66.436 201.588 66.6407L200.565 69.0975H203.185L202.172 66.6509C202.015 66.2688 201.912 66.0094 201.865 65.873ZM218.479 71.4417C219.441 71.4417 220.213 71.1824 220.793 70.6637C221.38 70.1382 221.673 69.35 221.673 68.299C221.673 67.2481 221.342 66.4121 220.68 65.7911C220.025 65.17 219.213 64.8595 218.244 64.8595C217.623 64.8595 217.084 64.8766 216.626 64.9107V71.3598C217.07 71.4144 217.687 71.4417 218.479 71.4417ZM218.244 64.4091C219.37 64.4091 220.311 64.7606 221.069 65.4635C221.827 66.1596 222.205 67.1082 222.205 68.3093C222.205 68.9167 222.106 69.4558 221.908 69.9267C221.717 70.3907 221.451 70.7627 221.11 71.0425C220.407 71.6089 219.53 71.8921 218.479 71.8921C217.79 71.8921 217.008 71.8546 216.135 71.7795V64.4808C216.831 64.433 217.534 64.4091 218.244 64.4091ZM227.43 71.8V65.1564H230.532V65.5659H227.901V67.9817H230.276V68.3809H227.901V71.37H230.634V71.8H227.43ZM236.931 65.443C236.562 65.443 236.262 65.5317 236.03 65.7092C235.798 65.8866 235.682 66.1357 235.682 66.4564C235.682 66.825 235.835 67.156 236.142 67.4494C236.361 67.661 236.641 67.8862 236.982 68.125C237.33 68.3571 237.569 68.5243 237.698 68.6266C237.828 68.729 237.985 68.8689 238.169 69.0463C238.504 69.3807 238.671 69.7663 238.671 70.2031C238.671 70.7695 238.48 71.1994 238.098 71.4929C237.722 71.7795 237.193 71.9228 236.511 71.9228C235.835 71.9228 235.269 71.7454 234.812 71.3905L235.057 71.0322C235.521 71.3462 236.013 71.5031 236.531 71.5031C237.05 71.5031 237.453 71.3939 237.739 71.1756C238.033 70.9572 238.18 70.6501 238.18 70.2543C238.18 69.913 238.033 69.5991 237.739 69.3125C237.535 69.1077 237.258 68.8859 236.91 68.6471C236.569 68.4082 236.33 68.2376 236.194 68.1353C236.057 68.0261 235.897 67.8828 235.713 67.7053C235.365 67.3573 235.19 66.9546 235.19 66.4974C235.19 66.0402 235.351 65.6819 235.672 65.4225C235.999 65.1632 236.45 65.0336 237.023 65.0336C237.596 65.0336 238.111 65.1462 238.569 65.3714L238.395 65.7501C237.971 65.5454 237.483 65.443 236.931 65.443ZM243.629 71.8V65.1564H244.1V71.8H243.629ZM252.403 65.4737C251.646 65.4737 251.008 65.7638 250.489 66.3438C249.977 66.9171 249.721 67.6234 249.721 68.4628C249.721 69.3022 250.011 70.0154 250.591 70.6023C251.171 71.1824 251.854 71.4724 252.639 71.4724C253.43 71.4724 254.045 71.3803 254.481 71.196V68.4628H254.952V71.411C254.42 71.7386 253.666 71.9024 252.69 71.9024C251.714 71.9024 250.892 71.5714 250.223 70.9094C249.554 70.2474 249.22 69.4353 249.22 68.4731C249.22 67.504 249.52 66.6919 250.121 66.0367C250.728 65.3816 251.509 65.054 252.465 65.054C253.236 65.054 253.99 65.1735 254.727 65.4123L254.604 65.8013C253.894 65.5829 253.161 65.4737 252.403 65.4737ZM260.258 71.8V65.1154H260.483L264.844 70.1314C265.001 70.3088 265.144 70.4863 265.274 70.6637C265.41 70.8343 265.482 70.923 265.489 70.9299C265.475 70.7661 265.468 70.4453 265.468 69.9676V65.1564H265.939V71.8409H265.714L261.271 66.7431L260.708 66.0572C260.722 66.1937 260.729 66.5145 260.729 67.0195V71.8H260.258Z" fill="white"/>
</svg>
