<svg width="888" height="247" viewBox="0 0 888 247" fill="none" xmlns="http://www.w3.org/2000/svg">
<path d="M9.10754 139V34.2121H50.4496C58.3974 34.2121 65.1684 35.73 70.7625 38.7659C76.3567 41.7676 80.6205 45.9462 83.554 51.3015C86.5216 56.6228 88.0055 62.7627 88.0055 69.7213C88.0055 76.6799 86.5046 82.8198 83.5029 88.141C80.5011 93.4623 76.152 97.6067 70.4555 100.574C64.7932 103.542 57.9369 105.026 49.8868 105.026H23.5363V87.2712H46.3052C50.569 87.2712 54.0824 86.5378 56.8454 85.0711C59.6425 83.5702 61.7232 81.5065 63.0876 78.88C64.4862 76.2194 65.1854 73.1665 65.1854 69.7213C65.1854 66.242 64.4862 63.2062 63.0876 60.6137C61.7232 57.9872 59.6425 55.9576 56.8454 54.525C54.0483 53.0582 50.5008 52.3249 46.2029 52.3249H31.2624V139H9.10754ZM205.894 86.6061C205.894 98.0331 203.728 107.755 199.396 115.771C195.098 123.787 189.231 129.91 181.795 134.139C174.393 138.335 166.07 140.433 156.826 140.433C147.514 140.433 139.157 138.318 131.755 134.088C124.353 129.858 118.503 123.735 114.205 115.719C109.907 107.703 107.758 97.999 107.758 86.6061C107.758 75.179 109.907 65.4575 114.205 57.4415C118.503 49.4255 124.353 43.3197 131.755 39.124C139.157 34.8943 147.514 32.7795 156.826 32.7795C166.07 32.7795 174.393 34.8943 181.795 39.124C189.231 43.3197 195.098 49.4255 199.396 57.4415C203.728 65.4575 205.894 75.179 205.894 86.6061ZM183.433 86.6061C183.433 79.204 182.324 72.9618 180.107 67.8793C177.924 62.7968 174.837 58.9423 170.846 56.3158C166.855 53.6893 162.182 52.376 156.826 52.376C151.471 52.376 146.798 53.6893 142.807 56.3158C138.816 58.9423 135.712 62.7968 133.495 67.8793C131.311 72.9618 130.22 79.204 130.22 86.6061C130.22 94.0081 131.311 100.25 133.495 105.333C135.712 110.415 138.816 114.27 142.807 116.896C146.798 119.523 151.471 120.836 156.826 120.836C162.182 120.836 166.855 119.523 170.846 116.896C174.837 114.27 177.924 110.415 180.107 105.333C182.324 100.25 183.433 94.0081 183.433 86.6061ZM229.51 139V34.2121H270.852C278.766 34.2121 285.52 35.6277 291.114 38.4589C296.742 41.256 301.023 45.2298 303.957 50.3806C306.924 55.4971 308.408 61.5177 308.408 68.4421C308.408 75.4007 306.907 81.3871 303.905 86.4014C300.904 91.3815 296.555 95.2019 290.858 97.8626C285.196 100.523 278.339 101.854 270.289 101.854H242.609V84.0478H266.708C270.937 84.0478 274.451 83.4679 277.248 82.3081C280.045 81.1484 282.126 79.4087 283.49 77.0892C284.889 74.7697 285.588 71.8873 285.588 68.4421C285.588 64.9629 284.889 62.0293 283.49 59.6416C282.126 57.2538 280.028 55.446 277.197 54.218C274.4 52.9559 270.869 52.3249 266.605 52.3249H251.665V139H229.51ZM286.1 91.3133L312.143 139H287.686L262.205 91.3133H286.1ZM327.278 52.4784V34.2121H413.339V52.4784H381.258V139H359.359V52.4784H327.278ZM434.716 139V34.2121H504.097V52.4784H456.871V77.4473H499.492V95.7136H456.871V139H434.716ZM622.498 86.6061C622.498 98.0331 620.332 107.755 616 115.771C611.702 123.787 605.835 129.91 598.399 134.139C590.997 138.335 582.674 140.433 573.43 140.433C564.118 140.433 555.76 138.318 548.358 134.088C540.956 129.858 535.106 123.735 530.808 115.719C526.511 107.703 524.362 97.999 524.362 86.6061C524.362 75.179 526.511 65.4575 530.808 57.4415C535.106 49.4255 540.956 43.3197 548.358 39.124C555.76 34.8943 564.118 32.7795 573.43 32.7795C582.674 32.7795 590.997 34.8943 598.399 39.124C605.835 43.3197 611.702 49.4255 616 57.4415C620.332 65.4575 622.498 75.179 622.498 86.6061ZM600.036 86.6061C600.036 79.204 598.927 72.9618 596.71 67.8793C594.527 62.7968 591.44 58.9423 587.449 56.3158C583.458 53.6893 578.785 52.376 573.43 52.376C568.074 52.376 563.401 53.6893 559.41 56.3158C555.419 58.9423 552.315 62.7968 550.098 67.8793C547.915 72.9618 546.823 79.204 546.823 86.6061C546.823 94.0081 547.915 100.25 550.098 105.333C552.315 110.415 555.419 114.27 559.41 116.896C563.401 119.523 568.074 120.836 573.43 120.836C578.785 120.836 583.458 119.523 587.449 116.896C591.44 114.27 594.527 110.415 596.71 105.333C598.927 100.25 600.036 94.0081 600.036 86.6061ZM646.114 139V34.2121H668.268V120.734H713.192V139H646.114ZM757.223 34.2121V139H735.068V34.2121H757.223ZM878.949 86.6061C878.949 98.0331 876.783 107.755 872.451 115.771C868.153 123.787 862.286 129.91 854.85 134.139C847.448 138.335 839.125 140.433 829.881 140.433C820.569 140.433 812.212 138.318 804.81 134.088C797.408 129.858 791.558 123.735 787.26 115.719C782.962 107.703 780.813 97.999 780.813 86.6061C780.813 75.179 782.962 65.4575 787.26 57.4415C791.558 49.4255 797.408 43.3197 804.81 39.124C812.212 34.8943 820.569 32.7795 829.881 32.7795C839.125 32.7795 847.448 34.8943 854.85 39.124C862.286 43.3197 868.153 49.4255 872.451 57.4415C876.783 65.4575 878.949 75.179 878.949 86.6061ZM856.487 86.6061C856.487 79.204 855.379 72.9618 853.162 67.8793C850.979 62.7968 847.892 58.9423 843.901 56.3158C839.91 53.6893 835.237 52.376 829.881 52.376C824.526 52.376 819.853 53.6893 815.862 56.3158C811.871 58.9423 808.767 62.7968 806.549 67.8793C804.366 72.9618 803.275 79.204 803.275 86.6061C803.275 94.0081 804.366 100.25 806.549 105.333C808.767 110.415 811.871 114.27 815.862 116.896C819.853 119.523 824.526 120.836 829.881 120.836C835.237 120.836 839.91 119.523 843.901 116.896C847.892 114.27 850.979 110.415 853.162 105.333C855.379 100.25 856.487 94.0081 856.487 86.6061Z" fill="#FFFDD0"/>
<rect x="368" y="71" width="497" height="44" fill="black"/>
<path d="M398.377 96.7366L405.175 83.0257L407.581 77.8698C408.269 77.9462 409.275 77.9844 410.599 77.9844C411.044 77.9844 411.541 77.9717 412.088 77.9462C412.648 77.9208 413.259 77.8826 413.921 77.8316C413.972 77.959 413.972 78.1754 413.921 78.4809C413.87 78.7864 413.807 78.9392 413.73 78.9392C413.399 78.9392 413.049 79.0283 412.68 79.2066C412.311 79.3848 412.037 79.6012 411.859 79.8558C411.63 80.1613 411.458 80.5305 411.343 80.9634C411.241 81.358 411.121 82.1219 410.981 83.2549L409.491 97.8441C409.338 99.1554 409.262 100.161 409.262 100.861C409.262 101.396 409.459 101.733 409.854 101.873C410.083 101.95 410.357 102.007 410.675 102.045C411.006 102.071 411.273 102.083 411.477 102.083C411.528 102.083 411.553 102.198 411.553 102.427C411.553 102.733 411.477 102.962 411.324 103.115C410.14 103.051 409.198 103.006 408.498 102.981C407.811 102.943 407.365 102.924 407.161 102.924C407.123 102.924 406.767 102.943 406.092 102.981C405.43 103.006 404.45 103.051 403.151 103.115C403.1 103.025 403.075 102.962 403.075 102.924C403.075 102.771 403.107 102.593 403.17 102.389C403.234 102.185 403.291 102.083 403.342 102.083C403.571 102.083 403.858 102.058 404.201 102.007C404.558 101.943 404.889 101.861 405.194 101.759C405.5 101.644 405.685 101.523 405.748 101.396C406.003 100.81 406.181 100.269 406.283 99.7728C406.308 99.6328 406.347 99.3272 406.398 98.8562C406.448 98.3852 406.487 98.086 406.512 97.9587L408.04 83.0639C408.116 82.3001 408.154 81.8036 408.154 81.5744C408.154 81.4217 408.078 81.3453 407.925 81.3453C407.912 81.3453 407.874 81.3962 407.811 81.4981L397.843 101.816C397.715 102.045 397.473 102.313 397.117 102.618C396.76 102.924 396.429 103.076 396.124 103.076C396.009 103.076 395.908 103.051 395.818 103L392.572 81.3453C392.559 81.2944 392.534 81.2689 392.496 81.2689C392.419 81.2689 392.381 81.2944 392.381 81.3453L387.913 97.8059C387.429 99.5627 387.187 100.619 387.187 100.976C387.187 101.154 387.372 101.332 387.741 101.511C388.123 101.676 388.524 101.816 388.944 101.931C389.377 102.032 389.657 102.083 389.784 102.083C389.835 102.083 389.86 102.16 389.86 102.313C389.86 102.605 389.797 102.873 389.67 103.115C388.486 103.051 387.563 103.006 386.901 102.981C386.239 102.943 385.838 102.924 385.698 102.924C385.659 102.924 385.29 102.943 384.59 102.981C383.89 103.006 382.859 103.051 381.496 103.115C381.446 103.064 381.42 102.936 381.42 102.733C381.42 102.3 381.509 102.083 381.687 102.083C381.891 102.083 382.216 102.039 382.661 101.95C383.107 101.848 383.527 101.727 383.922 101.587C384.329 101.434 384.565 101.294 384.628 101.167C385.074 100.327 385.494 99.1936 385.889 97.7677L390.051 82.8348C390.153 82.3383 390.261 81.8481 390.376 81.3644C390.491 80.8679 390.548 80.3905 390.548 79.9322C390.548 79.7412 390.37 79.5694 390.013 79.4166C389.657 79.2638 389.269 79.1429 388.848 79.0538C388.441 78.9519 388.142 78.901 387.951 78.901C387.9 78.901 387.875 78.8119 387.875 78.6337C387.875 78.2136 387.951 77.959 388.104 77.8698C389.046 77.8953 389.816 77.9144 390.414 77.9271C391.013 77.9399 391.439 77.9462 391.694 77.9462C392.419 77.9462 393.081 77.9399 393.68 77.9271C394.291 77.9144 394.838 77.8953 395.322 77.8698C395.436 78.9137 395.736 81.0143 396.219 84.1715C396.703 87.3159 397.372 91.517 398.224 96.7747C398.224 96.8002 398.237 96.8129 398.263 96.8129C398.339 96.8129 398.377 96.7875 398.377 96.7366ZM437.226 86.3866C438.168 86.3866 439.097 86.5521 440.014 86.8831L437.684 98.9517C437.608 99.2572 437.57 99.5755 437.57 99.9065C437.57 100.543 437.697 100.861 437.952 100.861C438.27 100.861 438.652 100.638 439.097 100.193C439.543 99.7346 439.925 99.3463 440.243 99.0281L440.472 98.7607C440.523 98.7607 440.619 98.8817 440.759 99.1235C440.899 99.3654 440.969 99.5373 440.969 99.6391C440.752 100.008 440.358 100.479 439.785 101.052C439.225 101.625 438.614 102.134 437.952 102.58C437.29 103.013 436.691 103.229 436.157 103.229C435.749 103.229 435.431 103.045 435.202 102.675C434.973 102.306 434.858 101.829 434.858 101.243C434.858 100.849 434.947 100.174 435.125 99.219L435.259 98.5507C435.297 98.3724 435.316 98.2642 435.316 98.226C435.113 98.608 434.82 99.079 434.438 99.6391C434.056 100.187 433.617 100.734 433.12 101.281C432.624 101.829 432.102 102.287 431.554 102.656C431.007 103.013 430.466 103.191 429.931 103.191C428.811 103.191 427.926 102.688 427.277 101.682C426.628 100.677 426.303 99.4609 426.303 98.0351C426.303 96.2146 426.844 94.4005 427.926 92.5928C428.652 91.3706 429.518 90.2949 430.523 89.3656C431.542 88.4362 432.63 87.7106 433.789 87.1886C434.947 86.6539 436.093 86.3866 437.226 86.3866ZM435.622 88.1434C434.871 88.1434 434.113 88.4108 433.349 88.9454C432.586 89.4674 431.885 90.1739 431.249 91.0651C430.612 91.9435 430.097 92.9237 429.702 94.0058C429.32 95.0752 429.129 96.1509 429.129 97.233C429.129 99.7282 429.778 100.976 431.077 100.976C431.535 100.976 432.032 100.721 432.566 100.212C433.101 99.7028 433.629 99.0281 434.151 98.1878C434.673 97.3476 435.132 96.4374 435.526 95.4571C435.934 94.4641 436.233 93.4903 436.424 92.5355L437.188 88.6399C436.882 88.3089 436.36 88.1434 435.622 88.1434ZM460.263 86.3866C460.67 86.3866 460.989 86.5712 461.218 86.9404C461.447 87.3096 461.562 87.787 461.562 88.3726C461.562 88.9327 461.485 89.6074 461.332 90.3967L460.721 93.6048C461.04 92.8537 461.447 92.0644 461.944 91.2369C462.453 90.3967 462.994 89.6074 463.567 88.8691C464.14 88.1307 464.706 87.5323 465.266 87.074C465.826 86.6157 466.323 86.3866 466.756 86.3866C467.621 86.3866 468.322 86.794 468.856 87.6087C468.856 89.3146 468.385 90.1676 467.443 90.1676C467.239 90.1676 466.998 90.0084 466.718 89.6902C466.437 89.3719 466.145 89.2128 465.839 89.2128C465.47 89.2128 464.986 89.5183 464.388 90.1294C463.789 90.7405 463.172 91.5425 462.536 92.5355C461.899 93.5157 461.326 94.5787 460.817 95.7245C460.308 96.8575 459.958 97.946 459.767 98.9899L459.041 103C458.608 103.076 458.188 103.115 457.781 103.115C457.297 103.115 456.826 103.076 456.368 103L458.659 91.2369C458.786 90.3585 458.85 89.8493 458.85 89.7093C458.85 89.0727 458.723 88.7545 458.468 88.7545C458.252 88.7545 457.927 88.9582 457.494 89.3656C457.291 89.5692 457.068 89.792 456.826 90.0339C456.597 90.2758 456.444 90.4477 456.368 90.5495C456.317 90.5495 456.221 90.4286 456.081 90.1867C455.941 89.9448 455.871 89.7729 455.871 89.6711C456.075 89.3274 456.444 88.9009 456.979 88.3917C457.513 87.8697 458.086 87.405 458.697 86.9977C459.308 86.5903 459.83 86.3866 460.263 86.3866ZM482.193 86.9595H484.866L485.783 82.3001C485.859 82.0455 486.483 81.9182 487.654 81.9182C487.909 81.9182 488.138 81.9309 488.342 81.9564L487.387 86.9595H490.862C490.99 86.9595 491.053 87.125 491.053 87.456C491.053 87.7488 490.939 88.118 490.71 88.5635H487.081L485.057 98.9517C484.981 99.2572 484.943 99.5755 484.943 99.9065C484.943 100.543 485.07 100.861 485.325 100.861C485.643 100.861 486.025 100.638 486.47 100.193C486.916 99.7346 487.298 99.3463 487.616 99.0281L487.845 98.7607C487.896 98.7607 487.992 98.8817 488.132 99.1235C488.272 99.3654 488.342 99.5373 488.342 99.6391C488.125 100.008 487.731 100.479 487.158 101.052C486.598 101.625 485.987 102.134 485.325 102.58C484.663 103.013 484.064 103.229 483.53 103.229C483.122 103.229 482.804 103.045 482.575 102.675C482.346 102.306 482.231 101.829 482.231 101.243C482.231 100.861 482.32 100.187 482.498 99.219L484.561 88.5635H481.849C481.773 88.5635 481.735 88.4235 481.735 88.1434C481.735 87.8124 481.887 87.4178 482.193 86.9595ZM509.087 78.3281C509.469 78.3281 509.794 78.4809 510.061 78.7864C510.329 79.092 510.462 79.4484 510.462 79.8558C510.462 80.4669 510.265 81.0016 509.87 81.4599C509.476 81.9182 508.986 82.1473 508.4 82.1473C507.993 82.1473 507.674 81.9882 507.445 81.6699C507.216 81.3517 507.101 80.9634 507.101 80.5051C507.101 79.9195 507.292 79.4102 507.674 78.9774C508.056 78.5446 508.527 78.3281 509.087 78.3281ZM507.98 86.3866C508.387 86.3866 508.706 86.5712 508.935 86.9404C509.164 87.3096 509.278 87.787 509.278 88.3726C509.278 88.8945 509.202 89.5692 509.049 90.3967L507.369 98.9517C507.292 99.2572 507.254 99.5755 507.254 99.9065C507.254 100.543 507.382 100.861 507.636 100.861C507.954 100.861 508.336 100.638 508.782 100.193C509.227 99.7346 509.609 99.3463 509.928 99.0281L510.157 98.7607C510.208 98.7607 510.303 98.8817 510.443 99.1235C510.583 99.3654 510.653 99.5373 510.653 99.6391C510.437 100.008 510.042 100.479 509.469 101.052C508.909 101.625 508.298 102.134 507.636 102.58C506.974 103.013 506.376 103.229 505.841 103.229C505.434 103.229 505.115 103.045 504.886 102.675C504.657 102.306 504.543 101.829 504.543 101.243C504.543 100.861 504.632 100.187 504.81 99.219L506.376 91.2369C506.503 90.4858 506.567 89.9766 506.567 89.7093C506.567 89.0727 506.439 88.7545 506.185 88.7545C506.032 88.7545 505.822 88.8563 505.555 89.06C505.3 89.2637 505.052 89.4929 504.81 89.7475C504.568 89.9893 504.39 90.1803 504.275 90.3203L504.084 90.5495C504.033 90.5495 503.938 90.4286 503.798 90.1867C503.658 89.9448 503.588 89.7729 503.588 89.6711C503.792 89.3274 504.161 88.9009 504.695 88.3917C505.23 87.8697 505.803 87.405 506.414 86.9977C507.025 86.5903 507.547 86.3866 507.98 86.3866ZM529.871 86.3866C530.279 86.3866 530.597 86.5712 530.826 86.9404C531.055 87.3096 531.17 87.787 531.17 88.3726C531.17 88.9327 531.094 89.6074 530.941 90.3967L530.253 93.9104C530.495 93.4775 531.049 92.6882 531.915 91.5425C532.488 90.7914 533.15 90.0212 533.901 89.2319C534.664 88.4299 535.416 87.7551 536.154 87.2077C536.905 86.6603 537.535 86.3866 538.044 86.3866C539.317 86.3866 539.954 87.2268 539.954 88.9073C539.954 90.0912 539.776 91.4788 539.419 93.0701L538.159 98.9517C538.083 99.2572 538.044 99.5755 538.044 99.9065C538.044 100.543 538.172 100.861 538.426 100.861C538.745 100.861 539.127 100.638 539.572 100.193C540.018 99.7346 540.4 99.3463 540.718 99.0281L540.947 98.7607C540.998 98.7607 541.093 98.8817 541.233 99.1235C541.373 99.3654 541.443 99.5373 541.443 99.6391C541.227 100.008 540.832 100.479 540.26 101.052C539.699 101.625 539.088 102.134 538.426 102.58C537.764 103.013 537.166 103.229 536.631 103.229C536.224 103.229 535.906 103.045 535.677 102.675C535.447 102.306 535.333 101.829 535.333 101.243C535.333 100.861 535.422 100.187 535.6 99.219L536.937 92.9174C537.115 92.0517 537.204 91.3643 537.204 90.855C537.204 89.7602 536.962 89.2128 536.479 89.2128C536.058 89.2128 535.492 89.531 534.779 90.1676C534.066 90.7914 533.321 91.6252 532.545 92.6691C531.781 93.713 531.087 94.8779 530.463 96.1637C529.84 97.4367 529.4 98.7225 529.146 100.021L528.496 103C528.153 103.102 527.758 103.153 527.313 103.153C526.88 103.153 526.447 103.102 526.014 103L528.267 91.2369C528.395 90.3585 528.458 89.8493 528.458 89.7093C528.458 89.0727 528.331 88.7545 528.076 88.7545C527.86 88.7545 527.535 88.9582 527.102 89.3656C526.899 89.5692 526.676 89.792 526.434 90.0339C526.205 90.2758 526.052 90.4477 525.976 90.5495C525.925 90.5495 525.829 90.4286 525.689 90.1867C525.549 89.9448 525.479 89.7729 525.479 89.6711C525.683 89.3274 526.052 88.9009 526.587 88.3917C527.122 87.8697 527.694 87.405 528.306 86.9977C528.917 86.5903 529.439 86.3866 529.871 86.3866ZM566.161 86.3866C567.103 86.3866 568.033 86.5521 568.949 86.8831L566.619 98.9517C566.543 99.2572 566.505 99.5755 566.505 99.9065C566.505 100.543 566.632 100.861 566.887 100.861C567.205 100.861 567.587 100.638 568.033 100.193C568.478 99.7346 568.86 99.3463 569.178 99.0281L569.407 98.7607C569.458 98.7607 569.554 98.8817 569.694 99.1235C569.834 99.3654 569.904 99.5373 569.904 99.6391C569.688 100.008 569.293 100.479 568.72 101.052C568.16 101.625 567.549 102.134 566.887 102.58C566.225 103.013 565.626 103.229 565.092 103.229C564.684 103.229 564.366 103.045 564.137 102.675C563.908 102.306 563.793 101.829 563.793 101.243C563.793 100.849 563.882 100.174 564.061 99.219L564.194 98.5507C564.232 98.3724 564.252 98.2642 564.252 98.226C564.048 98.608 563.755 99.079 563.373 99.6391C562.991 100.187 562.552 100.734 562.056 101.281C561.559 101.829 561.037 102.287 560.49 102.656C559.942 103.013 559.401 103.191 558.867 103.191C557.746 103.191 556.861 102.688 556.212 101.682C555.563 100.677 555.238 99.4609 555.238 98.0351C555.238 96.2146 555.779 94.4005 556.861 92.5928C557.587 91.3706 558.453 90.2949 559.459 89.3656C560.477 88.4362 561.565 87.7106 562.724 87.1886C563.882 86.6539 565.028 86.3866 566.161 86.3866ZM564.557 88.1434C563.806 88.1434 563.049 88.4108 562.285 88.9454C561.521 89.4674 560.821 90.1739 560.184 91.0651C559.548 91.9435 559.032 92.9237 558.637 94.0058C558.255 95.0752 558.065 96.1509 558.065 97.233C558.065 99.7282 558.714 100.976 560.012 100.976C560.471 100.976 560.967 100.721 561.502 100.212C562.036 99.7028 562.565 99.0281 563.087 98.1878C563.609 97.3476 564.067 96.4374 564.462 95.4571C564.869 94.4641 565.168 93.4903 565.359 92.5355L566.123 88.6399C565.817 88.3089 565.295 88.1434 564.557 88.1434ZM619.378 77.8698C621.593 77.8698 623.445 78.2899 624.934 79.1302C626.437 79.9704 627.563 81.1161 628.314 82.5674C629.078 84.0187 629.46 85.6737 629.46 87.5323C629.46 88.8309 629.269 90.1803 628.887 91.5807C628.505 92.981 627.901 94.3687 627.073 95.7436C626.246 97.1185 625.259 98.3533 624.113 99.4482C622.968 100.543 621.554 101.428 619.874 102.102C618.194 102.777 616.373 103.115 614.413 103.115C614.183 103.115 613.84 103.102 613.381 103.076C612.936 103.064 612.376 103.045 611.701 103.019C611.026 102.994 610.409 102.975 609.849 102.962C609.301 102.936 608.811 102.924 608.378 102.924L604.139 103.115C604.114 103.089 604.101 102.987 604.101 102.809C604.101 102.325 604.164 102.083 604.292 102.083C604.483 102.083 604.769 102.039 605.151 101.95C605.533 101.848 605.896 101.727 606.24 101.587C606.583 101.434 606.787 101.281 606.851 101.129C607.207 100.403 607.538 99.219 607.844 97.5768L610.593 83.3694C610.924 81.5108 611.064 80.3268 611.014 79.8176C611.001 79.6776 610.854 79.5375 610.574 79.3975C610.294 79.2575 609.989 79.1429 609.658 79.0538C609.327 78.9519 609.066 78.901 608.875 78.901C608.824 78.901 608.798 78.8501 608.798 78.7483C608.798 78.3409 608.888 78.0481 609.066 77.8698C609.651 77.8953 610.282 77.9144 610.956 77.9271C611.644 77.9399 612.376 77.9462 613.152 77.9462C613.598 77.9462 614.107 77.9462 614.68 77.9462C615.253 77.9335 615.889 77.9208 616.59 77.908C617.29 77.8953 617.869 77.8889 618.327 77.8889C618.798 77.8762 619.148 77.8698 619.378 77.8698ZM619.301 79.5503C616.577 79.5503 615.049 79.754 614.718 80.1613C614.311 80.6833 613.967 81.689 613.687 83.1785L610.899 97.6913C610.823 98.0478 610.784 98.5889 610.784 99.3145C610.784 100.053 610.81 100.479 610.861 100.594C611.09 101.103 612.567 101.358 615.291 101.358C617.442 101.358 619.352 100.664 621.02 99.2763C622.7 97.8887 623.967 96.1255 624.82 93.9868C625.673 91.848 626.099 89.582 626.099 87.1886C626.099 84.948 625.539 83.1148 624.419 81.689C623.299 80.2632 621.593 79.5503 619.301 79.5503ZM651.428 86.3866C652.93 86.3866 654.095 86.9086 654.923 87.9525C655.75 88.9964 656.164 90.4349 656.164 92.2681C656.164 93.5794 655.909 94.8843 655.4 96.1828C654.891 97.4686 654.222 98.6398 653.395 99.6964C652.567 100.753 651.657 101.6 650.664 102.236C649.671 102.873 648.691 103.191 647.723 103.191C646.196 103.191 645.031 102.694 644.229 101.701C643.427 100.708 643.026 99.2954 643.026 97.4622C643.026 96.1382 643.274 94.827 643.771 93.5285C644.28 92.2172 644.948 91.0269 645.776 89.9575C646.603 88.8754 647.507 88.0097 648.487 87.3605C649.48 86.7112 650.46 86.3866 651.428 86.3866ZM650.97 87.9525C650.333 87.9525 649.716 88.2325 649.117 88.7927C648.519 89.3401 647.978 90.0594 647.494 90.9505C647.011 91.8416 646.629 92.8155 646.349 93.8722C646.068 94.9288 645.928 95.96 645.928 96.9657C645.928 98.4425 646.164 99.5882 646.635 100.403C647.106 101.218 647.698 101.625 648.411 101.625C649.047 101.625 649.652 101.351 650.225 100.804C650.811 100.244 651.333 99.5182 651.791 98.627C652.249 97.7232 652.606 96.7429 652.86 95.6863C653.128 94.6296 653.261 93.5921 653.261 92.5737C653.261 91.0714 653.058 89.9257 652.65 89.1364C652.243 88.3471 651.683 87.9525 650.97 87.9525ZM679.048 86.3866C680.22 86.3866 681.066 86.6858 681.588 87.2841C682.11 87.8824 682.371 88.5381 682.371 89.251C682.371 90.3713 681.798 91.4788 680.652 92.5737C679.889 93.2993 679.067 93.9231 678.189 94.4451C677.311 94.9543 676.464 95.3426 675.649 95.6099C674.834 95.8772 674.147 96.0109 673.587 96.0109C673.485 96.0109 673.434 96.4565 673.434 97.3476C673.434 98.4934 673.657 99.3654 674.102 99.9638C674.548 100.562 675.153 100.861 675.917 100.861C676.235 100.861 676.617 100.772 677.062 100.594C677.508 100.416 677.852 100.225 678.093 100.021C678.348 99.8046 678.488 99.69 678.514 99.6773C678.539 99.6646 678.59 99.6264 678.666 99.5627C678.743 99.4864 678.972 99.2572 679.354 98.8753L679.468 98.7607C679.519 98.7607 679.615 98.8817 679.755 99.1235C679.895 99.3654 679.965 99.5373 679.965 99.6391C679.736 100.047 679.328 100.537 678.743 101.11C678.17 101.67 677.521 102.166 676.795 102.599C676.069 103.019 675.356 103.229 674.656 103.229C673.332 103.229 672.32 102.714 671.62 101.682C670.92 100.651 670.57 99.2317 670.57 97.424C670.57 96.2019 670.824 94.9479 671.334 93.6621C671.843 92.3636 672.518 91.1669 673.358 90.0721C674.198 88.9773 675.115 88.0925 676.108 87.4178C677.101 86.7303 678.081 86.3866 679.048 86.3866ZM678.666 87.9525C678.068 87.9525 677.476 88.2007 676.89 88.6972C676.305 89.1937 675.77 89.8048 675.286 90.5304C674.803 91.256 674.414 91.9881 674.122 92.7264C673.841 93.4521 673.701 94.0504 673.701 94.5214C673.701 94.6233 673.752 94.6742 673.854 94.6742C674.313 94.6742 674.866 94.5087 675.516 94.1777C676.165 93.834 676.801 93.3884 677.425 92.841C678.049 92.2936 678.571 91.6952 678.991 91.046C679.411 90.384 679.621 89.7347 679.621 89.0982C679.621 88.3344 679.303 87.9525 678.666 87.9525ZM708.005 86.3866C708.769 86.3866 709.437 86.6348 710.01 87.1313C710.583 87.6278 710.87 88.2453 710.87 88.9836C710.87 90.6386 710.138 92.0008 708.674 93.0701C707.21 94.1395 705.332 94.8652 703.04 95.2471C704.555 97.5259 705.72 99.0408 706.535 99.7919C707.324 100.53 708.005 100.899 708.578 100.899C709.036 100.899 709.476 100.708 709.896 100.327C710.316 99.9447 710.628 99.5755 710.831 99.219C710.908 99.219 711.029 99.3209 711.194 99.5246C711.36 99.7282 711.443 99.881 711.443 99.9829C711.366 100.263 711.118 100.658 710.698 101.167C710.29 101.676 709.813 102.134 709.266 102.542C708.718 102.949 708.196 103.153 707.7 103.153C707.05 103.153 706.382 102.93 705.695 102.484C705.02 102.026 704.46 101.511 704.014 100.938C703.849 100.734 703.702 100.556 703.575 100.403C703.448 100.237 703.333 100.091 703.231 99.9638C703.04 99.7346 702.779 99.3591 702.448 98.8371L701.78 97.7677C701.576 97.4367 701.366 97.0739 701.15 96.6793C700.933 96.2719 700.736 95.9473 700.558 95.7054L699.145 103C698.712 103.127 698.292 103.191 697.884 103.191C697.541 103.191 697.121 103.127 696.624 103L700.787 81.6508C701.016 80.5942 701.131 79.9195 701.131 79.6267C701.131 79.1429 700.354 78.901 698.801 78.901C698.725 78.901 698.686 78.8246 698.686 78.6719C698.686 78.3663 698.788 78.1117 698.992 77.908C700.634 77.7553 702.238 77.3988 703.804 76.8387C703.957 76.915 704.033 77.1569 704.033 77.5643C704.033 77.8444 703.868 78.7992 703.537 80.4287L701.551 90.7023L701.971 90.2058C702.366 89.7347 702.875 89.2064 703.499 88.6208C704.122 88.0225 704.823 87.5005 705.599 87.055C706.376 86.6094 707.178 86.3866 708.005 86.3866ZM706.63 88.1816C706.223 88.1816 705.714 88.4362 705.103 88.9454C704.492 89.4419 703.887 90.0403 703.289 90.7405C702.69 91.4406 702.187 92.1154 701.78 92.7646C701.373 93.4011 701.169 93.8594 701.169 94.1395C701.169 94.1904 701.194 94.2159 701.245 94.2159C701.296 94.2159 701.354 94.2159 701.417 94.2159C701.481 94.2032 701.557 94.1904 701.646 94.1777C701.812 94.1522 702.13 94.095 702.601 94.0058C703.072 93.9167 703.53 93.8085 703.976 93.6812C704.625 93.4903 705.268 93.2229 705.905 92.8792C706.554 92.5355 707.089 92.109 707.509 91.5998C707.942 91.0905 708.158 90.4986 708.158 89.8239C708.158 88.729 707.649 88.1816 706.63 88.1816ZM738.146 86.3866C739.419 86.3866 740.056 87.2268 740.056 88.9073C740.056 90.0912 739.878 91.4788 739.521 93.0701L738.261 98.9517C738.184 99.2572 738.146 99.5755 738.146 99.9065C738.146 100.543 738.273 100.861 738.528 100.861C738.846 100.861 739.228 100.638 739.674 100.193C740.119 99.7346 740.501 99.3463 740.82 99.0281L741.049 98.7607C741.1 98.7607 741.195 98.8817 741.335 99.1235C741.475 99.3654 741.545 99.5373 741.545 99.6391C741.329 100.008 740.934 100.479 740.361 101.052C739.801 101.625 739.19 102.134 738.528 102.58C737.866 103.013 737.268 103.229 736.733 103.229C736.326 103.229 736.007 103.045 735.778 102.675C735.549 102.306 735.435 101.829 735.435 101.243C735.435 100.861 735.524 100.187 735.702 99.219L737.039 92.9174C737.217 92.0517 737.306 91.3643 737.306 90.855C737.306 89.7602 737.064 89.2128 736.58 89.2128C736.16 89.2128 735.594 89.531 734.881 90.1676C734.168 90.7914 733.423 91.6252 732.647 92.6691C731.883 93.713 731.189 94.8779 730.565 96.1637C729.941 97.4367 729.502 98.7225 729.247 100.021L728.598 103C728.255 103.102 727.86 103.153 727.414 103.153C726.981 103.153 726.549 103.102 726.116 103L730.24 81.6508C730.47 80.5178 730.584 79.8431 730.584 79.6267C730.584 79.1429 729.808 78.901 728.255 78.901C728.178 78.901 728.14 78.8246 728.14 78.6719C728.14 78.3663 728.242 78.1117 728.445 77.908C730.1 77.7553 731.705 77.3988 733.258 76.8387C733.41 76.915 733.487 77.1569 733.487 77.5643C733.487 77.7425 733.321 78.6973 732.99 80.4287L730.355 93.9104C730.597 93.4775 731.151 92.6882 732.016 91.5425C732.589 90.7914 733.251 90.0212 734.002 89.2319C734.766 88.4299 735.517 87.7551 736.256 87.2077C737.007 86.6603 737.637 86.3866 738.146 86.3866ZM766.339 86.3866C767.281 86.3866 768.211 86.5521 769.127 86.8831L766.798 98.9517C766.721 99.2572 766.683 99.5755 766.683 99.9065C766.683 100.543 766.81 100.861 767.065 100.861C767.383 100.861 767.765 100.638 768.211 100.193C768.656 99.7346 769.038 99.3463 769.356 99.0281L769.586 98.7607C769.637 98.7607 769.732 98.8817 769.872 99.1235C770.012 99.3654 770.082 99.5373 770.082 99.6391C769.866 100.008 769.471 100.479 768.898 101.052C768.338 101.625 767.727 102.134 767.065 102.58C766.403 103.013 765.805 103.229 765.27 103.229C764.863 103.229 764.544 103.045 764.315 102.675C764.086 102.306 763.971 101.829 763.971 101.243C763.971 100.849 764.061 100.174 764.239 99.219L764.372 98.5507C764.411 98.3724 764.43 98.2642 764.43 98.226C764.226 98.608 763.933 99.079 763.551 99.6391C763.169 100.187 762.73 100.734 762.234 101.281C761.737 101.829 761.215 102.287 760.668 102.656C760.12 103.013 759.579 103.191 759.045 103.191C757.924 103.191 757.04 102.688 756.39 101.682C755.741 100.677 755.416 99.4609 755.416 98.0351C755.416 96.2146 755.958 94.4005 757.04 92.5928C757.765 91.3706 758.631 90.2949 759.637 89.3656C760.655 88.4362 761.744 87.7106 762.902 87.1886C764.061 86.6539 765.206 86.3866 766.339 86.3866ZM764.735 88.1434C763.984 88.1434 763.227 88.4108 762.463 88.9454C761.699 89.4674 760.999 90.1739 760.362 91.0651C759.726 91.9435 759.21 92.9237 758.816 94.0058C758.434 95.0752 758.243 96.1509 758.243 97.233C758.243 99.7282 758.892 100.976 760.19 100.976C760.649 100.976 761.145 100.721 761.68 100.212C762.215 99.7028 762.743 99.0281 763.265 98.1878C763.787 97.3476 764.245 96.4374 764.64 95.4571C765.047 94.4641 765.346 93.4903 765.537 92.5355L766.301 88.6399C765.996 88.3089 765.474 88.1434 764.735 88.1434ZM789.377 86.3866C789.784 86.3866 790.102 86.5712 790.331 86.9404C790.56 87.3096 790.675 87.787 790.675 88.3726C790.675 88.9327 790.599 89.6074 790.446 90.3967L789.835 93.6048C790.153 92.8537 790.56 92.0644 791.057 91.2369C791.566 90.3967 792.107 89.6074 792.68 88.8691C793.253 88.1307 793.82 87.5323 794.38 87.074C794.94 86.6157 795.436 86.3866 795.869 86.3866C796.735 86.3866 797.435 86.794 797.97 87.6087C797.97 89.3146 797.499 90.1676 796.557 90.1676C796.353 90.1676 796.111 90.0084 795.831 89.6902C795.551 89.3719 795.258 89.2128 794.953 89.2128C794.583 89.2128 794.1 89.5183 793.501 90.1294C792.903 90.7405 792.285 91.5425 791.649 92.5355C791.012 93.5157 790.44 94.5787 789.93 95.7245C789.421 96.8575 789.071 97.946 788.88 98.9899L788.154 103C787.722 103.076 787.301 103.115 786.894 103.115C786.41 103.115 785.939 103.076 785.481 103L787.772 91.2369C787.9 90.3585 787.963 89.8493 787.963 89.7093C787.963 89.0727 787.836 88.7545 787.582 88.7545C787.365 88.7545 787.04 88.9582 786.608 89.3656C786.404 89.5692 786.181 89.792 785.939 90.0339C785.71 90.2758 785.557 90.4477 785.481 90.5495C785.43 90.5495 785.335 90.4286 785.195 90.1867C785.055 89.9448 784.984 89.7729 784.984 89.6711C785.188 89.3274 785.557 88.9009 786.092 88.3917C786.627 87.8697 787.2 87.405 787.811 86.9977C788.422 86.5903 788.944 86.3866 789.377 86.3866ZM820.014 86.3866C820.956 86.3866 821.885 86.5521 822.802 86.8831L820.472 98.9517C820.396 99.2572 820.358 99.5755 820.358 99.9065C820.358 100.543 820.485 100.861 820.74 100.861C821.058 100.861 821.44 100.638 821.885 100.193C822.331 99.7346 822.713 99.3463 823.031 99.0281L823.26 98.7607C823.311 98.7607 823.407 98.8817 823.547 99.1235C823.687 99.3654 823.757 99.5373 823.757 99.6391C823.54 100.008 823.146 100.479 822.573 101.052C822.013 101.625 821.402 102.134 820.74 102.58C820.078 103.013 819.479 103.229 818.945 103.229C818.537 103.229 818.219 103.045 817.99 102.675C817.761 102.306 817.646 101.829 817.646 101.243C817.646 100.849 817.735 100.174 817.913 99.219L818.047 98.5507C818.085 98.3724 818.104 98.2642 818.104 98.226C817.901 98.608 817.608 99.079 817.226 99.6391C816.844 100.187 816.405 100.734 815.908 101.281C815.412 101.829 814.89 102.287 814.342 102.656C813.795 103.013 813.254 103.191 812.719 103.191C811.599 103.191 810.714 102.688 810.065 101.682C809.416 100.677 809.091 99.4609 809.091 98.0351C809.091 96.2146 809.632 94.4005 810.714 92.5928C811.44 91.3706 812.306 90.2949 813.311 89.3656C814.33 88.4362 815.418 87.7106 816.577 87.1886C817.735 86.6539 818.881 86.3866 820.014 86.3866ZM818.41 88.1434C817.659 88.1434 816.901 88.4108 816.138 88.9454C815.374 89.4674 814.673 90.1739 814.037 91.0651C813.4 91.9435 812.885 92.9237 812.49 94.0058C812.108 95.0752 811.917 96.1509 811.917 97.233C811.917 99.7282 812.567 100.976 813.865 100.976C814.323 100.976 814.82 100.721 815.355 100.212C815.889 99.7028 816.418 99.0281 816.94 98.1878C817.461 97.3476 817.92 96.4374 818.314 95.4571C818.722 94.4641 819.021 93.4903 819.212 92.5355L819.976 88.6399C819.67 88.3089 819.148 88.1434 818.41 88.1434ZM842.784 86.3866C843.191 86.3866 843.509 86.5712 843.739 86.9404C843.968 87.3096 844.082 87.787 844.082 88.3726C844.082 88.9327 844.006 89.6074 843.853 90.3967L843.166 93.9104C843.408 93.4775 843.961 92.6882 844.827 91.5425C845.4 90.7914 846.062 90.0212 846.813 89.2319C847.577 88.4299 848.328 87.7551 849.066 87.2077C849.817 86.6603 850.448 86.3866 850.957 86.3866C852.23 86.3866 852.866 87.2268 852.866 88.9073C852.866 90.0912 852.688 91.4788 852.332 93.0701L851.071 98.9517C850.995 99.2572 850.957 99.5755 850.957 99.9065C850.957 100.543 851.084 100.861 851.339 100.861C851.657 100.861 852.039 100.638 852.485 100.193C852.93 99.7346 853.312 99.3463 853.63 99.0281L853.859 98.7607C853.91 98.7607 854.006 98.8817 854.146 99.1235C854.286 99.3654 854.356 99.5373 854.356 99.6391C854.14 100.008 853.745 100.479 853.172 101.052C852.612 101.625 852.001 102.134 851.339 102.58C850.677 103.013 850.078 103.229 849.544 103.229C849.136 103.229 848.818 103.045 848.589 102.675C848.36 102.306 848.245 101.829 848.245 101.243C848.245 100.861 848.334 100.187 848.513 99.219L849.849 92.9174C850.028 92.0517 850.117 91.3643 850.117 90.855C850.117 89.7602 849.875 89.2128 849.391 89.2128C848.971 89.2128 848.404 89.531 847.691 90.1676C846.979 90.7914 846.234 91.6252 845.457 92.6691C844.693 93.713 844 94.8779 843.376 96.1637C842.752 97.4367 842.313 98.7225 842.058 100.021L841.409 103C841.065 103.102 840.671 103.153 840.225 103.153C839.792 103.153 839.359 103.102 838.926 103L841.18 91.2369C841.307 90.3585 841.371 89.8493 841.371 89.7093C841.371 89.0727 841.243 88.7545 840.989 88.7545C840.772 88.7545 840.448 88.9582 840.015 89.3656C839.811 89.5692 839.588 89.792 839.347 90.0339C839.117 90.2758 838.965 90.4477 838.888 90.5495C838.837 90.5495 838.742 90.4286 838.602 90.1867C838.462 89.9448 838.392 89.7729 838.392 89.6711C838.595 89.3274 838.965 88.9009 839.499 88.3917C840.034 87.8697 840.607 87.405 841.218 86.9977C841.829 86.5903 842.351 86.3866 842.784 86.3866Z" fill="#FFFDD0"/>
<path opacity="0.9" d="M184.736 179.622C183.073 178.916 181.422 178.563 179.782 178.563C176.456 178.563 174.793 179.793 174.793 182.253C174.793 183.324 175.169 184.326 175.921 185.26C176.672 186.171 177.583 186.991 178.654 187.72C179.725 188.426 180.795 189.155 181.866 189.907C182.936 190.659 183.848 191.558 184.599 192.606C185.351 193.654 185.727 194.793 185.727 196.023C185.727 198.096 185.032 199.668 183.643 200.738C182.253 201.786 180.328 202.31 177.868 202.31C175.431 202.31 173.347 201.684 171.615 200.431L172.435 199.201C174.075 200.271 175.875 200.807 177.834 200.807C179.793 200.807 181.296 200.419 182.344 199.645C183.392 198.848 183.916 197.709 183.916 196.228C183.916 195.203 183.54 194.235 182.788 193.324C182.037 192.39 181.126 191.558 180.055 190.829C178.984 190.078 177.914 189.315 176.843 188.54C175.772 187.766 174.861 186.843 174.11 185.773C173.358 184.702 172.982 183.552 172.982 182.322C172.982 180.704 173.574 179.429 174.759 178.495C175.966 177.538 177.583 177.06 179.611 177.06C181.661 177.06 183.563 177.47 185.317 178.29L184.736 179.622ZM205.834 181.126H198.317V179.725H214.888V181.126H207.371V201.9H205.834V181.126ZM245.558 199.611C244.054 201.365 241.765 202.242 238.69 202.242C235.615 202.242 233.325 201.365 231.822 199.611C230.319 197.857 229.567 195.431 229.567 192.333V179.725H231.139V192.333C231.139 198.005 233.656 200.841 238.69 200.841C243.724 200.841 246.241 198.005 246.241 192.333V179.725H247.813V192.333C247.813 195.431 247.061 197.857 245.558 199.611ZM273.156 200.738C276.072 200.738 278.407 199.952 280.161 198.381C281.937 196.809 282.826 194.44 282.826 191.274C282.826 188.107 281.824 185.59 279.819 183.722C277.837 181.855 275.388 180.921 272.473 180.921C270.4 180.921 268.805 180.966 267.689 181.057V200.499C269.056 200.659 270.878 200.738 273.156 200.738ZM272.473 179.52C275.89 179.52 278.737 180.579 281.015 182.697C283.316 184.793 284.466 187.652 284.466 191.274C284.466 194.895 283.407 197.618 281.288 199.44C279.193 201.262 276.482 202.173 273.156 202.173C270.855 202.173 268.486 202.059 266.049 201.832V179.725C267.871 179.588 270.013 179.52 272.473 179.52ZM301.559 201.9V179.725H311.912V181.091H303.131V189.155H311.058V190.488H303.131V200.465H312.254V201.9H301.559ZM328.793 201.9V179.588H329.545L344.101 196.331C344.625 196.923 345.103 197.515 345.536 198.107C345.991 198.677 346.231 198.973 346.253 198.996C346.208 198.449 346.185 197.378 346.185 195.784V179.725H347.757V202.037H347.005L332.176 185.021L330.297 182.732C330.342 183.187 330.365 184.258 330.365 185.943V201.9H328.793ZM370.169 181.126H362.652V179.725H379.223V181.126H371.706V201.9H370.169V181.126ZM428.629 202.31C425.075 202.31 422.023 201.103 419.472 198.688C416.921 196.251 415.645 193.255 415.645 189.702C415.645 186.126 416.761 183.13 418.994 180.716C421.226 178.278 424.085 177.06 427.57 177.06C430.303 177.06 433.071 177.515 435.873 178.426L435.429 179.793C432.695 178.973 430.075 178.563 427.57 178.563C424.586 178.563 422.148 179.634 420.258 181.775C418.367 183.916 417.422 186.536 417.422 189.634C417.422 192.731 418.515 195.374 420.702 197.561C422.912 199.725 425.554 200.807 428.629 200.807C431.317 200.807 433.64 200.397 435.599 199.577L436.112 200.738C435.246 201.239 434.107 201.627 432.695 201.9C431.306 202.173 429.95 202.31 428.629 202.31ZM461.786 202.242C458.62 202.242 455.966 201.137 453.825 198.927C451.683 196.718 450.613 194.018 450.613 190.829C450.613 187.618 451.683 184.907 453.825 182.697C455.966 180.488 458.62 179.383 461.786 179.383C464.952 179.383 467.606 180.488 469.747 182.697C471.888 184.907 472.959 187.618 472.959 190.829C472.959 194.018 471.888 196.718 469.747 198.927C467.606 201.137 464.952 202.242 461.786 202.242ZM461.786 180.784C459.052 180.784 456.775 181.752 454.952 183.688C453.153 185.624 452.253 188.005 452.253 190.829C452.253 193.631 453.153 196 454.952 197.936C456.775 199.85 459.052 200.807 461.786 200.807C464.542 200.807 466.82 199.85 468.62 197.936C470.419 196 471.319 193.631 471.319 190.829C471.319 188.005 470.419 185.624 468.62 183.688C466.82 181.752 464.542 180.784 461.786 180.784ZM500.343 200.738H499.421L492.963 185.055C492.69 184.44 492.416 183.722 492.143 182.902C492.143 182.925 492.12 183.05 492.075 183.278C492.052 183.506 492.018 183.814 491.972 184.201C491.926 184.565 491.881 184.873 491.835 185.123L489.273 201.9H487.735L491.357 179.588H492.28L499.182 195.955C499.728 197.321 500.002 198.039 500.002 198.107C500.161 197.629 500.469 196.923 500.924 195.989L508.612 179.588H509.535L512.917 201.9H511.277L508.851 185.055C508.692 183.939 508.612 183.199 508.612 182.834L507.621 185.089L500.343 200.738ZM539.323 200.738H538.401L531.943 185.055C531.669 184.44 531.396 183.722 531.123 182.902C531.123 182.925 531.1 183.05 531.054 183.278C531.032 183.506 530.998 183.814 530.952 184.201C530.906 184.565 530.861 184.873 530.815 185.123L528.253 201.9H526.715L530.337 179.588H531.259L538.161 195.955C538.708 197.321 538.982 198.039 538.982 198.107C539.141 197.629 539.448 196.923 539.904 195.989L547.592 179.588H548.514L551.897 201.9H550.257L547.831 185.055C547.672 183.939 547.592 183.199 547.592 182.834L546.601 185.089L539.323 200.738ZM583.804 199.611C582.301 201.365 580.012 202.242 576.936 202.242C573.861 202.242 571.572 201.365 570.069 199.611C568.565 197.857 567.813 195.431 567.813 192.333V179.725H569.385V192.333C569.385 198.005 571.902 200.841 576.936 200.841C581.971 200.841 584.488 198.005 584.488 192.333V179.725H586.059V192.333C586.059 195.431 585.308 197.857 583.804 199.611ZM604.296 201.9V179.588H605.047L619.603 196.331C620.127 196.923 620.605 197.515 621.038 198.107C621.494 198.677 621.733 198.973 621.756 198.996C621.71 198.449 621.687 197.378 621.687 195.784V179.725H623.259V202.037H622.507L607.678 185.021L605.799 182.732C605.845 183.187 605.867 184.258 605.867 185.943V201.9H604.296ZM641.707 201.9V179.725H643.279V201.9H641.707ZM678.989 200.807C677.281 201.763 674.901 202.242 671.848 202.242C668.819 202.242 666.142 201.148 663.819 198.962C661.518 196.775 660.368 194.064 660.368 190.829C660.368 187.572 661.37 184.85 663.375 182.663C665.402 180.476 668.01 179.383 671.199 179.383C673.773 179.383 676.29 179.782 678.75 180.579L678.34 181.877C675.971 181.148 673.523 180.784 670.994 180.784C668.466 180.784 666.336 181.752 664.605 183.688C662.896 185.602 662.042 187.959 662.042 190.761C662.042 193.54 663.033 195.909 665.015 197.868C667.019 199.827 669.331 200.807 671.951 200.807C674.57 200.807 676.746 200.442 678.477 199.713L678.989 200.807ZM695.935 194.212L692.757 201.9H691.152L700.445 179.588H701.368L710.73 201.9H708.987L705.776 194.212H695.935ZM700.821 182.117C700.479 183.142 700.172 183.996 699.899 184.679L696.482 192.88H705.229L701.846 184.713C701.322 183.438 700.981 182.572 700.821 182.117ZM727.341 181.126H719.824V179.725H736.396V181.126H728.879V201.9H727.341V181.126ZM751.28 201.9V179.725H752.851V201.9H751.28ZM781.113 202.242C777.947 202.242 775.293 201.137 773.152 198.927C771.011 196.718 769.94 194.018 769.94 190.829C769.94 187.618 771.011 184.907 773.152 182.697C775.293 180.488 777.947 179.383 781.113 179.383C784.279 179.383 786.933 180.488 789.074 182.697C791.215 184.907 792.286 187.618 792.286 190.829C792.286 194.018 791.215 196.718 789.074 198.927C786.933 201.137 784.279 202.242 781.113 202.242ZM781.113 180.784C778.38 180.784 776.102 181.752 774.279 183.688C772.48 185.624 771.58 188.005 771.58 190.829C771.58 193.631 772.48 196 774.279 197.936C776.102 199.85 778.38 200.807 781.113 200.807C783.869 200.807 786.147 199.85 787.947 197.936C789.746 196 790.646 193.631 790.646 190.829C790.646 188.005 789.746 185.624 787.947 183.688C786.147 181.752 783.869 180.784 781.113 180.784ZM809.386 201.9V179.588H810.137L824.693 196.331C825.217 196.923 825.695 197.515 826.128 198.107C826.584 198.677 826.823 198.973 826.846 198.996C826.8 198.449 826.777 197.378 826.777 195.784V179.725H828.349V202.037H827.597L812.768 185.021L810.889 182.732C810.935 183.187 810.957 184.258 810.957 185.943V201.9H809.386ZM884.36 192.504H885.693C885.647 194.622 885.044 196.479 883.882 198.073L887.436 201.9H885.385L882.891 199.201C881.798 200.157 880.545 200.909 879.133 201.456C877.72 202.002 876.354 202.276 875.032 202.276C872.823 202.276 871.092 201.82 869.839 200.909C868.609 199.975 867.994 198.677 867.994 197.014C867.994 195.351 868.483 193.95 869.463 192.811C870.442 191.649 871.821 190.465 873.597 189.258C870.887 186.342 869.531 184.098 869.531 182.527C869.531 180.955 870.044 179.725 871.069 178.836C872.094 177.925 873.586 177.47 875.545 177.47C877.504 177.47 878.973 177.937 879.953 178.871C880.932 179.782 881.422 180.886 881.422 182.185C881.422 183.46 880.932 184.668 879.953 185.807C878.973 186.946 877.618 188.187 875.887 189.531L882.959 197.082C883.347 196.627 883.677 195.932 883.95 194.998C884.224 194.064 884.36 193.233 884.36 192.504ZM875.237 200.943C877.538 200.943 879.759 200.021 881.9 198.176L874.622 190.385C871.251 192.435 869.565 194.485 869.565 196.536C869.565 197.925 870.055 199.007 871.035 199.782C872.014 200.556 873.415 200.943 875.237 200.943ZM879.884 182.458C879.884 181.319 879.508 180.431 878.757 179.793C878.028 179.155 876.991 178.836 875.647 178.836C872.595 178.836 871.069 180.044 871.069 182.458C871.069 183.096 871.262 183.791 871.65 184.542C872.06 185.271 872.493 185.898 872.948 186.422C873.404 186.923 874.042 187.583 874.862 188.404C878.21 186.194 879.884 184.212 879.884 182.458ZM403.957 237.636H403.034L395.893 220.347C395.483 219.39 395.153 218.547 394.902 217.818L394.561 220.415L391.759 238.9H390.085L394.117 214.265H395.073L402.693 232.374C403.08 233.217 403.388 234.014 403.615 234.766C403.684 234.515 404.037 233.729 404.675 232.408L413.182 214.265H414.105L417.829 238.9H416.121L413.456 220.347C413.274 219.185 413.182 218.308 413.182 217.716C413.16 217.738 413.103 217.852 413.012 218.057C412.943 218.24 412.807 218.558 412.602 219.014C412.419 219.447 412.226 219.902 412.021 220.381L403.957 237.636ZM450.167 236.611C448.664 238.365 446.375 239.242 443.299 239.242C440.224 239.242 437.935 238.365 436.432 236.611C434.928 234.857 434.177 232.431 434.177 229.333V216.725H435.748V229.333C435.748 235.005 438.265 237.841 443.299 237.841C448.334 237.841 450.851 235.005 450.851 229.333V216.725H452.422V229.333C452.422 232.431 451.671 234.857 450.167 236.611ZM470.659 238.9V216.725H472.23V237.465H482.413V238.9H470.659ZM498.12 218.126H490.603V216.725H507.174V218.126H499.657V238.9H498.12V218.126ZM522.058 238.9V216.725H523.63V238.9H522.058ZM552.37 237.738H551.447L544.989 222.055C544.716 221.44 544.443 220.722 544.169 219.902C544.169 219.925 544.147 220.05 544.101 220.278C544.078 220.506 544.044 220.814 543.999 221.201C543.953 221.565 543.907 221.873 543.862 222.123L541.299 238.9H539.762L543.384 216.588H544.306L551.208 232.955C551.755 234.321 552.028 235.039 552.028 235.107C552.188 234.629 552.495 233.923 552.951 232.989L560.639 216.588H561.561L564.944 238.9H563.304L560.878 222.055C560.718 220.939 560.639 220.199 560.639 219.834L559.648 222.089L552.37 237.738ZM581.065 238.9V216.725H591.418V218.091H582.637V226.155H590.564V227.488H582.637V237.465H591.76V238.9H581.065ZM615.407 237.738C618.322 237.738 620.657 236.952 622.411 235.381C624.188 233.809 625.076 231.44 625.076 228.274C625.076 225.107 624.074 222.59 622.07 220.722C620.088 218.855 617.639 217.921 614.723 217.921C612.65 217.921 611.056 217.966 609.94 218.057V237.499C611.307 237.659 613.129 237.738 615.407 237.738ZM614.723 216.52C618.14 216.52 620.988 217.579 623.265 219.697C625.566 221.793 626.716 224.652 626.716 228.274C626.716 231.895 625.657 234.618 623.539 236.44C621.443 238.262 618.732 239.173 615.407 239.173C613.106 239.173 610.737 239.059 608.3 238.832V216.725C610.122 216.588 612.263 216.52 614.723 216.52ZM643.809 238.9V216.725H645.381V238.9H643.809ZM664.93 231.212L661.752 238.9H660.146L669.44 216.588H670.363L679.725 238.9H677.982L674.77 231.212H664.93ZM669.816 219.117C669.474 220.142 669.167 220.996 668.894 221.679L665.477 229.88H674.224L670.841 221.713C670.317 220.438 669.976 219.572 669.816 219.117ZM725.272 237.704C728.484 237.704 731.058 236.839 732.994 235.107C734.953 233.353 735.933 230.722 735.933 227.214C735.933 223.706 734.828 220.916 732.619 218.843C730.432 216.77 727.721 215.734 724.486 215.734C722.414 215.734 720.614 215.791 719.088 215.905V237.431C720.568 237.613 722.63 237.704 725.272 237.704ZM724.486 214.23C728.245 214.23 731.388 215.404 733.917 217.75C736.445 220.073 737.71 223.24 737.71 227.249C737.71 229.276 737.379 231.075 736.719 232.647C736.081 234.196 735.193 235.438 734.054 236.372C731.707 238.262 728.78 239.208 725.272 239.208C722.972 239.208 720.363 239.082 717.448 238.832V214.47C719.771 214.31 722.117 214.23 724.486 214.23ZM755.15 238.9V216.725H765.503V218.091H756.722V226.155H764.649V227.488H756.722V237.465H765.845V238.9H755.15ZM786.861 217.681C785.631 217.681 784.628 217.978 783.854 218.57C783.079 219.162 782.692 219.994 782.692 221.064C782.692 222.294 783.205 223.399 784.23 224.378C784.959 225.085 785.893 225.836 787.032 226.634C788.193 227.408 788.991 227.966 789.423 228.308C789.856 228.649 790.38 229.116 790.995 229.709C792.111 230.825 792.669 232.112 792.669 233.57C792.669 235.46 792.032 236.895 790.756 237.875C789.503 238.832 787.738 239.31 785.46 239.31C783.205 239.31 781.314 238.718 779.788 237.533L780.608 236.337C782.157 237.385 783.797 237.909 785.528 237.909C787.259 237.909 788.603 237.545 789.56 236.816C790.54 236.087 791.029 235.062 791.029 233.741C791.029 232.602 790.54 231.554 789.56 230.597C788.877 229.914 787.954 229.173 786.792 228.376C785.653 227.579 784.856 227.009 784.401 226.668C783.945 226.303 783.41 225.825 782.795 225.233C781.633 224.071 781.052 222.727 781.052 221.201C781.052 219.675 781.587 218.479 782.658 217.613C783.751 216.748 785.255 216.315 787.168 216.315C789.082 216.315 790.801 216.691 792.328 217.442L791.747 218.707C790.335 218.023 788.706 217.681 786.861 217.681ZM809.219 238.9V216.725H810.791V238.9H809.219ZM838.506 217.784C835.977 217.784 833.847 218.752 832.116 220.688C830.408 222.602 829.554 224.959 829.554 227.761C829.554 230.563 830.522 232.943 832.458 234.902C834.394 236.839 836.672 237.807 839.292 237.807C841.934 237.807 843.984 237.499 845.442 236.884V227.761H847.014V237.602C845.237 238.695 842.72 239.242 839.462 239.242C836.205 239.242 833.46 238.137 831.228 235.927C828.996 233.718 827.879 231.007 827.879 227.795C827.879 224.561 828.882 221.85 830.886 219.663C832.913 217.476 835.522 216.383 838.711 216.383C841.285 216.383 843.802 216.782 846.262 217.579L845.852 218.877C843.483 218.148 841.034 217.784 838.506 217.784ZM864.722 238.9V216.588H865.474L880.03 233.331C880.554 233.923 881.032 234.515 881.465 235.107C881.92 235.677 882.16 235.973 882.182 235.996C882.137 235.449 882.114 234.378 882.114 232.784V216.725H883.686V239.037H882.934L868.105 222.021L866.226 219.732C866.271 220.187 866.294 221.258 866.294 222.943V238.9H864.722Z" fill="white"/>
</svg>
