<svg width="560" height="350" viewBox="0 0 560 350" fill="none" xmlns="http://www.w3.org/2000/svg">
<g clip-path="url(#clip0_159_245)">
<rect width="560" height="350" fill="white"/>
<g clip-path="url(#clip1_159_245)">
<rect width="560" height="373.333" transform="translate(0 -13.3335)" fill="#FAEBCC"/>
<path d="M194.803 3.43054L189.179 -0.78764C186.434 -2.84671 184.307 -5.62117 183.033 -8.80751C180.458 -15.2456 174.533 -19.7317 167.638 -20.4648L-45.021 -43.0751C-67.9962 -45.5178 -88.0215 -27.5088 -88.0215 -4.40414V332.938C-88.0215 354.416 -70.6103 371.827 -49.1326 371.827H235.137C246.697 371.827 257.265 365.296 262.435 354.956L271.637 333.484L283.158 309.765C284.166 307.688 284.988 305.526 285.613 303.303L290.123 287.268C291.087 283.842 291.576 280.299 291.576 276.739V260.632V236.856C291.576 233.296 291.087 229.753 290.123 226.327L286.126 212.116C285.162 208.689 284.674 205.146 284.674 201.587V189.005C284.674 185.646 285.109 182.301 285.969 179.054L290.281 162.764C291.14 159.516 291.576 156.171 291.576 152.812V139.926C291.576 136.567 291.14 133.222 290.281 129.975L285.469 111.797C284.94 109.797 284.252 107.844 283.412 105.954L278.917 95.8405C276.647 90.7321 273.302 86.1731 269.11 82.4745L267.034 80.6427C263.987 77.954 260.537 75.7596 256.81 74.1392L250.422 71.3617C246.695 69.7413 243.245 67.5469 240.198 64.8582L235.233 60.4777C232.926 58.4419 230.869 56.1395 229.104 53.6187L221.024 42.076L210.288 22.9044L204.076 13.3477C201.591 9.52379 198.452 6.16694 194.803 3.43054Z" fill="white" stroke="white" stroke-width="0.388889"/>
<path d="M145.973 -3.09298L143.105 -6.09752C141.886 -7.37474 140.951 -8.89615 140.364 -10.5612C138.65 -15.4178 134.128 -18.7226 128.981 -18.8815L-50.494 -24.4199C-72.8806 -25.1107 -91.2222 -6.79723 -90.5657 15.5904L-81.4699 325.756C-80.844 347.1 -63.1255 363.947 -41.7772 363.497L233.351 357.69C242.111 357.506 249.771 351.741 252.374 343.374L258.796 326.516C259.494 324.685 260.329 322.909 261.294 321.203L269.182 307.268L274.006 296.742C275.35 293.811 276.324 290.724 276.905 287.552L278.304 279.925C279.065 275.771 279.145 271.521 278.54 267.342L276.03 249.997L271.05 226.964L269.794 217.964C269.387 215.051 269.312 212.101 269.571 209.171L271.05 192.415V182.799C271.05 178.45 271.779 174.131 273.208 170.024L276.03 161.911L278.061 154.523C278.985 151.164 279.453 147.695 279.453 144.211V142.435C279.453 139.451 279.11 136.477 278.43 133.572L276.822 126.699C276.295 124.448 275.568 122.248 274.65 120.126L271.05 111.799L265.889 102.271C263.946 98.685 261.452 95.4268 258.497 92.616L253.109 87.4913C251.172 85.6483 249.049 84.0101 246.776 82.6027L233.122 74.1502C231.434 73.1052 229.668 72.1911 227.841 71.4157L216.564 66.6319C212.252 64.8025 208.306 62.2092 204.916 58.9768L198.748 53.0954C197.357 51.7694 196.067 50.3422 194.887 48.8255L190.123 42.6998L183.913 34.0061C182.868 32.5433 181.98 30.9746 181.263 29.326C179.92 26.2368 177.981 23.4426 175.558 21.1028L170.202 15.9316L157.752 6.28264L149.899 0.392982C148.496 -0.658897 147.183 -1.82485 145.973 -3.09298Z" fill="url(#paint0_linear_159_245)"/>
<path d="M83.4687 -13.3254L78.0552 -19.2803C77.0885 -20.3437 76.2724 -21.5348 75.6296 -22.8202C73.0726 -27.9337 67.9386 -31.2536 62.2261 -31.4874L-62.8887 -36.6091C-84.9719 -37.5131 -103.368 -19.8545 -103.368 2.24728V337.994C-103.368 359.472 -85.957 376.883 -64.4793 376.883H166.813C181.231 376.883 193.932 367.4 198.028 353.576C198.873 350.722 200.106 347.997 201.692 345.479L214.469 325.187C215.942 322.847 217.162 320.356 218.107 317.756L222.524 305.609C224.073 301.35 224.866 296.852 224.866 292.319V279.726C224.866 276.343 224.424 272.974 223.553 269.706L217.998 248.878C217.127 245.609 216.685 242.24 216.685 238.857V210.21V190.183C216.685 187.184 217.032 184.195 217.719 181.276L223.832 155.296C224.519 152.377 224.866 149.388 224.866 146.389V134.52C224.866 128.483 223.46 122.528 220.76 117.128L212.348 100.304C211.153 97.9133 209.714 95.6525 208.055 93.557L197.619 80.375C193.364 74.9992 187.762 70.8441 181.383 68.3309L160.489 60.1001C158.419 59.2847 156.423 58.2932 154.522 57.1364L140.659 48.6976C136.173 45.967 132.286 42.356 129.234 38.0825L123.635 30.2437L115.036 14.37C111.955 8.68187 107.504 3.8522 102.085 0.31839L91.0007 -6.91078C88.2272 -8.71961 85.696 -10.8753 83.4687 -13.3254Z" fill="url(#paint1_linear_159_245)"/>
<ellipse cx="107.452" cy="-1.00517" rx="4.85352" ry="1.56619" transform="rotate(31.5075 107.452 -1.00517)" fill="#FEFFFF"/>
<ellipse cx="252.562" cy="105.651" rx="8.05435" ry="3.69797" transform="rotate(31.5075 252.562 105.651)" fill="#FEFFFF"/>
<ellipse cx="243.607" cy="302.538" rx="8.05435" ry="3.69797" transform="rotate(136.627 243.607 302.538)" fill="#FEFFFF"/>
<ellipse cx="236.778" cy="294.795" rx="3.22068" ry="1.4787" transform="rotate(136.627 236.778 294.795)" fill="#FEFFFF"/>
<ellipse cx="243.961" cy="94.0415" rx="2.15125" ry="0.987696" transform="rotate(31.5075 243.961 94.0415)" fill="#FEFFFF"/>
<g clip-path="url(#clip2_159_245)">
<path d="M461.752 130.376C462.407 130.665 463.043 131.013 463.718 131.23C466.584 132.152 469.394 133.258 472.464 133.408C473.932 133.48 474.54 134.09 474.826 135.291C475.124 136.538 474.66 137.989 473.602 138.585C473.012 138.917 472.262 139.145 471.593 139.125C468.42 139.026 465.249 138.806 462.077 138.669C459.514 138.56 457.307 137.007 456.564 134.709C456.134 133.384 456.138 132.076 457.14 131.023C458.188 129.923 459.567 129.884 460.971 130.164C461.233 130.216 461.482 130.327 461.737 130.411C461.741 130.399 461.747 130.388 461.752 130.376ZM469.722 133.515C470.011 133.858 470.227 134.015 470.295 134.221C470.383 134.489 470.356 134.795 470.376 135.084C470.041 135.077 469.666 135.162 469.381 135.038C469.145 134.935 469.016 134.589 468.839 134.351C468.609 134.042 468.438 133.549 468.141 133.457C466.928 133.079 465.737 132.361 464.386 133.136C463.754 133.5 463.018 133.679 462.329 133.943C462.244 134.115 462.158 134.288 462.071 134.46C462.517 135.096 463.013 135.704 463.398 136.375C464.653 138.555 466.15 138.891 468.425 137.788C468.73 137.641 469.076 137.581 469.403 137.48C469.471 137.819 469.537 138.16 469.612 138.535C470.263 138.61 470.969 138.722 471.68 138.763C472.715 138.823 473.54 138.386 474.108 137.529C475.143 135.968 474.292 134.025 472.466 133.782C471.618 133.669 470.761 133.613 469.721 133.514L469.722 133.515ZM460.229 133.772C461.496 133.157 462.756 132.546 464.197 131.847C463.106 131.402 462.195 130.974 461.245 130.666C460.692 130.487 460.072 130.422 459.49 130.45C457.5 130.543 456.431 131.936 456.774 133.91C457.305 136.949 460.666 138.967 463.677 138.195C463.122 137.436 462.51 136.64 461.944 135.817C461.415 135.047 461.298 133.947 460.23 133.774L460.229 133.772Z" fill="#AB1A1A"/>
<path d="M477.217 129.55C476.544 131.541 474.724 132.172 472.984 131.012C472.54 130.715 472.091 130.419 471.66 130.104C470.794 129.471 469.931 128.872 468.828 128.674C468.287 128.577 467.791 128.237 467.27 128.016C466.43 127.66 465.581 127.325 464.745 126.956C463.529 126.422 462.168 126.067 461.147 125.277C459.221 123.792 459.385 121.566 461.317 120.068C463.355 118.487 466.344 118.597 468.53 120.29C471.04 122.235 473.57 124.155 476.1 126.074C477.235 126.934 477.667 128.228 477.219 129.55L477.217 129.55ZM474.179 125.265C473.884 125.537 473.662 125.743 473.441 125.948C473.235 125.687 473.001 125.441 472.831 125.158C472.603 124.775 472.477 124.324 472.214 123.972C471.531 123.058 470.695 122.288 469.448 122.6C468.253 122.899 467.099 123.355 465.874 123.76C466.315 125.24 466.673 126.609 467.756 127.367C468.824 128.114 470.159 128.562 471.51 127.786C471.534 127.771 471.578 127.759 471.596 127.771C471.912 127.981 472.225 128.194 472.539 128.408C472.313 128.616 472.11 128.862 471.855 129.022C471.68 129.131 471.433 129.121 471.028 129.204C472.059 129.889 472.905 130.54 473.836 131.029C474.224 131.233 474.837 131.233 475.267 131.085C476.234 130.752 476.822 129.982 476.976 128.97C477.132 127.952 476.757 127.083 475.941 126.454C475.379 126.02 474.763 125.654 474.181 125.264L474.179 125.265ZM469.465 121.611C469.138 121.334 468.676 120.912 468.182 120.533C466.243 119.036 463.528 118.945 461.69 120.301C459.739 121.74 459.655 123.901 461.674 125.231C462.827 125.991 464.242 126.358 465.538 126.902C465.58 126.828 465.621 126.755 465.662 126.681C465.085 125.397 464.507 124.11 463.98 122.937C464.301 122.93 464.83 123.017 465.299 122.89C466.716 122.503 468.11 122.033 469.465 121.611Z" fill="#AB1A1A"/>
<path d="M469.722 133.515C470.763 133.614 471.619 133.669 472.468 133.783C474.293 134.027 475.147 135.969 474.11 137.53C473.542 138.387 472.717 138.823 471.682 138.764C470.971 138.722 470.265 138.61 469.614 138.535C469.539 138.16 469.471 137.819 469.405 137.481C469.077 137.581 468.73 137.641 468.426 137.789C466.153 138.89 464.654 138.556 463.4 136.375C463.015 135.704 462.519 135.097 462.073 134.46C462.158 134.288 462.244 134.115 462.331 133.943C463.019 133.679 463.756 133.498 464.388 133.136C465.738 132.362 466.93 133.079 468.142 133.457C468.44 133.55 468.613 134.043 468.841 134.351C469.018 134.59 469.147 134.935 469.382 135.038C469.668 135.161 470.043 135.078 470.378 135.084C470.356 134.795 470.385 134.49 470.297 134.222C470.229 134.015 470.013 133.859 469.724 133.515L469.722 133.515Z" fill="#FEDFDF"/>
<path d="M460.229 133.772C461.297 133.945 461.413 135.044 461.942 135.814C462.51 136.64 463.12 137.435 463.676 138.193C460.666 138.967 457.305 136.95 456.774 133.91C456.431 131.936 457.499 130.543 459.489 130.452C460.073 130.425 460.693 130.489 461.245 130.667C462.194 130.974 463.103 131.403 464.197 131.849C462.755 132.548 461.495 133.159 460.228 133.774L460.229 133.772Z" fill="#FEDFDF"/>
<path d="M474.179 125.264C474.762 125.653 475.377 126.019 475.939 126.453C476.756 127.083 477.131 127.952 476.975 128.969C476.821 129.98 476.233 130.752 475.265 131.085C474.838 131.231 474.222 131.233 473.835 131.029C472.904 130.54 472.058 129.889 471.027 129.203C471.432 129.121 471.679 129.131 471.853 129.021C472.109 128.861 472.311 128.617 472.538 128.408C472.225 128.195 471.911 127.981 471.595 127.771C471.578 127.759 471.534 127.771 471.508 127.786C470.158 128.562 468.824 128.114 467.754 127.366C466.673 126.609 466.313 125.24 465.873 123.76C467.097 123.355 468.252 122.897 469.447 122.599C470.693 122.287 471.53 123.058 472.212 123.972C472.475 124.324 472.601 124.775 472.83 125.157C473 125.441 473.234 125.685 473.439 125.948C473.661 125.743 473.882 125.537 474.177 125.265L474.179 125.264Z" fill="#FEDFDF"/>
<path d="M469.467 121.609C468.111 122.032 466.717 122.502 465.3 122.888C464.831 123.016 464.302 122.929 463.981 122.936C464.508 124.109 465.085 125.393 465.664 126.68C465.622 126.753 465.581 126.827 465.54 126.9C464.243 126.357 462.83 125.99 461.675 125.23C459.657 123.898 459.74 121.738 461.691 120.3C463.53 118.943 466.244 119.035 468.184 120.532C468.676 120.912 469.137 121.332 469.467 121.609Z" fill="#FEDFDF"/>
</g>
<path d="M486.625 221.112L515.351 144.311L516.646 145.713L526.879 145.085L497.833 224.924L486.625 221.112Z" fill="#AB1A1A" stroke="#AB1A1A" stroke-width="0.388889"/>
<path d="M508.938 229.05L539.209 144.482L527.019 145.032L497.937 225.167L508.938 229.05Z" fill="white"/>
<path d="M539.261 144.342L551.71 143.921L519.115 232.952L508.944 229.058L539.261 144.342Z" fill="#AB1A1A"/>
<path d="M529.731 236.865L564.306 142.904L551.642 143.895L518.558 232.746L529.731 236.865Z" fill="white"/>
<path d="M554.49 50.5012L552.786 50.0514L516.882 145.537L575.197 142.772L562.22 48.4716L554.49 50.5012Z" fill="#AB1A1A"/>
<path d="M546.674 41.9452L548.063 40.9285L452.18 6.22483L454.823 89.2903L546.894 46.4082L546.803 45.9687L546.39 43.9913L546.674 41.9452Z" fill="#DE8282"/>
<path d="M550.93 36.5211L507.147 -55.612L452.189 6.35132L547.22 40.5628L547.905 39.3694L549.168 37.5887L550.93 36.5211Z" fill="#AB1A1A"/>
<path d="M454.915 89.2488L546.583 45.8643L547.659 46.8439L550.099 49.1828L553.01 50.0855L517.018 145.558L454.915 89.2488Z" fill="#F04B4B"/>
<path d="M507.145 -55.6138L580.526 -53.3286L557.353 37.2317L551.459 35.9878L551.218 37.2317L507.145 -55.6138Z" fill="#DE8282"/>
<ellipse cx="553.541" cy="44.0507" rx="8.48794" ry="8.47952" transform="rotate(-11.7736 553.541 44.0507)" fill="#720606"/>
<path d="M455.487 209.891L487.314 119.107L497.181 128.009L466.344 213.748L455.487 209.891Z" fill="white" stroke="white" stroke-width="0.388889"/>
<path d="M506.454 136.149L497.299 127.895L466.461 213.994L476.337 217.638L506.454 136.149Z" fill="#AB1A1A"/>
<path d="M515.19 144.194L506.436 136.179L476.313 217.685L486.366 221.213L515.19 144.194Z" fill="white"/>
<path opacity="0.35" d="M460.454 114.579L455.721 91.8705L454.858 89.1953L516.924 145.473L578.179 142.607L581.641 161.281L514.462 167.385L460.454 114.579Z" fill="#5B5B59"/>
<path d="M456.56 213.444L457.64 211.137L529.938 237.027L564.09 143.382L567.771 143.209L532.011 240.906L456.56 213.444Z" fill="#7A736A" fill-opacity="0.3"/>
<path d="M557.362 36.5727L564.095 11.438L567.442 26.4784L560.259 38.9869L559.888 38.5783L558.402 37.2413L557.362 36.5727Z" fill="#F04B4B"/>
<g clip-path="url(#clip3_159_245)">
<path d="M64.0535 204.925C66.3244 205.741 68.5692 206.634 70.8694 207.362C84.2603 211.593 97.498 211.834 110.504 205.812C116.499 203.036 122.458 200.149 128.587 197.693C133.184 195.85 138.022 194.614 142.362 193.234C142.421 193.24 142.004 193.188 141.525 193.13C141.505 192.885 141.453 192.676 141.483 192.474C142.463 185.761 143.767 179.067 143.284 172.23C142.919 167.046 141.636 162.072 139.446 157.348C139.296 157.022 139.085 156.722 138.694 156.053V163.239C136.719 162.062 135.009 160.62 134.712 158.027C134.559 157.997 134.409 157.965 134.256 157.935C133.552 161.041 132.849 164.15 132.174 167.138C128.929 164.844 129.382 158.647 133.552 153.747C131.669 154.099 130.21 154.931 129.486 156.471C128.812 157.906 128.577 159.55 128.16 161.054C126.577 158.565 126.531 154.947 128.118 152.674C129.802 150.257 132.138 149.999 134.774 150.765C134.823 150.593 134.869 150.423 134.917 150.25C133.357 149.676 131.796 149.105 130.281 148.547C131.917 146.352 134.116 146.3 136.993 148.521C138.801 145.455 140.681 144.359 143.535 144.891C142.708 145.494 141.932 145.931 141.323 146.538C140.753 147.109 140.355 147.856 140.026 148.684C142.77 146.949 145.575 145.768 148.787 146.685C150.582 147.2 152.036 148.306 153.023 150.048C147.786 149.211 144.556 149.153 143.333 149.875C144.767 150.175 146.376 150.289 147.794 150.87C149.452 151.548 149.915 153.176 150.081 155C147.425 154.122 144.904 153.294 142.382 152.462C142.294 152.586 142.203 152.706 142.115 152.83C145.06 155.107 145.835 158.167 145.614 162.098C144.148 160.552 142.978 159.315 141.808 158.079C141.659 158.102 141.512 158.125 141.362 158.151C147.663 169.088 146.858 180.708 144.952 192.79C149.918 184.423 153.036 175.638 156.47 166.955C155.499 167.982 154.528 169.013 153.499 170.106C152.762 167.787 153.795 164.968 155.815 162.992C154.838 163.239 153.847 163.438 152.886 163.745C151.912 164.055 150.967 164.466 150.006 164.838C149.739 162.14 151.423 160.94 155.528 161.031C152.792 159.511 150.221 160.32 147.552 161.018C149.732 157.632 152.642 157.325 157.708 159.563C156.877 158.705 156.046 157.847 155.251 157.029C157.206 156.611 158.428 157.283 159.803 159.482C160.963 159.175 162.038 158.712 163.136 158.663C163.84 158.63 164.57 159.204 165.628 159.651C164.019 160.225 162.81 160.656 161.605 161.087C161.634 161.227 161.66 161.364 161.689 161.504C163.696 160.923 165.518 161.087 166.782 162.907C168.238 165.001 167.948 167.19 166.831 169.493C166.482 166.922 165.876 164.57 163.234 163.99C163.882 165.621 164.755 167.33 165.228 169.147C165.726 171.065 165.022 172.833 163.775 174.441C163.227 172.018 162.709 169.737 162.204 167.49C161.048 168.867 159.992 170.122 158.682 171.682V166.214C155.525 175.162 152.469 183.829 149.377 192.591C157.412 192.076 165.114 193.309 172.327 197.595C172.021 197.641 171.861 197.719 171.764 197.67C161.399 192.617 150.697 192.937 139.85 195.654C130.868 197.905 122.426 201.601 114.137 205.613C106.086 209.511 97.7261 211.798 88.7402 211.439C80.2333 211.1 72.1629 208.954 64.4412 205.414C64.275 205.339 64.1316 205.209 63.9785 205.104C64.0078 205.046 64.0339 204.984 64.0632 204.925H64.0535Z" fill="#EBF8F5"/>
<path d="M190.893 190.629C191.574 187.034 192.535 183.469 192.89 179.844C194.864 159.855 182.624 137.634 159.211 132.887C147.201 130.454 135.518 131.71 124.711 137.823C114.096 143.828 107.902 153.265 104.904 164.898C102.8 173.072 102.624 181.312 104.781 189.536C104.833 189.735 104.823 189.95 104.595 190.224C104.269 189.043 103.898 187.869 103.627 186.675C103.354 185.462 103.109 184.232 102.966 182.996C101.562 170.874 103.722 159.506 110.489 149.243C117.093 139.232 126.577 133.475 138.232 131.253C148.244 129.345 158.149 129.762 167.587 133.899C181.229 139.878 189.404 150.512 192.766 164.875C194.727 173.252 194.297 181.577 191.179 189.679C191.056 190.002 190.886 190.312 190.74 190.625C190.788 190.625 190.841 190.625 190.889 190.629H190.893Z" fill="#EBF8F5"/>
<g clip-path="url(#clip4_159_245)">
<path d="M172.302 188.048C172.207 188.732 172.225 189.445 172.015 190.103C171.969 190.247 171.905 190.397 171.778 190.48C171.615 190.586 171.389 190.548 171.233 190.434C171.076 190.32 170.975 190.144 170.895 189.967C169.904 187.793 171.251 185.038 170.123 182.931C169.253 181.307 167.187 180.634 166.231 179.059C166.201 179.009 166.172 178.957 166.162 178.899C166.136 178.735 166.29 178.586 166.453 178.558C166.616 178.529 166.782 178.585 166.937 178.644C167.412 178.824 167.878 179.03 168.332 179.259C169.042 179.618 169.728 180.037 170.481 180.295C171.343 180.591 172.229 180.549 173.121 180.457C174.626 180.299 175.75 179.577 176.974 178.763C177.264 178.569 177.567 178.371 177.912 178.315C178.257 178.26 178.657 178.389 178.808 178.704C178.916 178.722 179.024 178.74 179.132 178.758C179.62 178.839 180.354 180.087 180.701 180.445C181.245 181.006 181.876 181.524 182.651 181.715C182.887 181.773 183.131 181.8 183.371 181.841C183.576 181.876 183.779 181.923 183.981 181.971C185.464 182.327 186.864 182.934 187.938 184.048C188.239 184.361 188.526 184.816 188.327 185.203C187.981 185.283 187.605 185.224 187.301 185.042C187.156 184.956 187.029 184.845 186.894 184.745C186.67 184.578 186.424 184.443 186.164 184.343C185.921 184.249 185.602 184.205 185.438 184.407C185.339 184.529 185.335 184.7 185.335 184.857C185.337 185.467 185.337 186.077 185.317 186.687C185.29 187.474 185.226 188.259 185.125 189.04C185.078 189.405 185.021 189.775 184.865 190.109C184.791 190.269 184.688 190.424 184.534 190.508C184.38 190.591 184.165 190.585 184.05 190.452C183.998 190.393 183.971 190.317 183.947 190.243C183.797 189.78 183.719 189.296 183.715 188.81C183.712 188.309 183.763 187.737 183.412 187.379C183.022 187.315 182.729 187.728 182.603 188.102C182.429 188.617 182.369 189.171 182.431 189.711C182.461 189.977 182.503 190.289 182.308 190.472C182.137 190.633 181.845 190.599 181.662 190.45C181.007 189.919 181.179 188.382 181.203 187.643C181.237 186.546 181.353 185.437 181.152 184.349C181.004 183.551 180.684 182.792 180.227 182.122C180.017 181.814 179.812 181.512 179.616 181.193C179.457 180.934 179.168 180.182 178.909 180.041C178.851 180.009 178.793 179.978 178.735 179.946C178.734 179.632 178.732 179.318 178.732 179.003C177.841 179.93 176.934 180.84 176.087 181.809C175.917 182.004 175.748 182.202 175.619 182.427C175.425 182.767 175.331 183.154 175.25 183.537C175.112 184.189 175.005 184.863 175.116 185.52C175.184 185.917 175.365 186.256 175.395 186.656C175.423 187.026 175.371 187.413 175.33 187.78C175.268 188.342 175.145 188.898 175.092 189.459C175.062 189.763 175.026 190.087 174.835 190.326C174.645 190.565 174.242 190.66 174.035 190.434C173.926 190.314 173.9 190.143 173.885 189.982C173.794 189.068 173.848 188.094 173.395 187.295C173.241 187.024 172.882 186.765 172.647 186.971C172.584 187.026 172.548 187.106 172.517 187.184C172.407 187.462 172.345 187.752 172.304 188.047L172.302 188.048Z" fill="#EBF8F5"/>
<path d="M164.816 179.489C165.094 179.151 165.404 178.869 165.826 178.803C166.151 179.439 165.741 180.191 165.332 180.778C165.063 181.165 164.787 181.55 164.539 181.95C164.229 182.451 163.96 182.976 163.736 183.52C163.314 184.546 163.305 185.703 163.34 186.796C163.358 187.363 163.398 187.928 163.424 188.494C163.435 188.752 163.486 189.051 163.451 189.306C163.418 189.544 163.274 189.685 163.22 189.912C163.198 190.004 163.22 190.101 163.211 190.195C163.195 190.351 163.087 190.493 162.941 190.55C162.31 190.796 162.149 189.912 162.192 189.503C162.226 189.18 162.301 188.851 162.216 188.537C162.195 188.46 162.165 188.386 162.134 188.312C162.099 188.226 162.063 188.138 162.028 188.052C161.931 187.815 161.827 187.569 161.628 187.407C161.56 187.351 161.472 187.305 161.385 187.32C161.317 187.332 161.261 187.378 161.217 187.431C161.072 187.603 161.032 187.835 160.998 188.057C160.902 188.665 160.807 189.275 160.764 189.888C160.751 190.068 160.74 190.256 160.65 190.412C160.56 190.568 160.359 190.678 160.194 190.603C160.1 190.561 160.038 190.47 159.986 190.382C159.806 190.081 159.674 189.753 159.593 189.412C159.533 189.158 159.502 188.898 159.472 188.639C159.455 188.501 159.439 188.362 159.422 188.223C159.409 188.105 159.395 187.988 159.386 187.869C159.376 187.732 159.373 187.595 159.37 187.457C159.357 186.787 159.785 183.89 158.566 184.326C158.205 184.455 157.87 184.654 157.583 184.906C157.521 184.961 157.461 185.018 157.385 185.047C157.316 185.073 157.241 185.074 157.17 185.091C156.967 185.137 156.788 185.304 156.582 185.275C156.362 185.244 156.234 184.987 156.267 184.767C156.3 184.547 156.447 184.364 156.597 184.201C156.986 183.777 157.432 183.405 157.915 183.092C158.301 182.841 158.713 182.626 159.14 182.452C159.396 182.349 159.658 182.259 159.92 182.169C159.968 182.153 160.018 182.136 160.067 182.119C160.832 181.857 161.633 181.914 162.364 181.605C162.856 181.396 163.316 181.113 163.722 180.765C163.886 180.624 164.042 180.474 164.183 180.309C164.4 180.054 164.599 179.754 164.818 179.49L164.816 179.489Z" fill="#EBF8F5"/>
<path d="M172.276 179.919C172.213 179.85 172.148 179.786 172.061 179.764C171.991 179.746 171.9 179.747 171.866 179.683C171.849 179.651 171.854 179.612 171.853 179.576C171.847 179.32 171.472 179.098 171.407 178.801C171.341 178.504 171.359 178.124 171.466 177.834C171.731 177.114 172.903 176.648 173.498 177.203C173.966 177.641 174.189 178.324 174.067 178.952C174.057 179.005 174.044 179.059 174.012 179.103C173.978 179.149 173.926 179.18 173.899 179.23C173.872 179.277 173.87 179.332 173.86 179.385C173.786 179.807 173.215 179.995 172.865 180.103C172.758 180.136 172.643 180.169 172.536 180.135C172.429 180.101 172.354 180.006 172.277 179.92L172.276 179.919Z" fill="#EBF8F5"/>
<path d="M161.767 178.778C161.827 178.91 161.978 178.984 162.094 179.079C162.444 179.367 162.483 179.894 162.386 180.336C162.351 180.496 162.302 180.653 162.24 180.803C162.207 180.884 162.169 180.964 162.109 181.028C162.021 181.12 161.889 181.17 161.824 181.28C161.806 181.311 161.792 181.349 161.763 181.369C161.734 181.39 161.696 181.391 161.661 181.391C161.477 181.393 161.293 181.395 161.11 181.397C161.027 181.397 160.942 181.398 160.867 181.366C160.79 181.333 160.73 181.27 160.673 181.208C160.54 181.064 160.403 180.912 160.354 180.722C160.345 180.688 160.339 180.652 160.316 180.626C160.282 180.588 160.223 180.582 160.189 180.544C160.159 180.51 160.157 180.461 160.157 180.415C160.156 179.581 160.147 179.328 160.856 178.856C160.933 178.813 161.013 178.777 161.099 178.753C161.311 178.694 161.536 178.718 161.755 178.742C161.759 178.755 161.763 178.767 161.768 178.778H161.767Z" fill="#EBF8F5"/>
<path d="M182.945 181.285C182.572 181.102 182.325 180.715 182.262 180.249C182.198 179.782 182.36 179.304 182.685 178.972C182.796 178.904 182.872 178.877 182.885 178.739C182.894 178.693 183.334 178.709 183.379 178.708C183.716 178.702 184.045 178.951 184.274 179.2C184.467 179.409 184.53 179.692 184.536 179.969C184.539 180.095 184.543 180.248 184.508 180.369C184.468 180.51 184.37 180.538 184.332 180.662C184.313 180.723 184.313 180.791 184.286 180.849C184.266 180.892 184.23 180.928 184.195 180.96C184.005 181.14 183.763 181.396 183.485 181.401C183.286 181.404 183.104 181.363 182.946 181.285H182.945Z" fill="#EBF8F5"/>
</g>
</g>
<path d="M33.6176 163.476C31.0525 163.476 29.1076 162.772 27.7829 161.362C26.4863 159.953 25.838 158.177 25.838 156.035C25.838 154.513 26.148 152.991 26.7681 151.469C27.4164 149.918 28.3325 148.565 29.5164 147.41C30.7002 146.254 32.0814 145.479 33.6598 145.084C32.786 144.464 32.1377 143.717 31.7149 142.844C31.2921 141.942 31.0807 140.997 31.0807 140.011C31.0807 138.545 31.4753 137.107 32.2646 135.698C33.082 134.289 34.1954 133.147 35.6047 132.273C37.0423 131.371 38.6207 130.92 40.3401 130.92C42.1159 130.92 43.5675 131.386 44.695 132.316C45.8225 133.246 46.3862 134.542 46.3862 136.206C46.3862 137.446 46.0762 138.489 45.4561 139.334C44.836 140.18 44.1031 140.603 43.2575 140.603C42.4964 140.603 41.834 140.222 41.2703 139.461C41.7777 139.292 42.2146 138.827 42.581 138.066C42.9474 137.305 43.1306 136.544 43.1306 135.783C43.1306 134.965 42.9052 134.373 42.4542 134.007C42.0032 133.612 41.4535 133.415 40.8052 133.415C39.9878 133.415 39.2408 133.711 38.5644 134.303C37.9161 134.867 37.4087 135.614 37.0423 136.544C36.6758 137.446 36.4926 138.39 36.4926 139.377C36.4926 140.73 36.845 141.927 37.5496 142.97C38.2543 143.985 39.3254 144.676 40.7629 145.042C39.3254 145.352 38.0288 146.057 36.8731 147.156C35.7175 148.255 34.8155 149.538 34.1672 151.004C33.5189 152.441 33.1947 153.822 33.1947 155.147C33.1947 156.416 33.5189 157.444 34.1672 158.234C34.8437 159.023 35.8584 159.417 37.2114 159.417C38.6207 159.417 40.0865 159.037 41.6086 158.276C43.1588 157.487 44.3004 156.43 45.0333 155.105L46.0057 155.528C44.9064 157.952 43.2152 159.883 40.9321 161.32C38.6489 162.758 36.2108 163.476 33.6176 163.476ZM59.9576 163.011C57.1671 163.011 55.0531 162.335 53.6155 160.982C52.2062 159.601 51.5015 157.571 51.5015 154.893C51.5015 153.569 51.6988 152.089 52.0934 150.454L56.406 133.288C53.982 133.936 52.0934 135.092 50.7405 136.755C49.3875 138.39 48.711 140.194 48.711 142.167C48.711 143.548 49.0774 144.887 49.8103 146.184C48.2036 146.184 46.9493 145.789 46.0473 145C45.1735 144.211 44.7366 143.097 44.7366 141.66C44.7366 139.828 45.4695 138.08 46.9352 136.417C48.4291 134.726 50.4022 133.373 52.8545 132.358C55.3067 131.343 57.8999 130.836 60.6341 130.836C61.5924 130.836 62.3817 130.906 63.0018 131.047L57.8436 150.581C57.3644 152.357 57.1248 153.879 57.1248 155.147C57.1248 157.825 58.2241 159.164 60.4227 159.164C63.5796 159.164 65.7641 156.261 66.9761 150.454L71.2042 130.92H77.1657L73.0645 150.454C72.1625 154.597 70.5982 157.726 68.3714 159.84C66.1728 161.954 63.3682 163.011 59.9576 163.011Z" fill="#EBF8F5"/>
<path d="M53.0491 172.636H52.5417C50.0331 172.636 48.0741 173.27 46.6647 174.538C45.2836 175.779 44.593 177.991 44.593 181.176C44.593 182.219 44.6916 182.952 44.889 183.375C45.0863 183.77 45.1849 183.995 45.1849 184.052C43.6628 184.052 42.5212 183.742 41.7602 183.121C41.0273 182.473 40.6609 181.416 40.6609 179.95C40.6609 177.949 41.1542 176.131 42.1407 174.496C43.1273 172.833 44.6916 171.494 46.8339 170.48C49.0042 169.465 51.7525 168.957 55.0785 168.957C56.9389 168.957 58.9401 169.127 61.0824 169.465C62.8863 169.775 64.493 169.93 65.9023 169.93C67.7063 169.93 69.3411 169.634 70.8068 169.042C70.7505 170.874 70.2854 172.227 69.4116 173.101C68.5378 173.975 67.2412 174.412 65.5218 174.412C64.6198 174.412 63.7178 174.341 62.8158 174.2C61.9139 174.059 60.6314 173.82 58.9683 173.481L53.1336 200.625H47.0453L53.0491 172.636ZM63.638 179.485H69.7264L69.1767 182.107C70.1351 181.261 70.9948 180.613 71.7558 180.162C72.5451 179.711 73.3907 179.485 74.2927 179.485C75.1947 179.485 75.8993 179.795 76.4067 180.415C76.9422 181.036 77.21 181.783 77.21 182.656C77.21 183.474 76.9422 184.192 76.4067 184.813C75.8711 185.433 75.1242 185.743 74.1658 185.743C73.5457 185.743 73.1229 185.602 72.8974 185.32C72.7001 185.01 72.5451 184.573 72.4323 184.009C72.3478 183.643 72.2632 183.375 72.1786 183.206C72.0941 183.037 71.9391 182.952 71.7136 182.952C71.1216 182.952 70.6143 183.079 70.1915 183.333C69.7969 183.558 69.2754 183.967 68.6271 184.559L65.2447 200.625H59.1563L63.638 179.485ZM83.7202 177.202C82.79 177.202 82.0008 176.878 81.3525 176.23C80.7042 175.581 80.3801 174.792 80.3801 173.862C80.3801 172.932 80.7042 172.143 81.3525 171.494C82.0008 170.818 82.79 170.48 83.7202 170.48C84.6504 170.48 85.4396 170.818 86.0879 171.494C86.7644 172.143 87.1026 172.932 87.1026 173.862C87.1026 174.792 86.7644 175.581 86.0879 176.23C85.4396 176.878 84.6504 177.202 83.7202 177.202ZM80.8451 200.879C79.4922 200.879 78.3929 200.456 77.5473 199.611C76.7298 198.765 76.3211 197.497 76.3211 195.806C76.3211 195.101 76.4339 194.185 76.6594 193.057L79.5345 179.485H85.6228L82.5786 193.861C82.4659 194.283 82.4095 194.734 82.4095 195.214C82.4095 195.777 82.5364 196.186 82.79 196.44C83.0719 196.665 83.5229 196.778 84.143 196.778C84.9604 196.778 85.7215 196.44 86.4262 195.763C87.1308 195.059 87.6382 194.157 87.9483 193.057H89.724C88.6811 196.101 87.3422 198.173 85.7074 199.273C84.0725 200.344 82.4518 200.879 80.8451 200.879ZM93.5547 200.879C91.638 200.879 90.1723 200.414 89.1575 199.484C88.1428 198.526 87.6354 197.187 87.6354 195.467C87.6354 194.622 87.7341 193.818 87.9314 193.057L92.4554 171.875L98.7129 171.029L96.6835 180.542C97.4727 180.063 98.121 179.753 98.6284 179.612C99.1357 179.443 99.6431 179.358 100.15 179.358C103.477 179.358 105.14 181.768 105.14 186.588C105.14 188.533 104.759 190.619 103.998 192.846C103.265 195.044 102.025 196.933 100.277 198.511C98.5579 200.09 96.317 200.879 93.5547 200.879ZM95.9224 196.778C96.7962 196.778 97.6136 196.242 98.3747 195.171C99.1357 194.072 99.7417 192.719 100.193 191.112C100.644 189.478 100.869 187.913 100.869 186.419C100.869 185.292 100.672 184.333 100.277 183.544C99.8827 182.755 99.333 182.36 98.6284 182.36C98.2056 182.36 97.7264 182.431 97.1908 182.572C96.6835 182.684 96.3311 182.868 96.1338 183.121L93.8084 193.861C93.7238 194.199 93.6815 194.523 93.6815 194.833C93.6815 196.13 94.4285 196.778 95.9224 196.778ZM112.68 200.879C110.622 200.879 109.015 200.344 107.86 199.273C106.704 198.173 106.126 196.468 106.126 194.157C106.126 192.212 106.507 190.069 107.268 187.73C108.029 185.39 109.269 183.375 110.988 181.684C112.708 179.964 114.892 179.105 117.542 179.105C120.642 179.105 122.193 180.458 122.193 183.164C122.193 184.742 121.742 186.194 120.84 187.519C119.938 188.843 118.74 189.914 117.246 190.732C115.752 191.521 114.159 191.972 112.468 192.085C112.412 192.705 112.384 193.128 112.384 193.353C112.384 195.693 113.257 196.863 115.005 196.863C115.794 196.863 116.64 196.651 117.542 196.228C118.444 195.806 119.261 195.27 119.994 194.622C119.233 198.793 116.795 200.879 112.68 200.879ZM112.764 190.055C113.835 190.027 114.836 189.675 115.766 188.998C116.724 188.322 117.486 187.462 118.049 186.419C118.641 185.348 118.937 184.235 118.937 183.079C118.937 181.923 118.585 181.346 117.88 181.346C116.894 181.346 115.907 182.248 114.921 184.052C113.962 185.827 113.243 187.829 112.764 190.055Z" fill="#EBF8F5"/>
<g clip-path="url(#clip5_159_245)">
<path d="M141.24 183.266C140.003 186.716 138.789 190.106 137.568 193.511C136.182 192.078 134.049 192.853 133.868 194.788C132.585 194.618 131.938 193.587 132.373 192.364C133.468 189.288 134.571 186.215 135.68 183.144C136.058 182.1 136.921 181.695 137.957 182.065C139.033 182.448 140.105 182.849 141.24 183.265L141.24 183.266Z" fill="#EBF8F5"/>
<path d="M136.267 196.183C135.504 196.358 134.777 195.91 134.601 195.156C134.427 194.415 134.893 193.661 135.634 193.486C136.386 193.308 137.107 193.759 137.292 194.525C137.477 195.287 137.031 196.008 136.267 196.183Z" fill="#EBF8F5"/>
<path d="M143.464 174.751C143.699 174.839 143.918 174.921 144.254 175.046C144.048 175.383 143.862 175.676 143.689 175.976C143.615 176.103 143.558 176.242 143.508 176.381C142.83 178.275 142.153 180.17 141.476 182.064C141.441 182.162 141.423 182.278 141.359 182.351C141.297 182.421 141.163 182.501 141.1 182.475C141.029 182.447 140.941 182.291 140.962 182.22C141.073 181.834 141.214 181.457 141.349 181.078C141.927 179.464 142.517 177.855 143.076 176.236C143.206 175.859 143.229 175.446 143.314 175.052C143.334 174.956 143.402 174.871 143.463 174.752L143.464 174.751Z" fill="#EBF8F5"/>
<path d="M134.256 185.111C133.469 187.312 132.694 189.474 131.9 191.689C131.562 191.379 131.51 191.067 131.632 190.721C132.235 189.024 132.84 187.327 133.453 185.633C133.571 185.307 133.797 185.09 134.255 185.111L134.256 185.111Z" fill="#EBF8F5"/>
</g>
<path d="M194.539 8.4862L188.914 4.26802C186.169 2.20895 184.043 -0.565506 182.768 -3.75185C180.193 -10.1899 174.269 -14.676 167.373 -15.4091L-45.2857 -38.0194C-68.2608 -40.4622 -88.2861 -22.4531 -88.2861 0.65152V337.994C-88.2861 359.471 -70.875 376.883 -49.3972 376.883H234.872C246.432 376.883 257 370.351 262.17 360.012L271.372 338.539L282.893 314.821C283.902 312.744 284.723 310.581 285.349 308.359L289.858 292.324C290.822 288.897 291.311 285.355 291.311 281.795V265.687V241.911C291.311 238.352 290.822 234.809 289.858 231.382L285.862 217.171C284.898 213.745 284.409 210.202 284.409 206.642V194.061C284.409 190.702 284.844 187.357 285.704 184.11L290.016 167.819C290.876 164.572 291.311 161.227 291.311 157.868V144.982C291.311 141.623 290.876 138.278 290.016 135.031L285.204 116.852C284.675 114.853 283.987 112.899 283.147 111.009L278.652 100.896C276.382 95.7877 273.037 91.2288 268.845 87.5302L266.769 85.6984C263.722 83.0097 260.272 80.8152 256.545 79.1949L250.157 76.4173C246.43 74.797 242.98 72.6025 239.933 69.9138L234.969 65.5334C232.661 63.4976 230.604 61.1951 228.839 58.6743L220.759 47.1316L210.023 27.9601L203.812 18.4033C201.326 14.5795 198.187 11.2226 194.539 8.4862Z" fill="white" stroke="white" stroke-width="0.388889"/>
<path d="M145.708 1.96268L142.84 -1.04186C141.621 -2.31908 140.687 -3.84049 140.099 -5.50554C138.385 -10.3621 133.864 -13.667 128.716 -13.8258L-50.7587 -19.3642C-73.1453 -20.0551 -91.4869 -1.74157 -90.8303 20.6461L-81.7346 330.812C-81.1087 352.156 -63.3901 369.003 -42.0418 368.552L233.086 362.746C241.846 362.561 249.507 356.796 252.109 348.43L258.532 331.571C259.229 329.74 260.064 327.964 261.03 326.259L268.917 312.324L273.742 301.798C275.085 298.867 276.059 295.779 276.641 292.608L278.039 284.981C278.8 280.827 278.88 276.577 278.275 272.397L275.765 255.053L270.785 232.02L269.529 223.019C269.123 220.106 269.048 217.157 269.306 214.227L270.785 197.47V187.855C270.785 183.506 271.514 179.187 272.943 175.079L275.765 166.967L277.797 159.579C278.721 156.219 279.189 152.751 279.189 149.267V147.49C279.189 144.507 278.846 141.533 278.166 138.628L276.557 131.755C276.03 129.503 275.303 127.304 274.386 125.181L270.785 116.855L265.624 107.327C263.682 103.741 261.187 100.482 258.232 97.6716L252.845 92.5469C250.907 90.704 248.785 89.0658 246.511 87.6583L232.857 79.2059C231.169 78.1609 229.404 77.2467 227.576 76.4714L216.3 71.6875C211.988 69.8582 208.042 67.2648 204.652 64.0325L198.483 58.151C197.093 56.8251 195.802 55.3979 194.622 53.8811L189.858 47.7554L183.648 39.0618C182.603 37.5989 181.715 36.0302 180.998 34.3816C179.655 31.2925 177.717 28.4982 175.293 26.1585L169.938 20.9873L157.487 11.3383L149.634 5.44865C148.232 4.39677 146.919 3.23081 145.708 1.96268Z" fill="url(#paint2_linear_159_245)"/>
<path d="M83.204 -8.26974L77.7906 -14.2247C76.8239 -15.2881 76.0077 -16.4791 75.365 -17.7645C72.8079 -22.8781 67.6739 -26.1979 61.9615 -26.4317L-63.1533 -31.5534C-85.2366 -32.4574 -103.633 -14.7988 -103.633 7.30294V343.05C-103.633 364.528 -86.2217 381.939 -64.7439 381.939H166.549C180.966 381.939 193.667 372.456 197.763 358.632C198.609 355.778 199.842 353.053 201.428 350.534L214.204 330.243C215.678 327.902 216.897 325.411 217.842 322.812L222.26 310.665C223.809 306.405 224.601 301.908 224.601 297.375V284.781C224.601 281.399 224.16 278.03 223.288 274.761L217.734 253.933C216.862 250.665 216.421 247.296 216.421 243.913V215.266V195.238C216.421 192.239 216.768 189.25 217.454 186.331L223.567 160.352C224.254 157.433 224.601 154.444 224.601 151.445V139.576C224.601 133.538 223.195 127.584 220.495 122.184L212.083 105.359C210.888 102.969 209.449 100.708 207.79 98.6127L197.355 85.4307C193.099 80.0548 187.497 75.8997 181.118 73.3866L160.224 65.1558C158.154 64.3404 156.158 63.3488 154.258 62.1921L140.394 53.7533C135.908 51.0227 132.022 47.4117 128.969 43.1382L123.37 35.2994L114.772 19.4257C111.691 13.7375 107.239 8.90786 101.821 5.37405L90.7361 -1.85512C87.9625 -3.66394 85.4314 -5.81959 83.204 -8.26974Z" fill="url(#paint3_linear_159_245)"/>
<ellipse cx="107.188" cy="4.0505" rx="4.85352" ry="1.56619" transform="rotate(31.5075 107.188 4.0505)" fill="#FEFFFF"/>
<ellipse cx="252.298" cy="110.707" rx="8.05435" ry="3.69797" transform="rotate(31.5075 252.298 110.707)" fill="#FEFFFF"/>
<ellipse cx="243.342" cy="307.593" rx="8.05435" ry="3.69797" transform="rotate(136.627 243.342 307.593)" fill="#FEFFFF"/>
<ellipse cx="236.514" cy="299.85" rx="3.22068" ry="1.4787" transform="rotate(136.627 236.514 299.85)" fill="#FEFFFF"/>
<ellipse cx="243.697" cy="99.0972" rx="2.15125" ry="0.987696" transform="rotate(31.5075 243.697 99.0972)" fill="#FEFFFF"/>
<g clip-path="url(#clip6_159_245)">
<path d="M61.4919 205.955C63.7628 206.771 66.0077 207.665 68.3079 208.392C81.6988 212.623 94.9365 212.864 107.943 206.843C113.938 204.067 119.897 201.18 126.025 198.723C130.623 196.88 135.461 195.644 139.801 194.264C139.859 194.271 139.442 194.219 138.963 194.16C138.944 193.915 138.892 193.706 138.921 193.504C139.902 186.791 141.205 180.097 140.723 173.26C140.358 168.077 139.074 163.102 136.885 158.379C136.735 158.052 136.523 157.752 136.132 157.083V164.27C134.158 163.092 132.447 161.65 132.151 159.057C131.998 159.028 131.848 158.995 131.695 158.966C130.991 162.071 130.287 165.18 129.613 168.168C126.368 165.875 126.82 159.677 130.991 154.777C129.108 155.13 127.648 155.961 126.925 157.501C126.25 158.936 126.016 160.58 125.599 162.084C124.015 159.595 123.97 155.978 125.556 153.704C127.241 151.287 129.577 151.029 132.213 151.796C132.261 151.623 132.307 151.453 132.356 151.28C130.795 150.706 129.235 150.135 127.72 149.578C129.355 147.382 131.554 147.33 134.431 149.551C136.24 146.485 138.12 145.389 140.974 145.921C140.146 146.524 139.371 146.961 138.761 147.568C138.191 148.139 137.794 148.886 137.465 149.715C140.208 147.979 143.013 146.798 146.226 147.715C148.021 148.23 149.474 149.336 150.461 151.078C145.224 150.241 141.995 150.183 140.772 150.905C142.205 151.205 143.815 151.319 145.232 151.9C146.89 152.579 147.353 154.206 147.519 156.03C144.864 155.152 142.342 154.324 139.82 153.492C139.732 153.616 139.641 153.737 139.553 153.861C142.498 156.138 143.274 159.197 143.052 163.128C141.586 161.582 140.417 160.346 139.247 159.109C139.097 159.132 138.95 159.155 138.801 159.181C145.102 170.119 144.297 181.738 142.391 193.821C147.356 185.453 150.474 176.669 153.908 167.985C152.937 169.013 151.967 170.044 150.937 171.136C150.201 168.817 151.233 165.999 153.254 164.022C152.276 164.27 151.286 164.469 150.324 164.775C149.35 165.085 148.405 165.496 147.444 165.868C147.177 163.17 148.862 161.97 152.967 162.061C150.23 160.541 147.659 161.35 144.991 162.048C147.171 158.662 150.08 158.356 155.146 160.593C154.316 159.736 153.485 158.878 152.69 158.059C154.645 157.641 155.867 158.313 157.241 160.512C158.401 160.205 159.477 159.742 160.575 159.693C161.278 159.661 162.008 160.235 163.067 160.682C161.457 161.256 160.249 161.686 159.043 162.117C159.073 162.257 159.099 162.394 159.128 162.534C161.135 161.954 162.956 162.117 164.22 163.937C165.677 166.031 165.387 168.22 164.269 170.523C163.921 167.953 163.315 165.601 160.672 165.02C161.321 166.651 162.194 168.36 162.666 170.177C163.165 172.095 162.461 173.863 161.213 175.472C160.666 173.048 160.148 170.768 159.643 168.52C158.486 169.897 157.43 171.153 156.121 172.712V167.245C152.964 176.193 149.907 184.86 146.815 193.622C154.85 193.106 162.552 194.339 169.766 198.626C169.459 198.671 169.3 198.749 169.202 198.701C158.838 193.648 148.135 193.967 137.289 196.685C128.306 198.935 119.864 202.631 111.576 206.644C103.525 210.542 95.1646 212.828 86.1787 212.47C77.6717 212.13 69.6014 209.984 61.8796 206.445C61.7135 206.37 61.5701 206.239 61.417 206.135C61.4463 206.076 61.4724 206.014 61.5017 205.955H61.4919Z" fill="#EBF8F5"/>
<path d="M188.331 191.659C189.012 188.064 189.973 184.499 190.328 180.875C192.303 160.885 180.062 138.664 156.649 133.918C144.64 131.484 132.956 132.74 122.149 138.853C111.534 144.859 105.34 154.296 102.343 165.928C100.238 174.103 100.062 182.343 102.219 190.566C102.271 190.765 102.261 190.98 102.033 191.254C101.708 190.074 101.336 188.899 101.066 187.705C100.792 186.492 100.548 185.262 100.404 184.026C99.0001 171.904 101.16 160.536 107.927 150.273C114.532 140.262 124.016 134.505 135.67 132.283C145.682 130.375 155.587 130.793 165.026 134.929C178.668 140.908 186.842 151.542 190.205 165.905C192.166 174.282 191.736 182.607 188.618 190.71C188.494 191.033 188.325 191.343 188.178 191.656C188.227 191.656 188.279 191.656 188.328 191.659H188.331Z" fill="#EBF8F5"/>
<g clip-path="url(#clip7_159_245)">
<path d="M169.739 189.079C169.645 189.763 169.663 190.475 169.452 191.134C169.406 191.277 169.342 191.427 169.216 191.51C169.053 191.617 168.827 191.578 168.67 191.464C168.513 191.35 168.413 191.174 168.332 190.998C167.342 188.823 168.688 186.068 167.56 183.962C166.69 182.337 164.625 181.664 163.669 180.089C163.639 180.039 163.609 179.987 163.6 179.929C163.574 179.765 163.728 179.616 163.891 179.588C164.054 179.559 164.219 179.616 164.374 179.674C164.85 179.854 165.315 180.06 165.769 180.289C166.48 180.648 167.166 181.067 167.919 181.325C168.78 181.621 169.666 181.579 170.558 181.487C172.063 181.329 173.188 180.607 174.411 179.793C174.701 179.599 175.005 179.401 175.349 179.345C175.694 179.29 176.095 179.419 176.245 179.734C176.354 179.752 176.462 179.77 176.569 179.788C177.057 179.869 177.791 181.117 178.139 181.476C178.683 182.037 179.313 182.554 180.088 182.745C180.325 182.803 180.568 182.83 180.808 182.871C181.013 182.906 181.216 182.953 181.418 183.002C182.901 183.357 184.302 183.964 185.375 185.078C185.677 185.391 185.963 185.847 185.764 186.234C185.418 186.313 185.042 186.254 184.738 186.073C184.594 185.986 184.466 185.875 184.331 185.775C184.108 185.609 183.861 185.474 183.602 185.373C183.359 185.28 183.039 185.236 182.875 185.437C182.777 185.559 182.772 185.73 182.772 185.887C182.774 186.498 182.775 187.107 182.754 187.717C182.727 188.504 182.663 189.289 182.563 190.07C182.516 190.435 182.459 190.806 182.303 191.14C182.228 191.299 182.126 191.454 181.972 191.538C181.818 191.622 181.603 191.615 181.487 191.482C181.435 191.424 181.409 191.347 181.384 191.273C181.234 190.811 181.156 190.326 181.153 189.84C181.149 189.339 181.201 188.767 180.85 188.41C180.46 188.346 180.166 188.758 180.04 189.132C179.866 189.647 179.806 190.201 179.868 190.741C179.898 191.007 179.941 191.32 179.746 191.502C179.574 191.663 179.282 191.63 179.099 191.481C178.444 190.949 178.617 189.412 178.64 188.674C178.674 187.576 178.79 186.467 178.589 185.379C178.442 184.581 178.121 183.822 177.665 183.152C177.454 182.844 177.25 182.542 177.054 182.223C176.894 181.964 176.606 181.212 176.347 181.071C176.289 181.039 176.231 181.008 176.173 180.976C176.172 180.662 176.17 180.348 176.169 180.034C175.278 180.961 174.371 181.87 173.525 182.84C173.355 183.035 173.185 183.233 173.057 183.458C172.863 183.797 172.768 184.184 172.688 184.567C172.55 185.219 172.443 185.893 172.553 186.55C172.621 186.948 172.803 187.286 172.832 187.686C172.86 188.056 172.808 188.443 172.767 188.81C172.705 189.372 172.583 189.928 172.529 190.49C172.5 190.793 172.463 191.117 172.273 191.356C172.082 191.595 171.679 191.69 171.473 191.464C171.364 191.345 171.338 191.173 171.322 191.012C171.231 190.098 171.286 189.125 170.833 188.326C170.678 188.054 170.32 187.795 170.085 188.001C170.022 188.056 169.985 188.136 169.954 188.214C169.844 188.492 169.783 188.782 169.742 189.077L169.739 189.079Z" fill="#EBF8F5"/>
<path d="M162.254 180.519C162.532 180.181 162.842 179.899 163.264 179.833C163.589 180.47 163.178 181.221 162.77 181.808C162.501 182.196 162.225 182.58 161.976 182.981C161.666 183.481 161.398 184.006 161.174 184.55C160.751 185.576 160.743 186.734 160.777 187.826C160.795 188.393 160.835 188.958 160.861 189.524C160.872 189.782 160.924 190.081 160.888 190.336C160.855 190.574 160.711 190.715 160.658 190.942C160.636 191.034 160.658 191.131 160.648 191.225C160.632 191.381 160.524 191.524 160.379 191.58C159.748 191.826 159.587 190.942 159.63 190.534C159.664 190.211 159.738 189.881 159.653 189.568C159.633 189.491 159.602 189.416 159.572 189.343C159.536 189.256 159.501 189.169 159.465 189.082C159.368 188.846 159.264 188.599 159.066 188.437C158.997 188.381 158.91 188.335 158.822 188.351C158.755 188.363 158.699 188.409 158.654 188.461C158.51 188.633 158.47 188.866 158.435 189.087C158.34 189.696 158.245 190.305 158.201 190.919C158.188 191.099 158.178 191.287 158.088 191.442C157.998 191.598 157.797 191.708 157.632 191.634C157.538 191.591 157.476 191.5 157.423 191.412C157.244 191.111 157.111 190.783 157.031 190.442C156.971 190.188 156.94 189.929 156.909 189.67C156.893 189.531 156.876 189.392 156.86 189.253C156.846 189.136 156.832 189.018 156.824 188.899C156.813 188.763 156.811 188.625 156.808 188.487C156.794 187.817 157.222 184.92 156.003 185.357C155.643 185.486 155.307 185.684 155.02 185.937C154.959 185.991 154.898 186.048 154.822 186.078C154.754 186.104 154.678 186.104 154.607 186.121C154.404 186.167 154.226 186.334 154.02 186.305C153.8 186.274 153.671 186.017 153.704 185.797C153.737 185.577 153.885 185.395 154.034 185.231C154.423 184.807 154.87 184.436 155.352 184.122C155.739 183.871 156.15 183.657 156.577 183.483C156.834 183.379 157.096 183.289 157.357 183.2C157.406 183.183 157.455 183.166 157.505 183.149C158.27 182.887 159.07 182.944 159.802 182.635C160.294 182.427 160.754 182.143 161.159 181.796C161.324 181.655 161.48 181.504 161.62 181.34C161.838 181.084 162.037 180.785 162.255 180.52L162.254 180.519Z" fill="#EBF8F5"/>
<path d="M169.714 180.95C169.652 180.881 169.587 180.817 169.499 180.795C169.429 180.776 169.338 180.778 169.304 180.714C169.288 180.682 169.292 180.643 169.291 180.607C169.285 180.351 168.911 180.129 168.845 179.832C168.779 179.535 168.797 179.154 168.904 178.865C169.169 178.145 170.341 177.679 170.937 178.234C171.405 178.671 171.627 179.354 171.506 179.983C171.496 180.035 171.483 180.09 171.45 180.134C171.417 180.18 171.365 180.211 171.337 180.261C171.31 180.307 171.308 180.363 171.299 180.415C171.224 180.838 170.653 181.026 170.303 181.134C170.197 181.167 170.082 181.2 169.975 181.166C169.867 181.131 169.793 181.037 169.715 180.951L169.714 180.95Z" fill="#EBF8F5"/>
<path d="M159.205 179.809C159.264 179.941 159.415 180.015 159.531 180.11C159.881 180.398 159.92 180.924 159.823 181.367C159.789 181.527 159.739 181.684 159.678 181.834C159.645 181.915 159.607 181.995 159.547 182.058C159.459 182.151 159.327 182.201 159.262 182.311C159.244 182.342 159.23 182.379 159.2 182.4C159.172 182.421 159.134 182.422 159.098 182.422C158.914 182.424 158.731 182.425 158.547 182.428C158.465 182.428 158.38 182.429 158.304 182.397C158.227 182.364 158.168 182.301 158.11 182.238C157.978 182.095 157.84 181.942 157.792 181.753C157.783 181.719 157.777 181.683 157.753 181.657C157.72 181.619 157.661 181.613 157.627 181.574C157.597 181.541 157.595 181.491 157.595 181.446C157.594 180.612 157.584 180.358 158.293 179.887C158.37 179.844 158.451 179.808 158.537 179.784C158.749 179.725 158.973 179.749 159.193 179.773C159.196 179.785 159.2 179.797 159.206 179.809H159.205Z" fill="#EBF8F5"/>
<path d="M180.383 182.315C180.009 182.132 179.762 181.746 179.699 181.279C179.636 180.813 179.798 180.334 180.123 180.003C180.234 179.934 180.31 179.907 180.323 179.769C180.332 179.723 180.772 179.739 180.817 179.739C181.154 179.732 181.482 179.981 181.712 180.23C181.904 180.44 181.967 180.723 181.973 181C181.976 181.125 181.98 181.278 181.946 181.4C181.906 181.541 181.808 181.568 181.77 181.692C181.751 181.754 181.751 181.821 181.724 181.879C181.703 181.922 181.668 181.958 181.633 181.991C181.442 182.171 181.201 182.426 180.922 182.431C180.723 182.435 180.541 182.393 180.384 182.315H180.383Z" fill="#EBF8F5"/>
</g>
</g>
<path d="M31.0551 164.507C28.49 164.507 26.5451 163.802 25.2204 162.393C23.9238 160.983 23.2755 159.208 23.2755 157.065C23.2755 155.543 23.5855 154.021 24.2056 152.499C24.8539 150.949 25.77 149.596 26.9539 148.44C28.1377 147.284 29.5189 146.509 31.0973 146.115C30.2235 145.495 29.5752 144.748 29.1524 143.874C28.7296 142.972 28.5182 142.028 28.5182 141.041C28.5182 139.575 28.9128 138.138 29.7021 136.728C30.5195 135.319 31.6329 134.178 33.0422 133.304C34.4798 132.402 36.0582 131.951 37.7776 131.951C39.5534 131.951 41.005 132.416 42.1325 133.346C43.26 134.276 43.8237 135.573 43.8237 137.236C43.8237 138.476 43.5137 139.519 42.8936 140.365C42.2735 141.21 41.5406 141.633 40.695 141.633C39.9339 141.633 39.2715 141.252 38.7078 140.491C39.2152 140.322 39.6521 139.857 40.0185 139.096C40.3849 138.335 40.5681 137.574 40.5681 136.813C40.5681 135.996 40.3426 135.404 39.8917 135.037C39.4407 134.643 38.891 134.445 38.2427 134.445C37.4253 134.445 36.6783 134.741 36.0019 135.333C35.3536 135.897 34.8462 136.644 34.4798 137.574C34.1133 138.476 33.9301 139.42 33.9301 140.407C33.9301 141.76 34.2825 142.958 34.9871 144.001C35.6918 145.015 36.7629 145.706 38.2004 146.072C36.7629 146.382 35.4663 147.087 34.3106 148.186C33.155 149.286 32.253 150.568 31.6047 152.034C30.9564 153.471 30.6322 154.853 30.6322 156.177C30.6322 157.446 30.9564 158.475 31.6047 159.264C32.2812 160.053 33.2959 160.448 34.6489 160.448C36.0582 160.448 37.524 160.067 39.0461 159.306C40.5963 158.517 41.7379 157.46 42.4708 156.135L43.4432 156.558C42.3439 158.982 40.6527 160.913 38.3696 162.35C36.0864 163.788 33.6483 164.507 31.0551 164.507ZM57.3951 164.042C54.6046 164.042 52.4906 163.365 51.053 162.012C49.6437 160.631 48.939 158.601 48.939 155.924C48.939 154.599 49.1363 153.119 49.5309 151.484L53.8435 134.318C51.4195 134.967 49.5309 136.122 48.178 137.785C46.825 139.42 46.1485 141.224 46.1485 143.197C46.1485 144.578 46.5149 145.917 47.2478 147.214C45.6411 147.214 44.3868 146.819 43.4848 146.03C42.611 145.241 42.1741 144.127 42.1741 142.69C42.1741 140.858 42.907 139.11 44.3727 137.447C45.8666 135.756 47.8397 134.403 50.292 133.388C52.7442 132.374 55.3374 131.866 58.0716 131.866C59.0299 131.866 59.8192 131.937 60.4393 132.078L55.2811 151.611C54.8019 153.387 54.5623 154.909 54.5623 156.177C54.5623 158.855 55.6616 160.194 57.8602 160.194C61.0171 160.194 63.2016 157.291 64.4136 151.484L68.6417 131.951H74.6032L70.502 151.484C69.6 155.628 68.0357 158.757 65.8089 160.871C63.6103 162.985 60.8057 164.042 57.3951 164.042Z" fill="#EBF8F5"/>
<path d="M50.4866 173.667H49.9792C47.4706 173.667 45.5116 174.301 44.1022 175.569C42.7211 176.809 42.0305 179.022 42.0305 182.207C42.0305 183.25 42.1291 183.983 42.3265 184.406C42.5238 184.8 42.6224 185.026 42.6224 185.082C41.1003 185.082 39.9587 184.772 39.1977 184.152C38.4648 183.504 38.0984 182.447 38.0984 180.981C38.0984 178.98 38.5917 177.162 39.5782 175.527C40.5648 173.864 42.1291 172.525 44.2714 171.51C46.4417 170.496 49.19 169.988 52.516 169.988C54.3764 169.988 56.3776 170.157 58.5199 170.496C60.3238 170.806 61.9305 170.961 63.3398 170.961C65.1438 170.961 66.7786 170.665 68.2443 170.073C68.188 171.905 67.7229 173.258 66.8491 174.132C65.9753 175.005 64.6787 175.442 62.9593 175.442C62.0573 175.442 61.1553 175.372 60.2533 175.231C59.3514 175.09 58.0689 174.85 56.4058 174.512L50.5711 201.656H44.4828L50.4866 173.667ZM61.0755 180.516H67.1639L66.6142 183.137C67.5726 182.292 68.4323 181.644 69.1933 181.193C69.9826 180.742 70.8282 180.516 71.7302 180.516C72.6321 180.516 73.3368 180.826 73.8442 181.446C74.3797 182.066 74.6475 182.813 74.6475 183.687C74.6475 184.504 74.3797 185.223 73.8442 185.843C73.3086 186.463 72.5617 186.774 71.6033 186.774C70.9832 186.774 70.5604 186.633 70.3349 186.351C70.1376 186.041 69.9826 185.604 69.8698 185.04C69.7853 184.674 69.7007 184.406 69.6161 184.237C69.5316 184.068 69.3766 183.983 69.1511 183.983C68.5591 183.983 68.0518 184.11 67.629 184.364C67.2343 184.589 66.7129 184.998 66.0646 185.59L62.6822 201.656H56.5938L61.0755 180.516ZM81.1577 178.233C80.2275 178.233 79.4383 177.909 78.79 177.26C78.1417 176.612 77.8176 175.823 77.8176 174.893C77.8176 173.963 78.1417 173.173 78.79 172.525C79.4383 171.849 80.2275 171.51 81.1577 171.51C82.0879 171.51 82.8771 171.849 83.5254 172.525C84.2019 173.173 84.5401 173.963 84.5401 174.893C84.5401 175.823 84.2019 176.612 83.5254 177.26C82.8771 177.909 82.0879 178.233 81.1577 178.233ZM78.2826 201.91C76.9297 201.91 75.8304 201.487 74.9848 200.642C74.1673 199.796 73.7586 198.527 73.7586 196.836C73.7586 196.132 73.8714 195.216 74.0969 194.088L76.9719 180.516H83.0603L80.0161 194.891C79.9034 195.314 79.847 195.765 79.847 196.244C79.847 196.808 79.9739 197.217 80.2275 197.47C80.5094 197.696 80.9604 197.809 81.5805 197.809C82.3979 197.809 83.159 197.47 83.8637 196.794C84.5683 196.089 85.0757 195.187 85.3857 194.088H87.1615C86.1186 197.132 84.7797 199.204 83.1449 200.303C81.51 201.374 79.8893 201.91 78.2826 201.91ZM90.9922 201.91C89.0755 201.91 87.6098 201.445 86.595 200.515C85.5803 199.556 85.0729 198.217 85.0729 196.498C85.0729 195.652 85.1716 194.849 85.3689 194.088L89.8929 172.906L96.1504 172.06L94.121 181.573C94.9102 181.094 95.5585 180.784 96.0658 180.643C96.5732 180.474 97.0806 180.389 97.5879 180.389C100.914 180.389 102.577 182.799 102.577 187.619C102.577 189.564 102.197 191.65 101.435 193.877C100.703 196.075 99.4624 197.964 97.7148 199.542C95.9954 201.121 93.7545 201.91 90.9922 201.91ZM93.3599 197.809C94.2337 197.809 95.0511 197.273 95.8122 196.202C96.5732 195.103 97.1792 193.75 97.6302 192.143C98.0812 190.508 98.3067 188.944 98.3067 187.45C98.3067 186.323 98.1094 185.364 97.7148 184.575C97.3202 183.786 96.7705 183.391 96.0658 183.391C95.643 183.391 95.1639 183.462 94.6283 183.603C94.121 183.715 93.7686 183.898 93.5713 184.152L91.2459 194.891C91.1613 195.23 91.119 195.554 91.119 195.864C91.119 197.16 91.866 197.809 93.3599 197.809ZM110.117 201.91C108.06 201.91 106.453 201.374 105.297 200.303C104.142 199.204 103.564 197.499 103.564 195.187C103.564 193.242 103.944 191.1 104.705 188.761C105.466 186.421 106.707 184.406 108.426 182.715C110.145 180.995 112.33 180.136 114.979 180.136C118.08 180.136 119.63 181.488 119.63 184.194C119.63 185.773 119.179 187.225 118.277 188.549C117.375 189.874 116.177 190.945 114.683 191.763C113.19 192.552 111.597 193.003 109.906 193.116C109.849 193.736 109.821 194.159 109.821 194.384C109.821 196.724 110.695 197.893 112.443 197.893C113.232 197.893 114.077 197.682 114.979 197.259C115.881 196.836 116.699 196.301 117.432 195.652C116.671 199.824 114.232 201.91 110.117 201.91ZM110.202 191.086C111.273 191.058 112.273 190.706 113.204 190.029C114.162 189.353 114.923 188.493 115.487 187.45C116.079 186.379 116.375 185.266 116.375 184.11C116.375 182.954 116.022 182.376 115.318 182.376C114.331 182.376 113.345 183.278 112.358 185.082C111.4 186.858 110.681 188.859 110.202 191.086Z" fill="#EBF8F5"/>
<g clip-path="url(#clip8_159_245)">
<path d="M138.678 184.296C137.441 187.746 136.226 191.137 135.005 194.542C133.62 193.109 131.487 193.883 131.305 195.818C130.023 195.648 129.376 194.617 129.81 193.394C130.905 190.318 132.009 187.245 133.118 184.174C133.495 183.13 134.358 182.726 135.394 183.095C136.471 183.479 137.542 183.879 138.677 184.295L138.678 184.296Z" fill="#EBF8F5"/>
<path d="M133.704 197.213C132.942 197.388 132.215 196.939 132.038 196.186C131.865 195.444 132.331 194.691 133.071 194.516C133.824 194.338 134.544 194.789 134.73 195.555C134.915 196.317 134.469 197.038 133.704 197.213Z" fill="#EBF8F5"/>
<path d="M140.901 175.782C141.136 175.869 141.355 175.951 141.691 176.076C141.484 176.413 141.299 176.707 141.125 177.006C141.052 177.133 140.995 177.272 140.945 177.411C140.266 179.306 139.59 181.2 138.913 183.094C138.877 183.192 138.86 183.308 138.795 183.381C138.733 183.451 138.6 183.531 138.536 183.506C138.465 183.478 138.378 183.321 138.398 183.25C138.51 182.864 138.651 182.487 138.786 182.108C139.364 180.494 139.954 178.885 140.513 177.266C140.643 176.889 140.666 176.476 140.75 176.082C140.771 175.987 140.838 175.902 140.9 175.783L140.901 175.782Z" fill="#EBF8F5"/>
<path d="M131.693 186.142C130.905 188.342 130.13 190.504 129.337 192.719C128.998 192.409 128.946 192.097 129.069 191.751C129.672 190.054 130.276 188.357 130.89 186.663C131.008 186.338 131.233 186.12 131.691 186.141L131.693 186.142Z" fill="#EBF8F5"/>
</g>
<g clip-path="url(#clip9_159_245)">
<path d="M492.455 279.339L491.713 276.887L482.677 274.709L476.284 272.982L466.816 270.85L455.921 268.968L445.968 267.875L434.897 267.201L426.377 267.288L411.646 267.459L399.529 268.628L385.956 270.593L368.762 273.21L347.975 278.084L324.744 284.58L301.447 292.351L283.889 298.475L259.746 309.357L239.427 318.995L223.028 328.076L206.903 337.776L193.202 347.202L188.58 350.477L186.143 353.005L184.717 354.776L184.637 356.85L192.861 384.019L194.602 385.36L196.718 386.157L201.927 386.894L211.936 386.996L226.587 386.571L238.538 385.723L260.782 383.904L281.113 381.044L298.188 378.016L318.257 373.728L337.414 368.464L373.473 357.541L392.464 350.269L407.74 343.67L423.656 335.636L439.355 326.598L451.632 317.432L471.458 301.156L483.518 289.821L490.667 281.661L492.455 279.339Z" fill="#AB1A1A"/>
<path d="M271.575 317.367C275.909 317.876 285.857 311.294 289.859 309.693C298.597 306.202 307.426 302.928 316.345 299.939C333.821 294.087 351.669 289.304 369.821 286.048C401.364 280.392 434.113 279.29 465.716 285.221C462.295 287.355 459.684 291.695 456.653 294.568C446.657 304.03 434.192 311.789 422.46 318.868C382.303 343.119 337.547 355.898 292.231 366.447C289.424 367.1 286.631 367.759 283.828 368.422C287.398 367.573 292.937 361.165 295.893 358.797C305.081 351.437 313.142 342.665 319.713 332.887C320.442 331.805 321.175 330.454 320.631 329.261C320.278 328.5 319.487 328.045 318.739 327.655C303.993 320.018 287.723 319.277 271.562 317.36L271.575 317.367Z" fill="#DE8282"/>
<path d="M246.597 329.419C247.186 329.378 247.778 329.449 248.369 329.519C255.065 330.334 261.693 331.673 268.186 333.503C273.516 335.007 281.509 336.497 285.566 340.542C279.828 348.859 274.456 357.844 266.755 364.544C257.5 372.608 245.553 373.678 233.725 373.893C227.524 374.008 220.09 372.308 216.404 366.758C215.89 365.98 215.563 365.088 215.243 364.215C214.165 361.266 213.059 358.191 213.41 355.069C214.411 346.202 224.364 339.708 231.547 336.205C235.683 334.181 239.842 332.194 244.023 330.244C244.732 329.908 245.464 329.576 246.243 329.464C246.361 329.449 246.479 329.434 246.6 329.429L246.597 329.419Z" fill="#DE8282"/>
<path d="M488.958 288.361L492.584 284.403C493.024 283.922 493.133 283.223 492.86 282.631C492.383 281.598 491.017 281.366 490.226 282.184L484.256 288.361L477.986 294.892L457.608 312.918L445.982 321.932L439.843 326.373L416.461 339.566L398.565 347.534L370.81 358.376C369.626 358.838 369.957 360.597 371.228 360.597C371.338 360.597 371.448 360.581 371.554 360.55L379.363 358.246L399.61 349.886L423.645 339.566L448.333 324.675L461.265 314.355L473.021 304.297L481.904 296.198L488.958 288.361Z" fill="#D4C7AF"/>
<path d="M389.727 312.174C390.079 313.089 391.51 314.107 392.867 314.902C394.614 315.929 396.518 316.678 398.51 317.043C400.003 317.316 401.742 317.461 402.921 317.007M402.921 317.007C401.742 317.461 400.548 318.735 399.625 319.939C398.393 321.547 397.485 323.38 396.877 325.311C396.404 326.812 396.028 328.53 396.379 329.443M402.921 317.007L373.317 328.411" stroke="#EBF8F5" stroke-width="2.33333"/>
</g>
<path d="M345.222 322.948C344.018 323.393 343.026 323.642 342.244 323.696C341.462 323.75 340.832 323.651 340.352 323.4C339.877 323.161 339.492 322.812 339.199 322.354C338.913 321.879 338.662 321.35 338.446 320.767C338.087 319.794 337.7 318.672 337.286 317.402C336.884 316.127 336.461 314.756 336.016 313.29C335.578 311.807 335.129 310.273 334.668 308.689L338.109 307.791C338.333 308.772 338.578 309.773 338.845 310.794C339.119 311.798 339.397 312.773 339.678 313.72C339.958 314.666 340.219 315.523 340.462 316.291C340.704 317.058 340.907 317.702 341.071 318.221C341.243 318.724 341.356 319.049 341.41 319.195C341.567 319.62 341.735 319.925 341.913 320.108C342.087 320.278 342.333 320.346 342.652 320.311C342.971 320.277 343.41 320.156 343.969 319.949C344.674 319.689 345.455 319.352 346.311 318.939C347.163 318.513 348.011 318.041 348.856 317.522C349.7 317.002 350.452 316.476 351.112 315.942L352.982 318.816C352.232 319.328 351.408 319.847 350.51 320.372C349.624 320.893 348.725 321.377 347.813 321.825C346.9 322.273 346.037 322.647 345.222 322.948ZM360.191 317.563C359.023 317.994 357.91 318.142 356.852 318.008C355.81 317.882 354.89 317.503 354.09 316.873C353.303 316.238 352.711 315.386 352.316 314.315C352.078 313.671 351.938 312.956 351.896 312.17C351.85 311.371 351.956 310.572 352.213 309.772C352.47 308.973 352.922 308.232 353.569 307.551C354.227 306.865 355.128 306.311 356.271 305.889C357.098 305.584 357.825 305.419 358.452 305.394C359.091 305.366 359.64 305.432 360.101 305.594C360.573 305.751 360.961 305.96 361.265 306.221C361.581 306.477 361.825 306.746 361.999 307.027C362.179 307.292 362.306 307.522 362.378 307.717C362.813 308.896 362.652 309.992 361.893 311.005C361.141 312.001 359.86 312.834 358.048 313.504C357.635 313.656 357.233 313.784 356.842 313.887C356.464 313.985 356.108 314.068 355.774 314.137C356.229 314.659 356.779 314.968 357.422 315.062C358.06 315.144 358.665 315.079 359.236 314.868C360.063 314.562 360.739 314.147 361.263 313.622C361.783 313.084 362.208 312.402 362.539 311.575L365.025 313.31C364.752 313.77 364.436 314.26 364.075 314.78C363.727 315.296 363.246 315.791 362.634 316.266C362.026 316.753 361.212 317.185 360.191 317.563ZM357.337 308.605C356.619 308.87 356.055 309.286 355.642 309.853C355.23 310.42 355.006 311.048 354.971 311.738C355.293 311.675 355.606 311.607 355.912 311.536C356.225 311.448 356.527 311.35 356.819 311.242C357.086 311.143 357.381 311.007 357.704 310.832C358.038 310.653 358.352 310.455 358.644 310.236C358.949 310.013 359.184 309.788 359.349 309.561C359.509 309.322 359.551 309.099 359.475 308.893C359.439 308.796 359.345 308.692 359.194 308.582C359.043 308.472 358.817 308.403 358.517 308.376C358.217 308.349 357.823 308.425 357.337 308.605ZM372.705 312.918C371.975 313.188 371.339 313.243 370.797 313.084C370.259 312.937 369.791 312.626 369.395 312.151C368.998 311.676 368.639 311.097 368.318 310.414C368.008 309.727 367.71 308.994 367.423 308.216C367.126 307.413 366.849 306.569 366.59 305.683C365.816 306.094 365.084 306.523 364.393 306.972L362.769 304.317C363.68 303.677 364.684 303.085 365.782 302.541C365.638 301.889 365.489 301.205 365.334 300.488C365.176 299.759 365.015 298.989 364.854 298.178L368.092 297.293C368.18 297.979 368.286 298.658 368.41 299.331C368.53 299.992 368.655 300.63 368.785 301.245C369.466 300.993 370.111 300.775 370.721 300.592C371.338 300.392 371.915 300.234 372.453 300.118L373.146 303.116C372.702 303.225 372.247 303.358 371.781 303.517C371.322 303.659 370.861 303.815 370.399 303.986C370.12 304.089 369.842 304.199 369.567 304.314C369.822 305.229 370.054 306.007 370.264 306.648C370.485 307.285 370.645 307.737 370.744 308.004C370.991 308.673 371.205 309.14 371.386 309.405C371.579 309.665 371.766 309.762 371.949 309.694C372.155 309.618 372.362 309.466 372.568 309.238C372.769 308.997 372.947 308.711 373.1 308.378C373.265 308.04 373.382 307.7 373.449 307.357L375.938 309.775C375.156 311.363 374.079 312.411 372.705 312.918ZM374.738 298.341L372.789 298.003C373.024 297.779 373.246 297.538 373.455 297.281C373.664 297.024 373.795 296.761 373.848 296.493L373.757 296.527C373.538 296.607 373.287 296.638 373.003 296.619C372.731 296.594 372.468 296.498 372.212 296.33C371.969 296.158 371.782 295.895 371.652 295.542C371.553 295.275 371.516 294.97 371.542 294.629C371.581 294.283 371.713 293.951 371.941 293.632C372.176 293.296 372.555 293.032 373.078 292.839C373.747 292.592 374.289 292.599 374.703 292.86C375.13 293.117 375.446 293.525 375.653 294.085C375.77 294.401 375.832 294.813 375.84 295.321C375.856 295.813 375.779 296.332 375.608 296.879C375.444 297.409 375.154 297.897 374.738 298.341ZM388.047 307.332C387.22 307.638 386.418 307.824 385.641 307.89C384.864 307.956 384.134 307.942 383.45 307.85C382.766 307.757 382.136 307.623 381.561 307.449L382.225 304.198C382.911 304.483 383.538 304.666 384.107 304.746C384.675 304.826 385.233 304.821 385.779 304.729C386.338 304.633 386.922 304.473 387.53 304.249C388.052 304.055 388.447 303.833 388.714 303.583C388.976 303.32 389.067 303.079 388.986 302.86C388.919 302.678 388.715 302.594 388.375 302.609C388.031 302.612 387.608 302.665 387.107 302.767C386.601 302.857 386.064 302.938 385.497 303.01C384.683 303.089 383.907 303.12 383.168 303.103C382.429 303.086 381.778 302.932 381.215 302.643C380.664 302.349 380.254 301.837 379.985 301.108C379.769 300.524 379.72 299.962 379.838 299.421C379.951 298.867 380.185 298.359 380.54 297.897C380.901 297.418 381.353 296.995 381.895 296.629C382.437 296.263 383.024 295.963 383.657 295.729C384.751 295.325 385.743 295.111 386.632 295.086C387.529 295.045 388.421 295.102 389.307 295.259L388.578 298.389C388.119 298.268 387.618 298.204 387.077 298.197C386.543 298.173 386.021 298.2 385.51 298.278C385.008 298.34 384.556 298.444 384.155 298.593C383.717 298.754 383.395 298.949 383.189 299.177C382.995 299.401 382.943 299.634 383.033 299.878C383.087 300.023 383.291 300.107 383.644 300.129C384.005 300.133 384.662 300.077 385.614 299.961C386.182 299.889 386.782 299.812 387.415 299.73C388.044 299.636 388.656 299.611 389.252 299.653C389.856 299.679 390.394 299.846 390.868 300.155C391.349 300.447 391.717 300.939 391.973 301.632C392.405 302.8 392.273 303.885 391.58 304.887C390.891 305.902 389.713 306.717 388.047 307.332ZM402.635 300.326C401.869 300.609 401.176 300.734 400.555 300.7C399.935 300.667 399.381 300.533 398.894 300.299C398.414 300.047 397.998 299.745 397.647 299.391C397.29 299.025 397.001 298.655 396.78 298.281C396.555 297.894 396.386 297.549 396.273 297.245C396.058 296.662 395.914 296.031 395.843 295.352C395.784 294.669 395.851 293.988 396.042 293.309C396.246 292.626 396.627 291.994 397.187 291.414C397.759 290.83 398.567 290.345 399.613 289.958C399.929 289.842 400.23 289.758 400.516 289.708C400.801 289.658 401.075 289.632 401.337 289.632L401.115 289.03L404.271 287.864C404.528 288.599 404.821 289.43 405.151 290.358C405.475 291.275 405.851 292.311 406.278 293.466C406.498 294.062 406.729 294.688 406.972 295.345C407.222 295.985 407.489 296.688 407.772 297.454C408.158 298.499 408.335 299.408 408.303 300.18C408.27 300.952 408.102 301.602 407.799 302.128C407.496 302.655 407.137 303.085 406.721 303.418C406.322 303.759 405.926 304.016 405.534 304.188C405.158 304.369 404.873 304.495 404.679 304.566C404.205 304.742 403.661 304.88 403.049 304.982C402.442 305.096 401.81 305.143 401.153 305.123C400.501 305.115 399.872 305.023 399.268 304.845L399.575 301.581C399.973 301.724 400.363 301.843 400.743 301.937C401.128 302.044 401.543 302.083 401.989 302.057C402.44 302.042 402.963 301.925 403.559 301.705C404.167 301.48 404.577 301.205 404.788 300.878C405.003 300.563 405.088 300.214 405.043 299.83C405.015 299.454 404.93 299.056 404.789 298.638C404.488 299.095 404.145 299.457 403.76 299.724C403.375 299.99 403 300.191 402.635 300.326ZM398.915 295.979C399.171 296.672 399.561 297.15 400.087 297.412C400.624 297.669 401.227 297.674 401.896 297.427C402.832 297.081 403.331 296.282 403.394 295.029C403.25 294.64 403.098 294.247 402.937 293.85C402.785 293.437 402.63 293.038 402.474 292.653C401.871 292.517 401.253 292.565 400.621 292.799C399.843 293.086 399.299 293.522 398.99 294.106C398.688 294.674 398.663 295.298 398.915 295.979ZM415.632 297.12C414.66 297.479 413.75 297.636 412.904 297.589C412.069 297.538 411.314 297.326 410.638 296.954C409.957 296.57 409.368 296.062 408.872 295.43C408.376 294.798 407.982 294.087 407.69 293.297C407.394 292.494 407.259 291.701 407.287 290.916C407.323 290.115 407.496 289.368 407.806 288.673C408.128 287.973 408.578 287.358 409.155 286.827C409.728 286.283 410.416 285.863 411.219 285.567C412.058 285.257 412.89 285.115 413.715 285.142C414.54 285.169 415.317 285.345 416.045 285.67C416.773 285.995 417.414 286.456 417.966 287.054C418.531 287.647 418.966 288.357 419.271 289.183C419.95 291.02 419.973 292.635 419.341 294.029C418.705 295.411 417.468 296.441 415.632 297.12ZM414.522 294.172C415.41 293.844 415.993 293.345 416.271 292.676C416.561 292.002 416.533 291.197 416.187 290.261C415.877 289.422 415.372 288.841 414.673 288.519C413.973 288.197 413.21 288.189 412.383 288.495C411.885 288.679 411.478 288.981 411.164 289.401C410.845 289.809 410.638 290.279 410.545 290.812C410.459 291.327 410.512 291.846 410.705 292.369C410.876 292.831 411.134 293.247 411.478 293.618C411.834 293.983 412.271 294.23 412.787 294.357C413.3 294.472 413.878 294.41 414.522 294.172Z" fill="#EBF8F5"/>
</g>
</g>
<defs>
<linearGradient id="paint0_linear_159_245" x1="93.8386" y1="-25.6938" x2="93.8386" y2="364.31" gradientUnits="userSpaceOnUse">
<stop stop-color="#A3D2E2"/>
<stop offset="1" stop-color="#BBDEE4"/>
</linearGradient>
<linearGradient id="paint1_linear_159_245" x1="119.544" y1="208" x2="-199.487" y2="271.397" gradientUnits="userSpaceOnUse">
<stop stop-color="#8AC8D7"/>
<stop offset="1" stop-color="#429FC5"/>
</linearGradient>
<linearGradient id="paint2_linear_159_245" x1="93.5739" y1="-20.6382" x2="93.5739" y2="369.366" gradientUnits="userSpaceOnUse">
<stop stop-color="#A3D2E2"/>
<stop offset="1" stop-color="#BBDEE4"/>
</linearGradient>
<linearGradient id="paint3_linear_159_245" x1="119.28" y1="213.055" x2="-199.751" y2="276.452" gradientUnits="userSpaceOnUse">
<stop stop-color="#8AC8D7"/>
<stop offset="1" stop-color="#429FC5"/>
</linearGradient>
<clipPath id="clip0_159_245">
<rect width="560" height="350" fill="white"/>
</clipPath>
<clipPath id="clip1_159_245">
<rect width="560" height="373.333" fill="white" transform="translate(0 -13.3335)"/>
</clipPath>
<clipPath id="clip2_159_245">
<rect width="20.099" height="18.9304" fill="white" transform="translate(454.983 136.592) rotate(-71.723)"/>
</clipPath>
<clipPath id="clip3_159_245">
<rect width="119.231" height="81.3193" fill="white" transform="translate(74.7285 130.157)"/>
</clipPath>
<clipPath id="clip4_159_245">
<rect width="32.1331" height="13.6707" fill="white" transform="translate(156.262 176.958)"/>
</clipPath>
<clipPath id="clip5_159_245">
<rect width="15.9256" height="19.3081" fill="white" transform="translate(128.621 178.119) rotate(-12.7841)"/>
</clipPath>
<clipPath id="clip6_159_245">
<rect width="119.231" height="81.3193" fill="white" transform="translate(72.166 131.188)"/>
</clipPath>
<clipPath id="clip7_159_245">
<rect width="32.1331" height="13.6707" fill="white" transform="translate(153.699 177.988)"/>
</clipPath>
<clipPath id="clip8_159_245">
<rect width="15.9256" height="19.3081" fill="white" transform="translate(126.058 179.149) rotate(-12.7841)"/>
</clipPath>
<clipPath id="clip9_159_245">
<rect width="318.31" height="85.3254" fill="white" transform="translate(175.596 331.192) rotate(-17.5507)"/>
</clipPath>
</defs>
</svg>
